<svg width="228" height="218" viewBox="0 0 228 218" fill="none" xmlns="http://www.w3.org/2000/svg">
<path opacity="0.05" d="M81.6815 25.085C81.9621 29.295 82.2428 33.505 82.5235 37.715C83.6461 43.8897 89.3998 46.977 99.7845 46.977C114.098 46.977 124.343 42.0653 130.517 32.242C118.449 27.4707 102.17 25.085 81.6815 25.085ZM73.2615 122.336H120.834C119.15 114.197 111.572 107.882 98.1005 103.391C90.2418 100.865 81.5411 100.584 71.9985 102.549C75.3665 103.952 77.3311 106.759 77.8925 110.969C78.4538 115.74 76.9101 119.529 73.2615 122.336ZM58.5265 59.186C53.4745 52.45 52.7728 43.3283 56.4215 31.821C57.8248 27.0496 53.6148 24.664 43.7915 24.664C39.5815 24.664 36.3538 25.2253 34.1085 26.348V2.77198C47.8611 1.08799 62.4558 0.24599 77.8925 0.24599C97.2585 0.24599 113.677 1.64932 127.149 4.45599C160.829 11.4726 188.896 26.348 211.349 49.082C237.451 75.7453 250.643 110.688 250.923 153.911C251.204 190.959 239.135 222.113 214.717 247.373C190.299 272.633 158.444 285.263 119.15 285.263C84.6285 285.263 56.5618 278.387 34.9505 264.634C11.6551 249.478 0.00746521 228.147 0.00746521 200.642C0.00746521 175.663 7.86613 157.981 23.5835 147.596H0.428465V124.02H31.5825C26.8111 121.213 24.4255 116.161 24.4255 108.864C24.4255 99.8827 28.2145 92.7257 35.7925 87.393C48.7031 78.4117 66.1045 74.763 87.9965 76.447C114.379 78.4117 132.763 87.1123 143.147 102.549C149.603 112.372 153.111 127.388 153.672 147.596H90.9435C55.8601 147.596 37.0555 158.682 34.5295 180.855C32.5648 198.537 41.5461 212.149 61.4735 221.692C78.8748 229.831 98.9425 233.199 121.676 231.796C146.375 230.393 166.723 222.815 182.721 209.062C198.719 195.309 209.104 177.206 213.875 154.753C215.279 148.578 215.98 142.263 215.98 135.808C215.98 115.881 210.227 96.9357 198.719 78.973C187.773 61.8523 174.161 49.6433 157.882 42.346C152.269 48.24 148.34 52.3097 146.094 54.555C141.042 59.0457 136.411 62.2733 132.201 64.238C120.133 69.8513 107.783 72.5177 95.1535 72.237C76.9101 71.6757 64.7011 67.3253 58.5265 59.186Z" fill="url(#paint0_linear_231_2543)"/>
<defs>
<linearGradient id="paint0_linear_231_2543" x1="-35.9375" y1="-101.577" x2="314.57" y2="603.003" gradientUnits="userSpaceOnUse">
<stop stop-color="#0D73AE" stop-opacity="0"/>
<stop offset="0.721097" stop-color="#0D73AE"/>
</linearGradient>
</defs>
</svg>
