<svg width="82" height="82" viewBox="0 0 82 82" fill="none" xmlns="http://www.w3.org/2000/svg">
<path opacity="0.05" d="M51.989 23.48V58.808C49.941 59.2347 46.997 59.448 43.157 59.448C39.4023 59.3627 36.501 59.1067 34.453 58.68C23.701 56.2907 18.2397 50.1467 18.069 40.248C17.9837 35.8107 19.3917 31.928 22.293 28.6C25.1943 25.1867 28.9063 23.48 33.429 23.48H51.989ZM60.693 33.336V20.28C60.693 14.0507 61.589 10.7227 63.381 10.296C63.2957 10.7227 63.253 11.1493 63.253 11.576C63.253 13.0267 64.3197 15.288 66.453 18.36C68.6717 21.432 69.781 24.1627 69.781 26.552C69.781 28.6853 69.013 30.392 67.477 31.672C65.941 32.8667 64.1917 33.464 62.229 33.464C61.717 33.464 61.205 33.4213 60.693 33.336ZM24.981 8.76C29.1623 7.56533 33.6423 7.736 38.421 9.272C42.517 10.6373 44.9917 12.856 45.845 15.928H28.181C27.7543 15.928 27.157 15.928 26.389 15.928C25.621 16.0133 25.109 16.056 24.853 16.056C25.877 15.3733 26.389 14.3067 26.389 12.856C26.389 11.4053 25.9197 10.04 24.981 8.76ZM0.533 38.84C0.447667 47.9707 3.81833 55.0533 10.645 60.088C16.6183 64.44 24.5543 66.8293 34.453 67.256C39.6583 67.512 45.5037 67.2987 51.989 66.616V81.336H60.693V65.208C62.0583 64.952 64.277 64.3973 67.349 63.544C68.373 63.2027 70.1223 62.4347 72.597 61.24V53.944C71.573 54.3707 69.8663 55.0107 67.477 55.864C66.0263 56.2907 63.765 56.888 60.693 57.656V40.76C65.8983 41.272 70.549 40.2907 74.645 37.816C79.4237 35 81.685 30.9467 81.429 25.656C81.2583 22.84 80.1917 20.2373 78.229 17.848C77.2903 16.6533 75.541 15.0747 72.981 13.112C71.189 11.7467 70.3357 10.7227 70.421 10.04C70.677 8.33333 71.6157 7.48 73.237 7.48C73.749 7.48 74.2183 7.608 74.645 7.864V0.695999H66.837C63.5943 0.695999 60.693 1.63467 58.133 3.512C55.6583 5.38933 53.909 7.82133 52.885 10.808C49.9837 4.06667 42.3037 0.610664 29.845 0.439995C21.9943 0.354663 15.9357 1.976 11.669 5.304C9.19433 7.26666 7.957 9.656 7.957 12.472C7.957 13.8373 8.29833 15.16 8.981 16.44C9.749 17.72 11.029 18.6587 12.821 19.256C9.40767 20.792 6.549 23.2667 4.245 26.68C1.77033 30.3493 0.533 34.4027 0.533 38.84Z" fill="#0D73AE"/>
</svg>
