<svg width="815" height="458" viewBox="0 0 815 458" fill="none" xmlns="http://www.w3.org/2000/svg">
<g opacity="0.1">
<g clip-path="url(#clip0_231_2477)">
<path fill-rule="evenodd" clip-rule="evenodd" d="M750.403 249.297L752.717 243.775C753.221 242.624 753.825 241.473 754.294 240.29C754.443 239.754 754.522 239.202 754.529 238.646L753.422 239.665C753.086 239.961 752.818 240.652 752.315 240.159C751.812 239.665 752.483 239.337 752.785 239.041C754.227 237.496 755.77 235.885 757.381 234.34C757.665 234.143 757.983 233.998 758.32 233.913C758.32 234.307 758.655 234.8 758.521 235.03C757.838 236.458 757.505 238.023 757.548 239.6C757.584 239.806 757.584 240.018 757.548 240.224C757.381 240.487 757.381 240.487 757.179 240.487C756.978 240.487 756.743 240.487 756.71 240.224C756.676 239.961 756.71 239.205 756.71 238.712C756.728 238.471 756.728 238.23 756.71 237.989C756.71 238.153 756.307 238.285 756.206 238.482L752.281 247.259C751.476 249.1 750.604 250.875 749.732 252.716L749.296 253.637C748.222 255.872 748.222 255.872 750.671 256.661C751.342 256.891 751.711 256.661 751.912 256.102C752.348 254.787 752.785 253.505 753.288 252.256C753.791 251.007 754.227 250.054 754.73 248.969C754.759 248.854 754.817 248.749 754.899 248.663C754.98 248.577 755.083 248.512 755.198 248.476C755.312 248.44 755.434 248.433 755.552 248.456C755.67 248.479 755.779 248.531 755.871 248.607C756.542 248.936 757.515 249.067 757.884 249.593C758.253 250.119 757.381 250.842 757.381 251.5C756.81 253.439 756.307 255.346 755.737 257.286C755.683 257.424 755.658 257.571 755.663 257.719C755.667 257.866 755.702 258.012 755.764 258.146C755.827 258.281 755.916 258.402 756.026 258.502C756.137 258.603 756.266 258.681 756.408 258.732C757.548 259.258 758.689 259.817 759.763 260.31C760.836 260.803 760.803 260.606 761.104 259.751C761.641 258.173 762.144 256.464 762.681 255.017C763.017 254.097 763.419 253.209 763.788 252.322L767.143 243.479C767.24 243.247 767.24 242.987 767.143 242.756C767.014 242.383 766.752 242.068 766.405 241.868C766.204 241.868 765.701 242.032 765.499 242.262C765.3 242.589 765.153 242.944 765.063 243.314C763.755 246.602 762.446 250.054 761.172 253.439C760.735 254.557 760.366 255.675 759.964 256.727C759.837 257.169 759.668 257.598 759.461 258.009C759.461 258.305 758.924 258.436 758.655 258.666C758.591 258.319 758.591 257.962 758.655 257.614C759.058 256.431 759.528 255.313 759.997 254.163C761.339 250.711 762.748 247.062 764.09 243.775C764.292 243.282 764.325 242.723 764.526 242.197C764.646 241.701 764.838 241.225 765.097 240.783C765.365 240.356 765.667 239.928 766.237 240.783C766.664 241.198 767.197 241.494 767.781 241.638C768.351 241.901 768.552 242.131 768.284 242.788C767.546 244.629 766.942 246.47 766.271 248.278C765.835 249.462 765.365 250.579 764.929 251.73C764.09 254.393 762.983 257.22 761.943 260.211V260.705C761.943 261.296 762.144 261.592 762.648 261.724C763.151 261.855 763.419 261.526 763.554 261.066C763.688 260.606 764.09 259.192 764.09 258.338C765.03 255.576 766.003 252.782 766.975 250.021C767.344 248.903 767.445 248.903 768.485 249.528C768.772 249.699 769.092 249.811 769.424 249.856C770.263 249.856 770.297 250.185 770.095 250.777L768.72 255.116C767.881 257.483 767.043 259.817 766.17 262.184C765.902 263.006 766.17 263.433 767.177 263.762C768.183 264.091 768.284 263.762 768.552 263.071C768.821 262.381 769.19 260.869 769.559 259.784C769.928 258.699 770.129 258.568 771.203 259.094C772.276 259.62 772.544 259.718 772.142 261.066C771.862 262.005 771.526 262.927 771.135 263.828C770.867 264.485 770.934 264.978 771.639 265.307L775.631 267.115C775.92 267.163 776.215 267.163 776.503 267.115C776.472 266.802 776.404 266.493 776.302 266.194C775.933 265.537 775.463 264.912 775.094 264.222C775.043 263.973 775.043 263.715 775.094 263.466C775.359 263.545 775.617 263.644 775.866 263.762C775.866 263.762 776.033 263.959 776.101 264.058C776.872 265.241 777.644 266.392 778.382 267.608C778.517 267.891 778.619 268.189 778.684 268.496C778.315 268.496 777.946 268.824 777.644 268.759C775.497 268.364 773.383 267.904 771.303 267.444C770.464 267.246 770.464 267.214 770.968 266.523C770.967 266.375 770.907 266.233 770.8 266.129L766.17 264.386C765.365 264.091 764.594 263.729 763.822 263.367C760.803 261.987 757.817 260.474 754.764 259.192C752.617 258.305 750.369 257.68 748.155 256.924C747.316 256.727 747.316 256.497 747.316 255.675C748.188 253.505 749.128 251.368 750.034 249.1L750.403 249.297ZM767.445 250.875C767.21 251.697 767.009 252.322 766.808 252.979L764.292 261.198C764.292 261.625 763.889 262.184 764.526 262.414C765.164 262.644 765.332 261.954 765.566 261.526C766.439 259.16 767.445 256.924 768.049 254.59C768.404 253.595 768.673 252.572 768.854 251.533C768.854 251.171 768.485 250.777 768.284 250.382L767.445 250.875ZM754.831 256.924C754.831 256.924 754.831 256.562 754.831 256.365C755.334 254.623 755.837 252.881 756.408 251.138C756.575 250.579 756.743 250.054 756.072 249.725C755.401 249.396 755.066 249.725 754.697 250.514C754.328 251.303 754.026 252.651 753.69 253.637C753.355 254.623 753.053 255.379 752.785 256.267C752.726 256.395 752.699 256.535 752.704 256.675C752.71 256.816 752.748 256.953 752.816 257.077C752.884 257.201 752.98 257.308 753.097 257.389C753.213 257.471 753.348 257.526 753.489 257.549C754.194 257.877 754.563 257.582 754.831 256.924ZM770.8 262.94C770.8 262.381 771.135 261.559 771.27 260.737C771.236 260.54 771.035 260.211 770.8 260.211C770.565 260.211 770.163 260.409 770.095 260.606C769.659 261.691 769.29 262.808 768.921 263.893C768.921 264.058 768.921 264.419 768.921 264.419C769.029 264.477 769.15 264.507 769.274 264.507C769.397 264.507 769.518 264.477 769.626 264.419C770.064 263.964 770.457 263.468 770.8 262.94Z" fill="#0D73AE"/>
</g>
<path fill-rule="evenodd" clip-rule="evenodd" d="M802.968 401.011C802.968 401.536 803.053 402.06 803.087 402.585C803.172 404.742 803.257 406.919 803.307 409.096C803.307 410.903 803.409 412.71 803.409 414.518C803.409 416.325 803.409 418.405 803.409 420.348C803.409 421.184 803.324 422.019 803.274 422.855C802.96 426.216 802.994 429.608 803.375 432.961C803.519 434.081 803.604 435.21 803.629 436.342C803.72 438.204 803.895 440.059 804.155 441.9C804.155 442.386 804.155 442.406 803.765 442.406C803.653 442.425 803.538 442.425 803.426 442.406C802.584 442.123 801.71 441.986 800.833 441.998C800.585 441.978 800.336 441.978 800.088 441.998C799.749 441.998 799.41 441.998 799.088 441.998C798.766 441.998 798.715 441.998 798.817 441.57C798.841 441.39 798.841 441.206 798.817 441.026C798.817 440.404 798.698 439.801 798.664 439.082C798.63 438.363 798.664 438.15 798.664 437.664C798.664 436.478 798.664 435.293 798.664 434.107C798.579 431.561 798.478 429.016 798.41 426.45C798.41 424.779 798.41 423.108 798.41 421.417C798.41 419.124 798.41 416.83 798.41 414.537C798.41 411.156 798.41 407.774 798.41 404.412C798.41 403.246 798.41 402.099 798.325 400.953C798.325 400.525 798.325 400.447 798.732 400.428H800.172C800.647 400.428 801.121 400.428 801.596 400.428H802.596C802.699 400.475 802.789 400.555 802.855 400.658C802.921 400.761 802.96 400.883 802.968 401.011ZM801.579 427.675C801.765 427.441 801.952 427.247 802.24 427.422C802.361 427.514 802.449 427.654 802.487 427.815C802.524 427.976 802.509 428.147 802.443 428.296C802.404 428.453 802.347 428.604 802.274 428.743C802.274 428.743 802.155 428.743 802.087 428.879C802.079 428.802 802.079 428.724 802.087 428.646C802.087 428.452 802.206 428.277 802.223 428.083C802.24 427.888 802.121 427.869 802.07 427.772L801.85 427.986C801.85 427.986 801.664 428.258 801.613 428.258C801.463 428.221 801.327 428.133 801.223 428.005C801.223 428.005 801.223 427.733 801.104 427.597C801.104 427.092 801.003 427.053 800.562 427.014H799.427C798.529 427.014 798.613 426.819 798.664 427.986C798.664 428.277 798.8 428.355 799.037 428.335H799.715C799.715 428.335 799.816 428.433 799.884 428.491C799.952 428.549 799.783 428.491 799.732 428.491L799.071 428.607C799.018 428.606 798.965 428.619 798.917 428.644C798.869 428.669 798.826 428.706 798.792 428.753C798.758 428.8 798.733 428.854 798.72 428.913C798.706 428.972 798.705 429.034 798.715 429.093V429.54C798.715 429.832 798.817 429.909 799.071 429.851H799.816C799.816 429.851 799.918 429.851 799.969 429.851C800.02 429.851 799.969 429.968 799.85 429.987L799.139 430.123C799.083 430.128 799.029 430.146 798.979 430.175C798.929 430.204 798.885 430.244 798.849 430.293C798.812 430.341 798.785 430.398 798.768 430.459C798.751 430.52 798.744 430.584 798.749 430.648C798.757 430.816 798.757 430.985 798.749 431.153C798.749 431.386 798.867 431.523 799.088 431.503H799.613C799.726 431.492 799.839 431.492 799.952 431.503C799.849 431.593 799.735 431.665 799.613 431.717C799.427 431.717 799.24 431.717 799.054 431.814C798.867 431.911 798.715 432.242 798.817 432.65C798.918 433.058 799.088 432.902 799.274 432.863C799.502 432.793 799.734 432.741 799.969 432.708C800.054 432.708 800.138 432.708 800.24 432.708C800.176 432.772 800.108 432.831 800.037 432.883L799.156 433.136C798.85 433.136 798.783 433.349 798.817 433.738C798.85 434.127 799.037 434.068 799.274 434.049C800.05 433.947 800.836 434 801.596 434.204C801.763 434.251 801.927 434.309 802.087 434.379C801.907 434.399 801.725 434.399 801.545 434.379C800.986 434.379 800.443 434.243 799.85 434.263C798.63 434.263 798.8 434.418 798.817 435.662C798.817 435.895 798.935 435.992 799.139 435.953H799.749C799.749 435.953 799.867 435.953 799.935 436.07C800.003 436.187 799.833 436.206 799.766 436.226L799.257 436.362C798.901 436.459 798.834 436.614 798.85 437.081C798.867 437.547 799.088 437.508 799.342 437.489C799.42 437.469 799.501 437.469 799.579 437.489C799.579 437.489 799.681 437.489 799.732 437.489C799.783 437.489 799.732 437.605 799.613 437.625C799.454 437.648 799.295 437.68 799.139 437.722C798.901 437.722 798.85 438.014 798.935 438.402C799.02 438.791 799.122 438.635 799.291 438.616H800.105C800.105 438.616 800.189 438.713 800.206 438.752C800.223 438.791 800.206 438.849 800.206 438.869L799.494 439.005C799.156 439.005 799.037 439.218 799.071 439.529C799.105 439.84 799.359 439.821 799.579 439.821H801.274H801.392C801.392 439.821 801.392 439.937 801.274 439.937C800.822 439.937 800.364 439.976 799.901 440.054C799.122 440.054 799.122 440.054 799.172 441.006C799.172 441.492 799.172 441.512 799.664 441.512C800.155 441.512 800.715 441.512 801.223 441.512C801.731 441.512 802.714 441.725 803.46 441.842C803.901 441.842 803.934 441.842 803.884 441.376C803.799 440.443 803.663 439.529 803.595 438.597C803.392 436.148 803.206 433.68 803.002 431.231C802.825 429.177 802.791 427.111 802.901 425.051C802.985 423.535 803.087 422.039 803.155 420.523C803.307 416.772 803.155 413.041 803.155 409.29C803.155 407.347 803.002 405.248 802.935 403.226C802.935 402.624 802.935 402.022 802.833 401.419C802.731 400.817 802.647 400.797 802.206 400.778C802.048 400.759 801.889 400.759 801.731 400.778C801.308 400.778 800.884 400.778 800.443 400.778C800.003 400.778 799.461 400.778 798.969 400.778C798.853 400.772 798.739 400.813 798.647 400.894C798.603 400.994 798.58 401.103 798.581 401.215C798.581 401.326 798.604 401.436 798.649 401.535C798.694 401.634 798.759 401.719 798.838 401.783C798.917 401.848 799.009 401.889 799.105 401.905C799.85 401.905 800.596 401.905 801.342 401.905C801.545 401.905 801.765 401.711 801.952 401.905L801.342 402.138C801.274 402.148 801.206 402.148 801.138 402.138C800.443 402.138 799.749 402.138 799.054 402.138C798.783 402.138 798.664 402.235 798.664 402.546C798.664 402.857 798.664 403.343 798.664 403.751C798.664 404.159 798.766 404.101 798.986 404.062H799.647C799.647 404.062 799.816 404.062 799.901 404.159C799.986 404.256 799.766 404.315 799.698 404.334L798.986 404.47C798.942 404.468 798.899 404.475 798.858 404.493C798.817 404.51 798.779 404.537 798.747 404.571C798.716 404.606 798.69 404.647 798.673 404.694C798.656 404.74 798.647 404.789 798.647 404.84C798.647 405.52 798.647 406.2 798.647 406.783C798.647 407.055 798.749 407.133 798.969 407.113H800.172C800.245 407.129 800.315 407.162 800.376 407.21C800.316 407.275 800.247 407.328 800.172 407.366L799.037 407.502C798.766 407.502 798.681 407.677 798.681 407.968C798.681 408.26 798.681 408.726 798.681 409.115C798.681 409.504 798.681 409.543 799.037 409.543C799.596 409.543 800.172 409.543 800.732 409.543C800.884 409.523 801.037 409.523 801.189 409.543C801.042 409.648 800.882 409.726 800.715 409.776C800.223 409.776 799.732 409.776 799.24 409.892C799.071 409.892 798.817 409.892 798.749 410.087C798.478 410.534 798.749 410.981 799.172 411.02C799.44 411.038 799.706 411.077 799.969 411.136C799.969 411.136 800.071 411.253 800.121 411.311C800.054 411.319 799.986 411.319 799.918 411.311C799.664 411.311 799.41 411.311 799.156 411.311C798.901 411.311 798.681 411.447 798.681 411.894C798.681 412.341 798.681 412.535 798.681 412.866C798.681 413.196 798.834 413.274 799.088 413.216C799.228 413.196 799.371 413.196 799.511 413.216C799.613 413.216 799.698 413.313 799.783 413.352C799.72 413.421 799.645 413.475 799.562 413.507C799.391 413.565 799.215 413.604 799.037 413.624C798.98 413.621 798.924 413.634 798.872 413.661C798.821 413.689 798.776 413.73 798.741 413.781C798.706 413.832 798.683 413.892 798.672 413.956C798.662 414.02 798.665 414.086 798.681 414.148V414.809C798.681 415.373 798.681 415.392 799.24 415.276C799.398 415.266 799.557 415.266 799.715 415.276C799.579 415.276 799.461 415.47 799.325 415.528C798.8 415.761 798.698 415.936 798.749 416.558C798.8 417.18 798.749 416.986 799.156 416.928H799.816H799.918C799.918 416.928 799.918 417.025 799.833 417.044H799.596C798.732 417.297 798.732 417.297 798.749 418.346C798.749 418.968 798.749 418.988 799.393 418.968C800.223 418.968 801.087 418.968 801.867 418.968C802.035 418.993 802.199 419.038 802.358 419.104C802.21 419.168 802.057 419.213 801.901 419.24H800.41L799.223 419.357C798.8 419.357 798.766 419.473 798.766 419.94C798.766 420.406 798.766 420.523 798.766 420.814C798.766 421.106 798.766 421.184 799.071 421.145H799.359C799.562 421.145 799.799 421.028 799.952 421.32C799.77 421.396 799.583 421.455 799.393 421.495C798.817 421.495 798.681 421.767 798.732 422.427C798.732 422.68 798.85 422.777 799.088 422.719L799.833 422.563C799.833 422.563 799.952 422.563 800.02 422.563C800.088 422.563 800.02 422.68 799.884 422.699L799.156 422.952C798.8 423.088 798.698 423.263 798.749 423.632C798.8 424.002 799.003 424.002 799.223 424.021L799.935 424.118C799.993 424.151 800.045 424.197 800.088 424.254C800.088 424.254 799.986 424.254 799.935 424.254H799.172C798.817 424.254 798.766 424.254 798.766 424.721C798.766 425.187 798.766 425.401 798.766 425.751C798.766 426.1 798.867 426.198 799.122 426.217L800.698 426.372C801.206 426.372 801.206 426.372 801.359 425.867C801.359 425.712 801.511 425.556 801.579 425.401C801.579 425.556 801.579 425.731 801.579 425.887C801.587 425.925 801.587 425.965 801.579 426.003C801.579 426.236 801.579 426.489 801.799 426.567C801.806 426.618 801.806 426.671 801.799 426.722C801.477 426.917 801.494 427.111 801.799 427.364L801.579 427.675Z" fill="#0D73AE"/>
<g clip-path="url(#clip1_231_2477)">
<path fill-rule="evenodd" clip-rule="evenodd" d="M225.414 335.282C221.753 339.294 216.935 342.037 211.644 343.12C209.401 343.251 207.159 342.851 205.096 341.952C203.555 341.465 202.641 338.69 202.978 336.499C203.367 334.577 204.285 332.805 205.626 331.388C205.981 330.94 206.454 330.602 206.99 330.413C207.527 330.223 208.105 330.19 208.659 330.316H209.188C211.114 330.316 212.029 330.316 212.511 329.051C212.808 328.28 212.86 327.435 212.662 326.633C212.464 325.831 212.024 325.111 211.403 324.572C210.221 323.918 209.292 322.88 208.767 321.624C208.243 320.369 208.154 318.972 208.514 317.659C208.996 313.959 209.477 310.308 210.007 306.657C210.472 304.031 211.618 301.578 213.329 299.549C213.849 298.843 214.527 298.273 215.308 297.884C216.089 297.496 216.95 297.301 217.82 297.315C218.69 297.33 219.544 297.553 220.312 297.967C221.08 298.38 221.739 298.973 222.236 299.695C225.58 304.407 228.028 309.706 229.458 315.322C230.18 319.232 230.18 323.243 229.458 327.152C228.924 330.203 227.518 333.029 225.414 335.282ZM224.884 334.503L225.895 333.189C227.268 331.076 228.095 328.649 228.302 326.13C229.21 322.254 229.078 318.203 227.917 314.397C227.051 311.914 226.28 309.626 225.269 307.484C224.07 305.002 222.669 302.624 221.081 300.376C220.704 299.794 220.19 299.315 219.585 298.984C218.98 298.653 218.302 298.479 217.614 298.479C216.926 298.479 216.248 298.653 215.643 298.984C215.038 299.315 214.524 299.794 214.147 300.376C213.239 301.577 212.479 302.885 211.885 304.271C210.504 308.933 209.775 313.767 209.718 318.633C209.594 319.594 209.757 320.571 210.186 321.439C210.615 322.306 211.29 323.024 212.125 323.501C212.884 324.028 213.465 324.776 213.792 325.646C214.119 326.516 214.176 327.466 213.955 328.369C213.902 328.829 213.758 329.274 213.532 329.677C213.305 330.079 213.001 330.432 212.637 330.714C212.273 330.995 211.857 331.2 211.414 331.316C210.97 331.431 210.508 331.456 210.055 331.388C208.911 331.129 207.712 331.302 206.685 331.874C205.65 332.772 204.891 333.95 204.498 335.27C204.106 336.591 204.096 337.997 204.47 339.323C204.47 339.664 204.759 340.15 205.048 340.248C206.695 341.227 208.537 341.826 210.44 342C212.693 341.973 214.901 341.353 216.844 340.199C219.588 338.447 222.236 336.256 224.884 334.503Z" fill="#0D73AE"/>
<path fill-rule="evenodd" clip-rule="evenodd" d="M215.688 301.253C217.133 299.646 218.24 299.695 219.444 301.253C220.647 302.811 221.321 303.687 219.732 305.78C219.179 306.62 218.863 307.596 218.818 308.604C218.818 310.697 218.818 312.839 218.481 314.981C218.391 315.496 218.211 315.99 217.951 316.442C217.477 316.238 217.038 315.959 216.651 315.614C215.399 314.154 214.147 312.645 213.04 311.087C212.745 310.552 212.595 309.947 212.607 309.334C212.748 306.375 213.829 303.542 215.688 301.253ZM216.603 313.57L217.036 313.91C217.21 313.606 217.339 313.278 217.421 312.937C217.421 311.038 217.807 309.091 218.144 307.241C218.372 306.334 218.729 305.465 219.203 304.661C219.404 304.141 219.424 303.568 219.257 303.036C219.09 302.505 218.748 302.047 218.288 301.74C217.229 301.058 216.651 301.74 216.218 302.616C215.63 303.497 215.115 304.425 214.677 305.391C213.185 309.042 213.329 309.626 215.833 312.596L216.603 313.57Z" fill="#0D73AE"/>
<path fill-rule="evenodd" clip-rule="evenodd" d="M215.736 316.783C216.41 317.708 217.325 318.779 218.144 319.947C218.445 320.268 218.632 320.682 218.676 321.122C218.72 321.563 218.617 322.006 218.384 322.381C218.112 322.773 217.712 323.057 217.255 323.181C216.797 323.306 216.311 323.264 215.881 323.063C214.533 322.576 213.233 321.992 211.933 321.408C211.553 321.249 211.238 320.966 211.037 320.603C210.836 320.241 210.762 319.822 210.825 319.412C211.093 318.081 211.479 316.777 211.981 315.517C211.981 314.787 212.944 314.787 213.522 315.176C214.099 315.566 214.822 315.858 215.736 316.783ZM215.255 317.805C214.82 317.401 214.334 317.058 213.81 316.783C213.81 316.783 212.944 316.491 212.848 316.783C212.272 317.48 211.817 318.27 211.499 319.119C211.259 319.947 211.981 320.483 212.703 320.775L216.025 321.651C216.362 321.651 216.94 321.651 217.036 321.651C217.13 321.462 217.178 321.254 217.178 321.042C217.178 320.831 217.13 320.623 217.036 320.434C216.555 319.412 215.881 318.487 215.255 317.562V317.805Z" fill="#0D73AE"/>
<path fill-rule="evenodd" clip-rule="evenodd" d="M223.777 314.495C223.506 314.752 223.185 314.948 222.833 315.069C222.482 315.19 222.109 315.233 221.739 315.196C221.37 315.16 221.012 315.043 220.691 314.855C220.37 314.667 220.092 314.411 219.877 314.105C219.556 313.578 219.362 312.983 219.311 312.366C219.26 311.75 219.353 311.13 219.582 310.556C219.812 309.983 220.172 309.472 220.633 309.065C221.094 308.658 221.643 308.367 222.236 308.214C222.525 308.151 222.824 308.15 223.114 308.211C223.403 308.272 223.677 308.393 223.918 308.567C224.158 308.742 224.36 308.965 224.509 309.223C224.659 309.481 224.754 309.767 224.788 310.064C224.938 310.833 224.926 311.625 224.752 312.389C224.577 313.153 224.245 313.87 223.777 314.495ZM223.151 313.521C224.017 312.547 224.162 310.356 223.151 309.724C222.809 309.504 222.404 309.408 222.001 309.452C221.599 309.496 221.223 309.678 220.936 309.967C220.51 310.497 220.277 311.159 220.277 311.841C220.277 312.524 220.51 313.186 220.936 313.716C221.085 313.868 221.266 313.986 221.465 314.06C221.664 314.134 221.877 314.163 222.089 314.144C222.3 314.126 222.505 314.06 222.689 313.952C222.872 313.845 223.03 313.697 223.151 313.521Z" fill="#0D73AE"/>
<path fill-rule="evenodd" clip-rule="evenodd" d="M222.477 329.538C222.06 328.89 221.788 328.158 221.679 327.393C221.571 326.627 221.63 325.847 221.851 325.107C222.005 324.698 222.284 324.35 222.648 324.113C223.012 323.877 223.441 323.765 223.873 323.793C224.34 323.734 224.814 323.83 225.222 324.067C225.63 324.304 225.951 324.669 226.136 325.107C226.41 325.831 226.51 326.611 226.426 327.382C226.342 328.152 226.078 328.891 225.654 329.538C225.22 329.938 224.653 330.16 224.066 330.16C223.478 330.16 222.911 329.938 222.477 329.538ZM223.632 325.789C223.632 325.789 223.199 325.789 223.199 326.13C223.08 326.822 223.08 327.531 223.199 328.223C223.199 328.223 224.21 328.856 224.354 328.71C224.828 328.276 225.206 327.745 225.462 327.152C225.558 326.851 225.558 326.528 225.462 326.227C225.25 325.805 225.008 325.398 224.74 325.01L223.632 325.789Z" fill="#0D73AE"/>
<path fill-rule="evenodd" clip-rule="evenodd" d="M225.366 321.213C224.904 321.726 224.275 322.053 223.593 322.134C222.912 322.214 222.224 322.043 221.658 321.651C221.035 320.998 220.686 320.125 220.686 319.217C220.686 318.309 221.035 317.436 221.658 316.783C222.146 316.201 222.83 315.824 223.578 315.725C224.326 315.626 225.083 315.812 225.703 316.247C226.267 316.969 226.546 317.878 226.483 318.796C226.421 319.714 226.022 320.576 225.366 321.213ZM222.236 317.513C222.122 318.418 222.122 319.334 222.236 320.239C222.236 320.531 223.055 320.921 223.536 320.921C224.017 320.921 224.884 320.19 225.173 319.412C225.462 318.633 225.173 319.412 225.173 319.412C225.173 319.412 225.703 317.756 224.74 317.464C223.908 317.341 223.062 317.358 222.236 317.513Z" fill="#0D73AE"/>
<path fill-rule="evenodd" clip-rule="evenodd" d="M220.406 336.256C219.893 336.767 219.201 337.054 218.481 337.054C217.76 337.054 217.068 336.767 216.555 336.256C216.029 335.81 215.695 335.175 215.623 334.485C215.551 333.794 215.747 333.103 216.17 332.556C216.699 331.865 217.442 331.374 218.281 331.162C219.119 330.951 220.003 331.03 220.792 331.388C221.226 332.142 221.421 333.013 221.352 333.883C221.284 334.753 220.953 335.581 220.406 336.256ZM217.421 332.799C216.603 333.724 216.555 334.406 217.421 335.087C217.561 335.236 217.729 335.355 217.915 335.436C218.101 335.517 218.302 335.558 218.505 335.558C218.707 335.558 218.908 335.517 219.094 335.436C219.281 335.355 219.449 335.236 219.588 335.087C220.31 334.309 220.503 332.653 219.877 332.118C219.458 331.899 218.972 331.847 218.517 331.973C218.062 332.1 217.671 332.395 217.421 332.799Z" fill="#0D73AE"/>
<path fill-rule="evenodd" clip-rule="evenodd" d="M212.077 337.522C211.738 337.973 211.269 338.308 210.736 338.482C210.202 338.656 209.628 338.661 209.092 338.495C208.625 338.218 208.251 337.805 208.019 337.31C207.787 336.816 207.708 336.261 207.792 335.72C207.753 335.511 207.753 335.297 207.792 335.087C207.792 335.087 208.177 335.38 208.226 335.574C208.253 335.817 208.253 336.062 208.226 336.305C208.25 336.506 208.319 336.7 208.428 336.871C208.536 337.043 208.681 337.187 208.852 337.295C209.022 337.402 209.215 337.469 209.415 337.492C209.615 337.514 209.817 337.491 210.007 337.424C210.431 337.321 210.805 337.068 211.061 336.711C211.317 336.354 211.438 335.917 211.403 335.477C211.403 335.185 211.066 334.795 210.922 334.795C210.777 334.795 210.296 334.795 209.959 335.136L209.092 335.574C209.092 335.234 209.092 334.747 209.092 334.552C209.092 334.357 210.2 333.578 210.729 333.676C211.119 333.697 211.497 333.821 211.827 334.034C212.156 334.247 212.424 334.543 212.607 334.893C212.811 335.33 212.87 335.822 212.774 336.296C212.679 336.77 212.434 337.2 212.077 337.522Z" fill="#0D73AE"/>
</g>
<g clip-path="url(#clip2_231_2477)">
<path fill-rule="evenodd" clip-rule="evenodd" d="M816.283 148.237C816.409 149.718 816.338 151.21 816.071 152.67C815.821 154.265 815.662 155.873 815.596 157.487C815.596 157.979 815.596 158.417 816.098 158.691C816.248 158.767 816.363 158.902 816.418 159.067C816.472 159.231 816.462 159.41 816.389 159.566C815.979 160.696 815.979 161.94 816.389 163.069C816.675 164.5 816.817 165.959 816.811 167.42C816.811 168.378 816.996 169.363 817.102 170.321C817.171 170.819 817.197 171.323 817.181 171.826C817.119 172.335 817.119 172.85 817.181 173.359C817.58 175.245 817.758 177.175 817.709 179.105V181.295C817.709 182.362 817.709 183.456 817.709 184.551C817.709 185.646 817.709 186.248 817.709 187.123C817.709 188.847 817.709 190.599 817.709 192.323V197.03C817.709 197.331 817.709 197.632 817.709 197.933C817.709 198.234 817.709 198.097 817.709 198.206C817.709 198.316 817.551 198.069 817.524 197.987C817.375 197.532 817.26 197.066 817.181 196.592C816.89 194.649 816.653 192.733 816.389 190.818C816.256 189.696 816.071 188.601 815.939 187.479C815.807 186.357 815.649 184.743 815.49 183.237C815.305 181.322 815.041 179.406 814.988 177.491C814.936 175.575 814.803 174.097 814.539 172.401C814.275 170.704 814.143 169.281 813.905 167.694C813.667 166.107 813.483 165.231 813.271 164C813.241 163.712 813.15 163.435 813.004 163.189C812.857 162.943 812.66 162.734 812.426 162.577C811.897 162.248 811.897 161.893 812.347 161.373C812.442 161.228 812.488 161.055 812.479 160.88C812.425 160.395 812.498 159.903 812.69 159.457C812.756 159.29 812.756 159.104 812.69 158.937C811.626 156.925 810.717 154.83 809.969 152.67C809.705 151.877 809.493 151.138 809.256 150.426C809.256 150.426 809.256 150.208 809.256 150.098C809.256 149.989 809.467 150.098 809.546 150.098C809.625 150.098 809.995 150.262 810.075 149.824C810.154 149.387 810.075 149.633 810.075 149.551C810.075 149.469 810.471 149.222 810.709 149.469C810.946 149.715 811.158 149.879 811.422 149.469C811.443 149.312 811.497 149.163 811.58 149.031L811.897 148.702C811.999 148.81 812.088 148.929 812.162 149.058C812.261 149.281 812.349 149.51 812.426 149.742C812.426 149.742 812.426 149.907 812.558 149.907C812.598 149.895 812.636 149.874 812.668 149.845C812.7 149.817 812.725 149.782 812.743 149.742C812.928 149.387 813.06 149.031 813.245 148.675C813.43 148.319 813.483 148.456 813.588 148.319C813.674 148.457 813.745 148.604 813.8 148.757V148.949C813.8 148.949 813.958 148.949 813.984 148.785C814.011 148.62 814.275 148.292 814.539 148.073C814.803 147.854 814.539 147.827 814.671 147.854C814.803 147.881 814.883 148.046 814.962 148.128C815.041 148.21 814.962 148.128 814.962 148.128L815.12 148.62C815.242 148.49 815.357 148.353 815.464 148.21C815.622 147.936 815.754 147.608 815.913 147.334C816.071 147.061 816.098 147.197 816.124 147.197C816.166 147.224 816.202 147.26 816.229 147.303C816.257 147.345 816.275 147.393 816.283 147.444C816.296 147.708 816.296 147.973 816.283 148.237ZM815.913 183.812C816.045 185.044 816.204 186.302 816.362 187.534C816.573 189.395 816.838 191.283 817.075 193.144L817.524 196.455C817.519 196.519 817.519 196.583 817.524 196.646C817.524 196.646 817.524 196.482 817.524 196.428C817.524 195.962 817.524 195.47 817.524 195.032C817.524 193.746 817.524 192.487 817.524 191.201C817.524 189.34 817.524 187.479 817.524 185.728C817.539 185.445 817.539 185.162 817.524 184.879C817.524 183.757 817.524 182.635 817.524 181.513C817.524 181.13 817.524 180.775 817.524 180.391C817.538 178.661 817.424 176.932 817.181 175.219C817.181 174.617 816.97 174.043 816.89 173.468C816.811 172.893 816.758 172.647 816.732 172.237C816.706 171.826 816.732 170.759 816.732 169.993C816.732 169.226 816.547 169.09 816.521 168.57C816.419 166.32 816.172 164.08 815.781 161.865C815.61 161.141 815.685 160.378 815.992 159.703C816.177 159.265 815.992 159.047 815.596 158.937C814.941 158.862 814.279 158.956 813.667 159.211C813.493 159.242 813.328 159.314 813.184 159.42C813.04 159.526 812.921 159.664 812.835 159.824C812.749 159.984 812.698 160.162 812.687 160.344C812.676 160.527 812.704 160.71 812.769 160.88C812.819 161.03 812.823 161.191 812.78 161.343C812.738 161.495 812.651 161.63 812.531 161.728C812.32 161.92 812.399 162.139 812.531 162.303C812.626 162.425 812.743 162.527 812.875 162.604C813.403 162.823 813.509 163.316 813.615 163.808C813.674 164.042 813.718 164.28 813.747 164.52C813.984 165.806 814.222 167.092 814.407 168.378C814.592 169.664 814.645 170.239 814.751 171.115C814.936 172.647 815.12 174.18 815.279 175.712C815.279 176.369 815.279 177.026 815.279 177.682L815.913 183.812ZM810.392 150.372C810.392 150.919 810.392 150.919 810.022 150.892C809.652 150.864 809.837 150.892 809.837 151.056C809.879 151.319 809.95 151.576 810.048 151.822C810.788 153.765 811.554 155.708 812.32 157.651C812.486 157.964 812.671 158.266 812.875 158.554C812.943 158.687 813.056 158.789 813.193 158.84C813.33 158.89 813.481 158.886 813.615 158.828C813.978 158.717 814.349 158.634 814.724 158.581C815.279 158.581 815.253 158.581 815.279 157.87C815.279 156.392 815.49 154.914 815.596 153.437C815.596 152.397 815.887 151.33 815.966 150.29C815.966 149.66 815.966 149.058 815.966 148.429C815.976 148.365 815.976 148.301 815.966 148.237C815.966 148.237 815.807 148.237 815.781 148.401C815.7 148.584 815.603 148.758 815.49 148.921C815.443 148.995 815.38 149.058 815.307 149.105C815.234 149.152 815.153 149.183 815.068 149.195C815.068 149.195 814.83 148.976 814.724 148.867C814.618 148.757 814.724 148.867 814.724 148.702C814.707 148.665 814.681 148.634 814.649 148.61C814.616 148.586 814.579 148.571 814.539 148.566C814.539 148.566 814.539 148.566 814.381 148.566C814.222 148.566 814.275 149.14 814.143 149.387C814.011 149.633 813.8 149.934 813.562 149.387C813.324 148.839 813.324 149.222 813.245 149.387C813.146 149.649 813.032 149.905 812.901 150.153C812.69 150.536 812.479 150.536 812.267 150.153C812.162 149.934 812.082 149.742 811.897 149.523C811.712 149.304 811.739 149.359 811.66 149.551C811.58 149.742 811.528 149.934 811.448 150.125C811.369 150.317 811.158 150.563 810.867 150.125C810.817 150.05 810.755 149.985 810.682 149.934C810.55 149.797 810.418 149.934 810.392 149.934C810.347 150.076 810.347 150.229 810.392 150.372Z" fill="#0D73AE"/>
</g>
<path fill-rule="evenodd" clip-rule="evenodd" d="M137.933 39.8675L136.85 40.3526C134.967 41.6622 132.989 42.8749 131.153 44.3785C129.316 45.8822 128.987 45.9792 127.762 43.7965C127.432 43.2026 127.179 42.5666 127.009 41.9048C126.067 37.7333 125.173 33.8043 124.278 29.8268C124.278 29.6813 124.278 29.2448 124.278 29.2448C124.278 29.2448 124.843 29.2448 124.89 29.5358C125.497 30.8892 126.017 32.2828 126.444 33.7073C127.056 36.1326 127.527 38.5579 128.045 41.0316C128.024 41.2737 128.024 41.5172 128.045 41.7592C128.798 44.039 129.081 44.0875 130.917 42.6808C132.754 41.2742 133.648 40.8376 135.014 39.916C136.379 38.9944 137.133 38.3153 135.814 36.2781C135.425 35.7251 135.078 35.1412 134.778 34.5319C134.778 34.5319 134.778 33.9983 134.778 33.7073C134.778 33.4162 135.438 33.7073 135.579 33.7073C136.285 34.6774 136.991 35.599 137.604 36.6176C138.828 38.6549 140.005 40.7891 141.276 42.8264L145.232 49.0836C145.232 49.0836 145.514 49.4231 145.514 49.5687C145.539 49.9239 145.539 50.2805 145.514 50.6358C145.185 50.6358 144.667 50.6358 144.478 50.2477C143.988 49.5107 143.532 48.7499 143.113 47.968C141.7 45.6397 140.288 43.1174 138.828 40.9831C138.556 40.5894 138.257 40.2165 137.933 39.8675Z" fill="#0D73AE"/>
<g clip-path="url(#clip3_231_2477)">
<path fill-rule="evenodd" clip-rule="evenodd" d="M239.021 107.712C238.638 107.424 238.638 107.424 238.229 107.712C237.352 108.418 236.637 109.312 236.132 110.331C235.723 111.012 235.366 111.72 234.957 112.375C234.773 112.746 234.518 113.074 234.206 113.34C233.893 113.606 233.531 113.803 233.142 113.92C232.981 113.985 232.805 113.994 232.639 113.947C232.473 113.9 232.326 113.798 232.221 113.658L230.355 111.327C230.177 111.091 230.023 110.855 229.844 110.646C228.617 109.205 227.467 107.712 226.163 106.35C224.904 104.858 223.537 103.466 222.073 102.185C221.153 101.451 220.31 100.692 219.517 99.9843C219.098 99.6888 218.663 99.4177 218.214 99.1722C216.935 98.4126 215.657 97.6267 214.405 96.9194C213.817 96.6313 213.178 96.4479 212.564 96.2122L211.082 95.6359C210.883 95.5081 210.652 95.4403 210.417 95.4403C210.182 95.4403 209.952 95.5081 209.753 95.6359C209.487 95.7825 209.214 95.9137 208.935 96.0288L208.679 96.2122C208.741 96.3274 208.818 96.4332 208.909 96.5265L210.98 97.8101C212.795 98.9203 214.507 100.201 216.092 101.635C217.984 103.599 220.131 105.485 222.38 107.266C223.505 108.262 224.578 109.336 225.627 110.41C227.211 112.008 228.745 113.658 230.33 115.282L230.637 115.57C231.071 115.937 231.071 115.937 231.455 115.57L232.298 114.732C232.298 114.732 232.503 114.732 232.605 114.732C232.616 114.819 232.616 114.907 232.605 114.994C232.17 115.544 231.736 116.094 231.276 116.618C231.153 116.669 231.015 116.669 230.892 116.618C230.586 115.78 229.793 115.335 229.256 114.706C228.451 113.786 227.598 112.912 226.7 112.086C225.013 110.462 223.326 108.838 221.588 107.293C219.85 105.747 217.779 103.966 215.887 102.316C214.151 100.692 212.258 99.2523 210.238 98.0196C209.599 97.6267 209.011 97.26 208.398 96.8408C207.784 96.4217 207.887 96.186 208.398 95.8716L209.369 95.2168C209.079 95.0123 208.806 94.7845 208.551 94.5357C208.168 94.0642 207.784 93.5927 207.35 93.0949C207.35 93.0949 207.35 93.0949 207.35 92.9116H207.529C207.646 93.0293 207.749 93.1612 207.835 93.3045C208.354 94.0845 209.154 94.6215 210.059 94.7976C210.212 94.7835 210.366 94.7835 210.519 94.7976C211.506 95.3755 212.563 95.816 213.664 96.1074C214.558 96.5003 215.427 96.9718 216.22 97.4433C217.012 97.9148 217.6 98.334 218.341 98.7007C219.643 99.4062 220.847 100.287 221.92 101.32L222.687 102.132L223.658 103.075C224.221 103.652 224.809 104.228 225.371 104.857C225.933 105.485 226.726 106.35 227.365 107.109C228.004 107.869 228.95 109.048 229.742 110.017C230.534 110.986 231.25 111.824 231.991 112.636C232.733 113.449 233.423 113.632 234.164 112.636C234.6 112.014 235.001 111.367 235.366 110.698L236.107 109.414C237.428 107.446 239.413 106.046 241.679 105.485C242.551 105.225 243.469 105.171 244.363 105.328C244.517 105.328 244.67 105.328 244.772 105.328C245.026 105.23 245.274 105.117 245.514 104.988C245.443 104.772 245.339 104.568 245.207 104.385C244.031 103.101 242.651 101.766 241.603 100.508C240.555 99.2508 238.612 97.0504 237.053 95.2691C235.493 93.4879 234.497 92.6496 233.193 91.3661C232.733 90.9208 232.298 90.3969 231.838 89.9253C231.378 89.4538 230.534 88.5108 229.819 87.8559C229.434 87.5492 229.002 87.3102 228.541 87.1487C227.319 86.7909 226.054 86.6145 224.783 86.6248C224.433 86.6311 224.086 86.702 223.761 86.8343C222.779 87.0137 221.842 87.3874 221 87.9345C220.236 88.5604 219.518 89.2433 218.853 89.9777C217.973 91.0145 217.007 91.9699 215.964 92.833C215.023 93.542 213.908 93.9683 212.743 94.0642C211.89 94.1445 211.029 94.1004 210.187 93.9332C209.355 93.7091 208.567 93.3367 207.861 92.833C207.861 92.833 207.861 92.6758 207.861 92.5972C207.944 92.571 208.033 92.571 208.117 92.5972C208.117 92.5972 208.296 92.7282 208.398 92.7806C208.755 93.0437 209.141 93.2634 209.548 93.4355C210.36 93.7614 211.242 93.8608 212.104 93.7236C212.616 93.7236 213.127 93.7236 213.638 93.5403C214.935 93.2163 216.109 92.5052 217.012 91.497C217.753 90.685 218.546 89.9515 219.236 89.0609C219.984 87.991 221.052 87.2001 222.278 86.8081H222.534C224.111 86.1277 225.866 86.0078 227.518 86.4676C227.953 86.4676 228.413 86.4676 228.822 86.651C229.231 86.8343 229.231 86.651 229.359 86.3628C229.654 85.9146 229.988 85.4939 230.355 85.1054C230.571 84.9017 230.825 84.7455 231.102 84.6464C231.379 84.5473 231.673 84.5074 231.966 84.5292L235.698 84.8435C236.732 85.0006 237.783 85.0006 238.816 84.8435L239.839 84.6339C240.043 84.6339 240.376 84.6339 240.401 84.6339C240.427 84.6339 240.171 85.0007 239.967 85.0269C239.194 85.2002 238.406 85.2967 237.615 85.315C236.541 85.315 235.442 85.1316 234.369 85.0269C233.295 84.9221 232.605 84.8697 231.813 84.8697C231.284 84.9131 230.784 85.1344 230.391 85.4993C229.998 85.8641 229.734 86.3519 229.64 86.8867C229.64 87.0771 229.703 87.2619 229.819 87.4106L233.883 91.5494C235.34 92.9902 236.797 94.4309 238.203 95.8978C238.995 96.7099 239.66 97.6267 240.401 98.5173L242.625 100.98L245.693 104.359L246.485 105.118C246.485 105.118 246.485 105.38 246.69 105.485C246.575 105.549 246.455 105.601 246.332 105.642C246.178 105.642 245.948 105.642 245.897 105.642C245.565 106.14 245.105 106.009 244.67 106.088C243.883 106.179 243.105 106.337 242.344 106.559C242.114 106.559 241.909 106.9 241.679 107.057L238.561 109.205H238.382C238.353 109.12 238.353 109.028 238.382 108.943L239.634 107.738L240.58 107.345L240.861 107.214L240.58 107.345L239.711 107.895L239.404 108.105L238.944 108.367V107.79L239.021 107.712ZM239.2 107.162C239.191 107.119 239.191 107.074 239.2 107.031C239.191 107.074 239.191 107.119 239.2 107.162ZM240.171 106.9L240.913 106.716L243.136 106.009L244.057 105.721H243.136C242.604 105.693 242.073 105.785 241.579 105.988C241.084 106.192 240.639 106.503 240.273 106.9H240.171Z" fill="#0D73AE"/>
<path fill-rule="evenodd" clip-rule="evenodd" d="M250.805 103.756C251.367 103.756 252.109 103.992 252.85 104.044C253.591 104.097 255.074 104.044 256.173 104.044H256.531C256.889 104.044 256.914 103.809 256.684 103.573L255.585 102.578L253.693 100.796C252.824 99.9319 251.955 99.0674 251.137 98.1768C249.578 96.3431 248.07 94.4571 246.511 92.6234C245.309 91.1827 243.954 89.7944 242.804 88.3798L240.58 86.0223C240.504 85.9327 240.435 85.8362 240.376 85.7341C240.363 85.6473 240.363 85.559 240.376 85.4722C240.376 85.4722 240.58 85.4722 240.631 85.4722C241.091 85.8913 241.552 86.3366 241.986 86.8081C242.421 87.2796 243.188 88.2488 243.827 88.9561C245.565 90.8422 247.15 92.833 248.76 94.85C250.532 97.0889 252.463 99.1902 254.537 101.137L257.323 103.625C257.437 103.759 257.532 103.909 257.604 104.071C257.457 104.168 257.303 104.255 257.144 104.333C255.91 104.661 254.627 104.75 253.361 104.595C253.108 104.542 252.847 104.542 252.594 104.595L249.348 105.485C248.94 105.592 248.539 105.723 248.147 105.878C247.738 105.878 247.482 106.219 247.533 106.743C247.516 107.029 247.398 107.299 247.201 107.502C246.964 107.75 246.682 107.947 246.37 108.082C246.059 108.216 245.724 108.287 245.386 108.288C244.977 108.288 244.721 108.079 244.491 107.712C244.261 107.345 244.108 107.057 243.443 107.424C241.945 108.064 240.508 108.845 239.149 109.755L236.132 111.955L235.723 112.217H235.468C235.463 112.139 235.463 112.06 235.468 111.982C236.056 111.484 236.593 110.96 237.206 110.515C239.092 109.125 241.114 107.939 243.239 106.978C243.43 106.888 243.626 106.81 243.827 106.743C244.466 106.559 244.568 106.612 244.721 107.266C244.875 107.921 244.977 107.843 245.335 107.843C245.593 107.87 245.853 107.837 246.096 107.746C246.34 107.656 246.56 107.509 246.741 107.319C246.918 107.117 247.017 106.857 247.022 106.585C247.022 106.14 247.022 105.826 247.508 105.695H247.686C247.729 105.663 247.763 105.622 247.787 105.574C247.81 105.526 247.823 105.473 247.823 105.42C247.823 105.366 247.81 105.313 247.787 105.265C247.763 105.218 247.729 105.176 247.686 105.145C247.686 105.145 247.405 105.145 247.252 105.145C247.099 105.145 246.996 105.59 246.792 105.276C246.587 104.961 246.945 104.857 247.124 104.778C248.205 104.026 249.501 103.666 250.805 103.756ZM248.76 104.516H250.882H251.163C251.262 104.474 251.356 104.421 251.444 104.359C251.444 104.359 251.291 104.202 251.188 104.202C250.368 104.073 249.53 104.172 248.76 104.49V104.516ZM249.348 104.857L248.581 105.04L249.374 104.883C249.374 104.883 249.374 104.883 249.527 104.883L249.348 104.857Z" fill="#0D73AE"/>
<path fill-rule="evenodd" clip-rule="evenodd" d="M238.586 102.866H238.74L239.021 103.101C239.021 103.101 238.842 103.259 238.74 103.259C237.882 103.362 237.055 103.648 236.311 104.097C235.008 104.804 233.755 105.564 232.426 106.297C232.313 106.385 232.193 106.464 232.068 106.533C231.967 106.559 231.862 106.559 231.761 106.533C231.734 106.43 231.734 106.322 231.761 106.219C231.872 106.094 232.002 105.988 232.145 105.904C233.677 104.872 235.304 103.995 237.002 103.285C237.501 103.097 238.014 102.948 238.535 102.84L238.586 102.866Z" fill="#0D73AE"/>
<path fill-rule="evenodd" clip-rule="evenodd" d="M236.95 99.1984C236.797 99.1984 236.746 99.3294 236.669 99.3294C236.36 99.4378 236.044 99.5253 235.723 99.5913C234.317 99.915 232.993 100.54 231.838 101.425C231.122 101.923 230.483 102.525 229.793 103.049C229.666 103.064 229.537 103.064 229.41 103.049C229.41 103.049 229.41 102.761 229.41 102.656C229.508 102.469 229.638 102.3 229.793 102.158C231.483 100.694 233.463 99.6215 235.596 99.0151C235.91 98.9761 236.227 98.9761 236.541 99.0151C236.692 99.0347 236.834 99.0984 236.95 99.1984Z" fill="#0D73AE"/>
<path fill-rule="evenodd" clip-rule="evenodd" d="M233.653 96.186L233.934 96.3693C233.846 96.4316 233.752 96.4843 233.653 96.5265C231.389 97.2389 229.261 98.3467 227.365 99.8009L226.777 100.246C226.777 100.246 226.598 100.246 226.47 100.246C226.455 100.142 226.455 100.036 226.47 99.9319C226.644 99.71 226.832 99.5 227.032 99.3032C228.729 98.0528 230.611 97.0888 232.605 96.4479L233.653 96.186Z" fill="#0D73AE"/>
<path fill-rule="evenodd" clip-rule="evenodd" d="M231.404 93.6713L231.148 93.8284L229.001 94.4833C227.423 95.0562 225.933 95.859 224.578 96.8671C224.381 97.0303 224.201 97.2147 224.042 97.4172L223.812 97.6267C223.812 97.6267 223.812 97.3648 223.812 97.3124C224.167 96.882 224.571 96.4952 225.013 96.1598C226.78 94.956 228.76 94.1194 230.841 93.6975H231.173C231.173 93.6975 231.301 93.6189 231.404 93.6713Z" fill="#0D73AE"/>
<path fill-rule="evenodd" clip-rule="evenodd" d="M228.566 91.1566L228.285 91.2875L226.393 92.021C224.612 92.7074 222.966 93.7192 221.537 95.0072L221.179 95.3216C221.113 95.3479 221.04 95.3479 220.974 95.3216C220.974 95.3216 220.974 95.1382 220.974 95.0858C221.23 94.7407 221.522 94.4246 221.843 94.1428C223.635 92.772 225.652 91.7427 227.799 91.1042H228.336C228.336 91.1042 228.464 91.078 228.566 91.1566Z" fill="#0D73AE"/>
<path fill-rule="evenodd" clip-rule="evenodd" d="M244.338 92.1519C244.086 92.0891 243.829 92.0453 243.571 92.0209C242.472 92.0209 241.398 91.8638 240.299 92.0209C239.615 92.1493 238.941 92.3243 238.28 92.5448H237.641C237.82 92.3877 237.947 92.1781 238.152 92.0995C238.754 91.8526 239.379 91.6683 240.018 91.5494C241.34 91.2486 242.709 91.2486 244.031 91.5494H244.338C244.434 91.6044 244.52 91.6752 244.593 91.759L244.338 92.1519Z" fill="#0D73AE"/>
<path fill-rule="evenodd" clip-rule="evenodd" d="M246.945 94.85C246.831 94.9134 246.711 94.966 246.587 95.0072C245.718 95.1644 244.849 95.3215 244.031 95.4001C242.841 95.5641 241.679 95.8992 240.58 96.3955H240.222C240.267 96.2903 240.327 96.193 240.401 96.1074C240.522 95.9961 240.66 95.9075 240.81 95.8454C242.675 95.1261 244.646 94.7364 246.638 94.6928C246.756 94.6658 246.878 94.6658 246.996 94.6928L246.945 94.85Z" fill="#0D73AE"/>
<path fill-rule="evenodd" clip-rule="evenodd" d="M248.504 97.941C248.717 97.9274 248.931 97.9274 249.143 97.941C249.143 97.941 249.322 97.941 249.399 98.0982C249.476 98.2554 249.246 98.2554 249.143 98.2554H247.61C246.218 98.3166 244.856 98.6923 243.622 99.3556C243.622 99.3556 243.469 99.3556 243.392 99.3556C243.315 99.3556 243.392 99.2246 243.392 99.1722C243.747 98.7152 244.259 98.4151 244.824 98.334C246.025 98.0458 247.226 97.8625 248.453 97.6267L248.504 97.941Z" fill="#0D73AE"/>
<path fill-rule="evenodd" clip-rule="evenodd" d="M239.558 87.725L241.194 88.2489C241.194 88.2489 241.194 88.406 241.373 88.5108C241.552 88.6156 241.194 88.5108 241.117 88.5108C239.325 88.0648 237.447 88.1466 235.698 88.7466H234.906C235.123 88.5645 235.363 88.4146 235.621 88.3013C236.901 87.9244 238.226 87.7305 239.558 87.725Z" fill="#0D73AE"/>
<path fill-rule="evenodd" clip-rule="evenodd" d="M240.095 89.7682L236.644 90.1611C236.474 90.1735 236.303 90.1735 236.132 90.1611C236.258 89.9994 236.415 89.8657 236.593 89.7682C237.666 89.611 238.74 89.4015 239.813 89.3491C240.481 89.3493 241.147 89.4018 241.807 89.5062L242.216 89.6372C242.216 89.6372 242.216 89.7682 242.37 89.8468C242.523 89.9254 242.165 90.0039 242.088 89.9777L240.095 89.7682Z" fill="#0D73AE"/>
<path fill-rule="evenodd" clip-rule="evenodd" d="M219.415 93.9332C219.84 93.1618 220.458 92.52 221.204 92.0734C222.215 91.2607 223.369 90.6558 224.604 90.2921C225.143 90.175 225.69 90.0963 226.24 90.0563C226.393 90.0807 226.54 90.134 226.675 90.2135L226.291 90.4231H226.087C224.168 90.5601 222.358 91.3856 220.974 92.7544L219.543 93.907L219.415 93.9332Z" fill="#0D73AE"/>
<path fill-rule="evenodd" clip-rule="evenodd" d="M239.609 86.8343H236.618C235.796 86.7716 234.971 86.8785 234.19 87.1487H233.806C233.806 87.0177 233.96 86.8343 234.088 86.8081C234.751 86.5199 235.446 86.3175 236.158 86.2056C237.154 86.1407 238.153 86.1407 239.149 86.2056C239.334 86.2118 239.517 86.2564 239.686 86.3366C239.686 86.3366 239.839 86.52 239.916 86.6248H239.634L239.609 86.8343Z" fill="#0D73AE"/>
<path fill-rule="evenodd" clip-rule="evenodd" d="M245.156 93.7761C245.009 93.8406 244.854 93.8846 244.696 93.907C243.52 93.907 242.344 94.0904 241.168 94.2214L239.992 94.4309C239.992 94.4309 239.992 94.4309 239.813 94.4309C239.634 94.4309 239.813 94.2738 239.813 94.2476C239.919 94.161 240.041 94.0985 240.171 94.0642C241.561 93.6738 242.999 93.4885 244.44 93.5141C244.601 93.4868 244.765 93.4868 244.926 93.5141C244.926 93.5141 245.105 93.6713 245.156 93.7761Z" fill="#0D73AE"/>
<path fill-rule="evenodd" clip-rule="evenodd" d="M246.843 96.5527C247.078 96.5923 247.309 96.6537 247.533 96.7361C247.533 96.7361 247.533 96.9456 247.686 97.0766C247.84 97.2076 247.482 97.0766 247.405 97.0766C246.102 96.5527 244.849 97.0766 243.724 97.4433H242.855C243.096 97.2698 243.353 97.1207 243.622 96.998C244.664 96.6667 245.753 96.5162 246.843 96.5527Z" fill="#0D73AE"/>
<path fill-rule="evenodd" clip-rule="evenodd" d="M233.218 110.515C233.5 110.646 233.679 110.672 233.781 110.358C233.883 110.043 234.011 110.358 234.062 110.358C234.103 110.393 234.136 110.437 234.158 110.487C234.18 110.537 234.191 110.591 234.19 110.646C234.105 110.886 233.954 111.095 233.755 111.248C233.602 111.379 233.193 111.091 233.193 111.589H232.912C232.885 111.477 232.885 111.36 232.912 111.248C232.836 111.069 232.751 110.894 232.656 110.724L233.218 110.515Z" fill="#0D73AE"/>
<path fill-rule="evenodd" clip-rule="evenodd" d="M255.329 103.809C255.329 103.809 255.125 103.809 255.099 103.809C255.074 103.809 254.409 103.363 254.077 103.128C253.745 102.892 254.077 102.944 254.077 102.918C254.152 102.892 254.232 102.892 254.307 102.918C254.537 103.102 254.665 103.102 254.69 102.761C254.716 102.42 254.895 102.761 254.895 102.761C254.895 102.761 255.176 103.442 255.329 103.809Z" fill="#0D73AE"/>
</g>
<g clip-path="url(#clip4_231_2477)">
<path fill-rule="evenodd" clip-rule="evenodd" d="M8.98054 31.9124C7.67498 33.3989 6.56283 34.593 5.54739 35.8115C4.98438 36.4476 4.46728 37.1236 4.00005 37.8341C3.13474 39.0606 1.95697 40.0288 0.591068 40.6366C0.480568 40.716 0.352749 40.7674 0.218388 40.7866C0.0840282 40.8057 -0.0529308 40.792 -0.180933 40.7466C-0.308937 40.7012 -0.424232 40.6255 -0.517096 40.5257C-0.609957 40.426 -0.677662 40.3052 -0.714499 40.1736C-1.1317 39.43 -1.51097 38.6654 -1.85082 37.8829C-2.1893 37.0543 -2.45525 36.177 -2.81791 35.446C-3.34981 34.0569 -3.80918 32.7166 -4.53449 31.4007C-5.59828 28.9637 -6.9522 26.6974 -7.75005 24.2605C-8.31604 22.7574 -9.37354 21.4938 -10.748 20.6782C-12.6822 19.4354 -14.5922 18.2413 -16.5022 16.901L-17.1066 16.6329C-17.1693 16.5759 -17.2451 16.5356 -17.3272 16.5156C-17.4092 16.4956 -17.4949 16.4965 -17.5765 16.5182C-17.6581 16.54 -17.7331 16.582 -17.7946 16.6403C-17.856 16.6986 -17.9021 16.7714 -17.9286 16.8522C-18.0574 17.0934 -18.2329 17.3062 -18.4447 17.4778C-18.6565 17.6494 -18.9003 17.7764 -19.1617 17.8514C-19.503 17.937 -19.86 17.937 -20.2013 17.8514C-20.7332 17.7783 -20.7332 17.4371 -20.7332 16.9253C-20.6279 16.5838 -20.4817 16.2565 -20.298 15.9506C-19.1858 14.4397 -18.1221 12.9288 -17.0099 11.491C-16.4538 10.7843 -16.0428 10.7843 -15.2691 11.296C-15.1689 11.3422 -15.0803 11.4107 -15.0102 11.4965C-14.9402 11.5823 -14.8904 11.6831 -14.8648 11.7911C-14.8392 11.8992 -14.8383 12.0117 -14.8623 12.1202C-14.8863 12.2286 -14.9345 12.3302 -15.0032 12.417C-15.0787 12.5545 -15.1768 12.6781 -15.2933 12.7826C-15.5835 13.0506 -15.5109 13.2456 -15.2933 13.4405C-12.8756 14.7077 -10.7238 16.0237 -8.42701 17.3152L-7.84676 17.7051C-7.49923 17.9506 -7.0989 18.1096 -6.67862 18.1689C-6.25834 18.2282 -5.8301 18.1862 -5.42904 18.0463C-4.99386 18.0463 -4.51031 18.0463 -4.05095 17.827C-3.59158 17.6077 -2.69703 17.4858 -2.02007 17.3883L1.75157 16.9984L5.49903 16.7304C6.16744 16.6938 6.83733 16.6938 7.50574 16.7304C8.1827 16.7304 8.88383 16.901 9.56079 16.9497C11.1517 17.0827 12.7027 17.5211 14.1303 18.2413C14.4807 18.3464 14.803 18.5302 15.0727 18.7789C15.3425 19.0277 15.5528 19.3348 15.6878 19.6773C15.8228 20.0198 15.8789 20.3887 15.852 20.7562C15.8252 21.1238 15.7159 21.4804 15.5326 21.7992C14.7158 23.6773 13.7369 25.4794 12.6071 27.1848C11.5747 28.8905 10.3585 30.476 8.98054 31.9124ZM8.2794 32.0343C9.90128 30.1566 11.3499 28.1337 12.6071 25.9907C13.4775 24.5042 14.2028 22.9202 15.0248 21.3605C15.2119 21.0481 15.2897 20.6816 15.2458 20.3194C15.202 19.9572 15.0391 19.6202 14.7831 19.3623C14.3986 18.9756 13.9482 18.6619 13.4533 18.4362C11.2263 17.5389 8.8391 17.1157 6.44194 17.1934C4.65283 17.1934 2.86372 17.4371 1.05043 17.5833C0.486879 17.5469 -0.0784111 17.5469 -0.641966 17.5833C-1.63323 17.7295 -2.64867 17.9732 -3.63993 18.1682C-4.25838 18.2464 -4.87188 18.3603 -5.4774 18.5093C-5.77795 18.6151 -6.09752 18.6546 -6.41451 18.6252C-6.7315 18.5957 -7.03854 18.4981 -7.31486 18.3387L-14.2295 14.464C-14.7614 14.1472 -15.3417 13.9035 -15.8736 13.5867C-16.1009 13.4032 -16.3113 13.1993 -16.5022 12.9775L-15.8978 12.4901C-15.8978 12.2952 -15.5593 12.0759 -15.6076 11.9296C-15.6502 11.7601 -15.7535 11.6125 -15.8978 11.5154C-16.1278 11.5017 -16.3539 11.5806 -16.5264 11.7347C-16.8274 12.0442 -17.1023 12.3784 -17.3484 12.7338C-18.1704 13.7573 -18.8957 14.8052 -19.621 15.8043C-19.844 16.1234 -20.0305 16.4667 -20.1771 16.8279C-20.3222 17.2178 -20.1771 17.4127 -19.7177 17.4127C-19.3106 17.3658 -18.9312 17.1813 -18.6414 16.8892C-18.3517 16.5971 -18.1686 16.2147 -18.1221 15.8043C-18.1331 15.6421 -18.1331 15.4792 -18.1221 15.317C-17.9308 15.3632 -17.7445 15.4286 -17.566 15.5119C-17.3 15.7069 -17.1066 16.0237 -16.8407 16.2186L-13.2866 18.6555C-12.0052 19.5085 -10.6997 20.3614 -9.44245 21.2387C-8.84043 21.6065 -8.3542 22.1389 -8.04018 22.7739L-3.20475 33.667C-2.96297 34.1544 -2.79373 34.6661 -2.57614 35.1779C-1.94753 36.7132 -1.3431 38.2484 -0.690321 39.7593C-0.448549 40.3198 -0.230955 40.3685 0.276764 40.1005C1.55951 39.4349 2.66922 38.475 3.5165 37.298C4.33853 36.1283 5.25726 35.0317 6.17599 33.9594C6.97384 33.2527 7.67498 32.6679 8.2794 32.0343Z" fill="#0D73AE"/>
<path fill-rule="evenodd" clip-rule="evenodd" d="M5.28143 21.8723C6.22434 21.0194 7.16725 20.1664 8.15851 19.3135C8.40894 19.0673 8.7094 18.8787 9.03916 18.7609C9.36892 18.6431 9.72012 18.5988 10.0685 18.6312C10.1511 18.6471 10.2363 18.642 10.3165 18.6165C10.3967 18.591 10.4693 18.5458 10.5279 18.485C10.7455 18.1194 10.9389 18.1682 11.1565 18.485C11.6842 19.1314 12.4199 19.5711 13.2357 19.7278C14.1786 19.8984 14.3479 20.2883 13.961 21.1656C13.5742 22.0429 13.1632 22.9202 12.7038 23.7487C12.483 24.0953 12.2321 24.4214 11.9543 24.7235C11.5466 25.2787 11.1828 25.8654 10.8664 26.4781C9.57206 29.0739 7.88349 31.4501 5.86168 33.5208C5.28143 34.1544 4.55611 34.6661 3.92751 35.2754C3.2989 35.8846 2.54941 36.6644 1.87245 37.3711C1.5435 37.6993 1.1964 38.0085 0.832832 38.2971C0.74997 38.3808 0.649321 38.4444 0.538494 38.4831C0.427666 38.5218 0.309562 38.5346 0.193112 38.5205C0.0766606 38.5064 -0.0350896 38.4658 -0.133689 38.4018C-0.232288 38.3378 -0.315156 38.252 -0.376026 38.1509C-0.65887 37.6903 -0.870813 37.1891 -1.00463 36.6644C-1.17099 36.0638 -1.30018 35.4534 -1.39147 34.8367C-1.39147 34.6905 -1.39147 34.4955 -1.39147 34.4468C-2.04425 34.0082 -1.60906 33.4964 -1.39147 33.0334C-1.01372 31.382 -0.251259 29.8449 0.832832 28.5495C1.79992 27.3066 2.59776 25.9419 3.46814 24.6504L5.28143 21.8723ZM11.6158 24.3092C12.5939 23.3082 13.2726 22.0499 13.5742 20.6782C13.6951 20.2639 13.3566 20.1664 13.0423 20.069C12.4952 19.8604 11.9622 19.6162 11.4466 19.3379C10.9147 19.0211 10.8422 19.0211 10.552 19.6303C10.2619 20.2395 9.68167 21.5555 9.19813 22.5059C8.92138 23.1781 8.55538 23.8093 8.11016 24.3823C6.76173 26.1676 5.32542 27.8838 3.80662 29.5242L0.276756 32.8628C-0.0220548 33.1037 -0.304737 33.3642 -0.569443 33.6426C-0.752254 33.8612 -0.854718 34.1366 -0.859569 34.4224C-0.771029 35.3518 -0.609339 36.2726 -0.376026 37.1762C-0.134255 38.0535 0.542707 38.1509 1.17131 37.493C1.79992 36.835 2.6703 35.9333 3.44396 35.056C4.21763 34.1787 4.9913 33.7157 5.69244 32.9359C7.78487 30.764 9.52297 28.2718 10.8422 25.552C11.0654 25.0781 11.324 24.6218 11.6158 24.1874V24.3092ZM4.3627 28.5738C5.47485 27.1604 6.20016 26.1369 6.99801 25.2596C8.29415 23.5797 9.35198 21.7261 10.141 19.7522C10.3103 19.411 10.141 19.2404 9.80256 19.3135C9.45127 19.3813 9.11529 19.5135 8.8113 19.7034C6.73753 21.095 4.98864 22.9243 3.68574 25.0647C2.6703 26.6974 1.55815 28.3058 0.42182 29.9385C-0.134761 30.6672 -0.552806 31.4934 -0.811216 32.3754C-0.835408 32.537 -0.835408 32.7013 -0.811216 32.8628L-0.400204 32.6922C-0.178362 32.5572 0.0248641 32.3934 0.204225 32.2048L4.3627 28.5738Z" fill="#0D73AE"/>
<path fill-rule="evenodd" clip-rule="evenodd" d="M1.38891 22.0185C1.55815 22.2622 1.75157 22.579 1.92081 22.8714L2.79118 24.3336C2.80007 24.4471 2.80007 24.5612 2.79118 24.6747C2.79118 24.6747 2.52524 24.6747 2.4527 24.6747C2.23773 24.5307 2.04262 24.3586 1.87245 24.163C1.50402 23.6441 1.01192 23.227 0.441516 22.9501C-0.128889 22.6733 -0.759247 22.5457 -1.39146 22.579C-2.32558 22.5945 -3.24585 22.35 -4.05095 21.8723C-4.18738 21.7962 -4.31001 21.6973 -4.41361 21.5798C-4.42728 21.4665 -4.42728 21.352 -4.41361 21.2387C-4.41361 21.2387 -4.14766 21.1168 -4.07513 21.2387C-3.24975 21.5553 -2.33773 21.5553 -1.51235 21.2387C-0.48284 21.1277 0.550913 21.4056 1.38891 22.0185ZM1.02625 22.3596L0.470179 22.0428C-0.301977 21.7521 -1.13935 21.6846 -1.94754 21.8479C-2.02723 21.8308 -2.10961 21.8308 -2.18931 21.8479L-1.89918 22.0185C-1.80286 22.0307 -1.70539 22.0307 -1.60906 22.0185C-0.686619 21.8977 0.248253 22.1138 1.02625 22.6277V22.3596Z" fill="#0D73AE"/>
<path fill-rule="evenodd" clip-rule="evenodd" d="M5.0155 19.0942C5.17235 19.2958 5.2576 19.5447 5.2576 19.8009C5.2576 20.0571 5.17235 20.306 5.0155 20.5076C4.94791 20.5776 4.86709 20.6333 4.77781 20.6713C4.68853 20.7093 4.5926 20.7288 4.49569 20.7288C4.39878 20.7288 4.30285 20.7093 4.21357 20.6713C4.12429 20.6333 4.04347 20.5776 3.97588 20.5076C3.82884 20.3157 3.74908 20.08 3.74908 19.8375C3.74908 19.5949 3.82884 19.3593 3.97588 19.1673C4.1059 19.0216 4.28703 18.9325 4.48102 18.9188C4.675 18.9052 4.86665 18.9681 5.0155 19.0942ZM4.77373 19.4354C4.53195 19.4354 4.33854 19.4354 4.33854 19.4354C4.32648 19.622 4.32648 19.8092 4.33854 19.9959C4.45942 19.9959 4.65284 19.9959 4.67702 19.9959C4.70119 19.9959 4.72537 19.7034 4.77373 19.4354Z" fill="#0D73AE"/>
</g>
<path fill-rule="evenodd" clip-rule="evenodd" d="M770.862 38.0851C769.672 38.0851 769.698 38.0851 769.387 39.0739L766.283 49.2289C765.947 50.3512 765.585 51.4736 765.3 52.596C765.259 52.7705 765.256 52.9523 765.292 53.128C765.328 53.3037 765.401 53.469 765.507 53.6115C765.675 53.7527 765.791 53.95 765.833 54.1695C765.876 54.389 765.843 54.617 765.74 54.8141C765.43 55.6158 765.481 56.658 764.317 56.8451C764.11 56.8451 763.903 57.1925 763.826 57.433C763.526 58.1989 763.275 58.9845 763.076 59.7847C763.021 60.0492 762.913 60.2984 762.756 60.5153C762.6 60.7321 762.4 60.9113 762.17 61.0407C761.038 61.7488 760.069 62.7042 759.332 63.8398C758.595 64.9753 758.107 66.2637 757.902 67.6147C757.881 67.9586 757.925 68.3034 758.031 68.6302C758.1 68.8048 758.132 68.9925 758.126 69.1809C758.119 69.3693 758.074 69.5541 757.993 69.7232C757.913 69.8923 757.798 70.0419 757.658 70.1621C757.517 70.2823 757.354 70.3704 757.178 70.4206C757.038 70.4822 756.885 70.5017 756.735 70.4769C756.586 70.4521 756.446 70.384 756.332 70.2805C756.219 70.1771 756.136 70.0424 756.093 69.8922C756.05 69.742 756.05 69.5824 756.091 69.4319C756.131 69.2303 756.21 69.0392 756.324 68.8707C757.086 67.645 757.473 66.2112 757.436 64.7552C757.436 63.7665 757.436 62.751 757.617 61.7622C757.693 61.1203 757.849 60.4914 758.083 59.8916C758.497 58.7157 758.988 57.5933 759.376 56.4175C759.414 56.2633 759.42 56.1026 759.393 55.946C759.367 55.7893 759.308 55.6403 759.221 55.5089C759.016 55.1461 758.928 54.7251 758.97 54.3071C759.011 53.889 759.181 53.4956 759.454 53.1839C760.366 52.282 760.95 51.0839 761.11 49.79C761.73 46.7436 762.558 43.7238 763.36 40.6773C763.671 39.5015 764.059 38.3256 764.421 37.1498C764.493 36.9934 764.504 36.8139 764.451 36.6494C764.398 36.4848 764.285 36.348 764.136 36.2679C763.806 36.1012 763.501 35.8851 763.231 35.6266C763.012 35.4647 762.859 35.2249 762.802 34.9533C762.745 34.6818 762.787 34.398 762.92 34.1568C762.991 34.0191 763.087 33.8974 763.204 33.7985C763.32 33.6997 763.455 33.6258 763.599 33.581C763.743 33.5363 763.895 33.5216 764.045 33.5378C764.195 33.5541 764.34 33.601 764.472 33.6757C765.119 33.9964 765.249 33.6757 765.378 33.1413C765.999 31.431 766.568 29.6939 767.189 27.9836C768.353 24.5096 769.646 21.1958 770.862 17.6149C770.976 17.2538 771.203 16.9423 771.508 16.7294C771.812 16.5165 772.176 16.4143 772.543 16.439C773.7 16.3108 774.849 16.1145 775.984 15.8511C776.383 15.7176 776.812 15.7126 777.214 15.8367C777.616 15.9608 777.971 16.2081 778.234 16.5459C778.503 16.8851 778.65 17.31 778.65 17.7485C778.65 18.187 778.503 18.6119 778.234 18.951C777.05 20.7942 776.011 22.7336 775.13 24.7501C774.115 26.8543 773.459 29.1233 773.19 31.4577C773.21 31.7807 773.328 32.0891 773.526 32.3396C773.914 33.0076 773.785 33.5154 773.035 33.6223C772.559 33.7021 772.071 33.6274 771.638 33.4085C771.172 33.168 771.121 33.4085 771.017 33.6757L770.707 34.6912C770.474 35.6266 770.474 35.6266 771.302 36.1343C772.129 36.6421 772.388 37.0964 772.181 37.4705C771.974 37.8446 771.224 38.0584 770.862 38.0851ZM775.311 19.5924L775.88 18.5235H775.725C775.57 18.8709 775.44 19.2183 775.311 19.5657C775.182 19.9131 775.311 19.5657 775.156 19.6993C775.001 19.8329 775.156 19.9398 775.156 20.0467C775.231 19.94 775.292 19.8231 775.337 19.6993C775.337 19.6993 775.285 19.6726 775.311 19.5924ZM770.707 37.417L771.095 37.1498C771.029 37.0419 770.94 36.9506 770.836 36.8826L770.5 36.6955C769.594 36.1878 769.543 35.9472 769.905 34.9317C770.188 34.2012 770.421 33.4511 770.603 32.687C771.483 28.6784 772.88 24.8302 774.121 20.9286C774.406 20.02 774.664 19.0847 774.871 18.2562C774.888 18.1112 774.874 17.964 774.829 17.8254C774.784 17.6868 774.71 17.5601 774.613 17.4545C774.341 17.2688 774.036 17.1432 773.715 17.0857C773.394 17.0282 773.066 17.04 772.75 17.1204C772.434 17.2007 772.137 17.3479 771.879 17.5526C771.621 17.7573 771.407 18.0151 771.25 18.3097C771.008 18.8051 770.792 19.3136 770.603 19.8329L766.206 32.5801C765.929 33.3555 765.609 34.114 765.249 34.8516C765.093 35.2257 764.783 35.3593 764.447 35.0119C764.11 34.6645 764.266 34.5576 764.162 34.5576C763.982 34.5316 763.799 34.5316 763.619 34.5576C763.619 34.718 763.619 34.9317 763.619 35.0119C764.01 35.2765 764.426 35.5003 764.86 35.68L768.792 36.8558L770.707 37.417ZM763.774 53.2641C764.369 53.2641 764.55 52.9167 764.705 52.4357C765.714 49.0685 766.749 45.6746 767.784 42.2807C768.12 41.1583 768.508 40.0627 768.844 38.9403C769.18 37.8179 768.999 37.7644 768.042 37.4438L766.801 37.0429C765.559 36.6955 765.197 36.8826 764.731 38.1118C764.638 38.365 764.56 38.6238 764.498 38.8868C763.929 40.9178 763.283 42.9221 762.791 44.9531C762.3 46.9841 761.86 49.3357 761.394 51.5271C761.35 51.6406 761.331 51.7629 761.338 51.885C761.345 52.0071 761.378 52.1261 761.435 52.2334C761.492 52.3407 761.571 52.4337 761.667 52.5056C761.763 52.5776 761.873 52.6267 761.989 52.6495L763.774 53.2641ZM771.819 30.8965C771.819 31.5379 772.052 32.1525 772.181 32.7404C772.181 32.7404 772.181 32.7404 772.388 32.9275C772.595 33.1145 772.388 32.7671 772.388 32.687C772.388 32.0189 772.388 31.3775 772.388 30.7361C772.883 27.9185 773.836 25.2078 775.208 22.7191C775.829 21.4631 776.579 20.2872 777.251 19.0579C777.526 18.7583 777.753 18.4156 777.924 18.0424C777.979 17.7959 777.969 17.5385 777.895 17.2972C777.822 17.0559 777.686 16.8394 777.504 16.6703C777.322 16.5012 777.099 16.3855 776.859 16.3355C776.619 16.2854 776.37 16.3027 776.139 16.3856C775.992 16.4423 775.861 16.5353 775.758 16.6564C775.654 16.7776 775.581 16.9232 775.544 17.0804C775.544 17.508 775.88 17.5347 776.268 17.5614C776.656 17.5881 777.096 17.7752 776.76 18.4166C776.423 19.0579 776.01 19.5657 775.751 20.1803C774.261 23.3863 772.999 26.6998 771.974 30.0948C771.897 30.362 771.871 30.6292 771.819 30.8965ZM759.04 63.0984L759.506 62.6441C760.237 61.7259 761.111 60.9401 762.093 60.3191C762.356 60.1159 762.539 59.8219 762.61 59.4907C762.895 58.7157 763.101 57.9407 763.36 57.139C763.619 56.3373 763.36 56.1503 763.05 56.0166C762.739 55.883 762.274 56.2572 762.17 56.658C761.923 57.5346 761.732 58.4274 761.601 59.3304C761.601 60.0786 761.239 60.4528 760.644 60.3726C760.049 60.2924 759.635 60.7467 759.48 61.3346C759.325 61.9226 759.221 62.27 759.092 62.7243C759.059 62.8461 759.041 62.9719 759.04 63.0984ZM758.135 61.8691C758.203 62.0602 758.281 62.2475 758.368 62.4303L758.6 62.0027C759.04 60.9071 759.454 59.7847 759.92 58.689C760.007 58.4669 760.161 58.2796 760.359 58.1545C761.213 57.7537 761.265 56.9252 761.42 56.177C761.575 55.4287 761.213 55.402 760.799 55.6425C760.459 55.8393 760.194 56.1506 760.049 56.5244C759.635 57.8575 759.116 59.1534 758.497 60.3993C758.295 60.864 758.172 61.3612 758.135 61.8691ZM764.059 54.3063C764.059 54.3063 763.8 53.9589 763.593 53.9055C763.038 53.6543 762.467 53.44 761.886 53.2641C761.794 53.2163 761.692 53.192 761.589 53.193C761.486 53.1941 761.385 53.2206 761.293 53.2702C761.202 53.3199 761.124 53.3913 761.065 53.4786C761.006 53.5658 760.968 53.6664 760.954 53.7719C760.799 54.2796 760.954 54.5201 761.498 54.6537L763.231 55.1348C763.722 55.3485 764.059 55.0546 764.059 54.3063ZM757.074 68.7638C756.919 69.0043 756.764 69.1646 756.764 69.325C756.764 69.4853 757.023 69.6457 757.126 69.6189C757.21 69.5955 757.287 69.5479 757.346 69.4818C757.406 69.4156 757.446 69.3335 757.462 69.2448C757.462 69.1112 757.255 68.9508 757.074 68.7638ZM759.971 53.6917H760.127H759.971Z" fill="#0D73AE"/>
<g clip-path="url(#clip5_231_2477)">
<path fill-rule="evenodd" clip-rule="evenodd" d="M330.379 457.269C329.968 457.154 329.586 456.955 329.256 456.686C328.926 456.416 328.656 456.081 328.462 455.702C328.269 455.323 328.156 454.908 328.132 454.483C328.107 454.058 328.171 453.633 328.319 453.235C328.639 451.96 328.639 451.96 327.432 452.031C323.526 452.249 319.613 451.745 315.892 450.545C314.223 450.049 312.625 449.377 310.992 448.739C310.494 448.739 310.104 448.527 309.855 449.023C308.719 451.323 306.908 451.217 304.813 450.615C303.782 450.378 302.88 449.758 302.292 448.881C301.633 448.155 301.143 447.294 300.854 446.358C300.566 445.423 300.487 444.435 300.623 443.466C300.759 442.753 301.111 442.1 301.632 441.593C302.153 441.087 302.817 440.752 303.535 440.634C304.6 440.422 304.6 440.386 304.245 439.325C303.289 436.647 302.855 433.812 302.967 430.972C303.271 426.566 305.075 422.395 308.08 419.15L308.719 418.442C310.175 416.92 310.175 416.92 309.145 415.221C308.826 414.69 308.435 414.478 307.902 414.797C307.107 415.239 306.337 415.723 305.594 416.248C304.92 416.743 304.316 417.31 303.677 417.805C303.038 418.301 303.286 417.805 303.073 417.805C303.054 417.641 303.054 417.474 303.073 417.31C303.073 416.708 303.322 416.071 303.464 415.469C303.779 414.045 304.421 412.712 305.338 411.576C306.256 410.44 307.426 409.532 308.755 408.921C309.75 408.328 310.897 408.033 312.057 408.072C312.374 408.018 312.698 408.018 313.015 408.072C313.548 408.39 314.258 408.673 314.471 409.134C314.684 409.594 314.081 410.302 313.584 410.656C313.086 411.009 311.595 411.965 310.636 412.673C309.678 413.381 309.358 413.31 309.749 414.018C310.139 414.726 310.814 414.018 311.347 414.018C313.745 413.14 316.186 412.384 318.661 411.753C322.205 410.977 325.896 411.21 329.313 412.425C333.542 414.135 337.069 417.215 339.327 421.168L341.244 424.211C341.493 424.636 341.706 425.026 342.274 424.707C342.842 424.388 343.303 424.176 343.019 423.468C342.735 422.76 342.345 421.946 342.025 421.168C341.706 420.389 341.706 419.893 342.7 419.539C343.668 419.113 344.764 419.077 345.757 419.44C346.751 419.803 347.564 420.537 348.026 421.486C348.688 422.402 349.106 423.469 349.243 424.589C349.379 425.709 349.229 426.846 348.807 427.892C348.253 428.988 347.548 430.001 346.712 430.901C346.322 431.361 345.966 430.901 345.753 430.299C345.327 428.919 344.866 427.538 344.404 426.158V425.91C344.12 425.45 343.8 425.061 343.197 425.344C342.593 425.627 342.487 425.946 342.558 426.547C342.86 429.359 342.86 432.195 342.558 435.007C342.154 437.577 341.301 440.057 340.037 442.333C339.095 444.434 337.771 446.342 336.131 447.961C335.598 448.456 335.456 448.881 336.131 449.447C336.429 449.796 336.669 450.191 336.841 450.615C337.354 451.465 337.563 452.463 337.434 453.447C337.305 454.43 336.846 455.341 336.131 456.031C335.403 456.782 334.468 457.3 333.443 457.521C332.419 457.741 331.353 457.654 330.379 457.269ZM305.133 424.849C304.595 426.721 304.168 428.624 303.855 430.547C303.567 436.13 305.378 441.619 308.932 445.943C310.162 447.441 311.822 448.528 313.69 449.058C315.43 449.589 317.241 450.014 319.016 450.403C322.946 451.562 327.14 451.475 331.018 450.155C332.811 449.415 334.449 448.347 335.847 447.005C337.666 445.073 339.143 442.847 340.214 440.422C341.235 438.572 341.818 436.514 341.919 434.405C341.919 432.246 341.919 430.051 341.919 427.857C341.893 427.407 341.759 426.97 341.528 426.583C340.676 424.99 339.788 423.468 338.936 421.911C337.808 419.958 336.355 418.211 334.64 416.743C332.748 415.1 330.518 413.892 328.106 413.204C325.035 412.254 321.77 412.108 318.626 412.779C316.31 413.366 314.052 414.159 311.879 415.151C310.814 415.54 310.849 415.646 311.382 416.637C311.595 417.062 311.844 417.593 311.382 417.77C310.422 418.116 309.608 418.778 309.074 419.646C307.725 421.274 306.34 423.15 305.133 424.849ZM304.423 449.624C305.381 449.837 306.163 450.049 306.979 450.155C307.796 450.261 308.506 449.518 308.968 448.775C309.143 448.493 309.207 448.156 309.148 447.829C309.089 447.502 308.911 447.209 308.648 447.005C307.45 445.693 306.489 444.184 305.807 442.546C305.699 442.228 305.51 441.945 305.259 441.722C305.007 441.499 304.703 441.344 304.374 441.273C304.046 441.202 303.704 441.216 303.383 441.315C303.062 441.414 302.772 441.594 302.541 441.838C302.109 442.142 301.775 442.565 301.58 443.055C301.384 443.545 301.336 444.081 301.44 444.598C301.631 446.006 302.195 447.338 303.073 448.456C303.484 448.899 303.936 449.302 304.423 449.66V449.624ZM329.278 452.668C328.71 454.084 328.852 455.287 329.74 455.924C330.354 456.305 331.045 456.547 331.763 456.632C332.497 456.757 333.251 456.67 333.937 456.381C334.623 456.093 335.211 455.615 335.634 455.004C336.103 454.439 336.399 453.752 336.487 453.024C336.576 452.296 336.452 451.558 336.131 450.899C336.067 450.65 335.945 450.421 335.773 450.23C335.602 450.04 335.387 449.893 335.146 449.803C334.906 449.712 334.647 449.681 334.392 449.712C334.137 449.742 333.893 449.834 333.681 449.978C332.793 450.368 331.941 450.757 331.018 451.111C330.638 451.221 330.293 451.424 330.014 451.703C329.734 451.981 329.53 452.325 329.42 452.704L329.278 452.668ZM348.061 427.892C348.52 426.594 348.539 425.181 348.115 423.871C347.692 422.561 346.85 421.425 345.718 420.637C345.173 420.434 344.595 420.338 344.014 420.354C343.303 420.354 342.913 420.814 343.161 421.557C343.416 422.332 343.725 423.089 344.085 423.822C344.724 425.238 345.398 426.618 346.073 428.034C346.286 428.494 346.499 428.99 346.677 429.45C347.103 429.06 347.493 428.636 347.884 428.211C348.022 428.111 348.132 427.977 348.203 427.822L348.061 427.892ZM304.352 414.69C304.281 414.839 304.222 414.993 304.174 415.151C304.156 415.398 304.156 415.646 304.174 415.894C304.424 415.837 304.664 415.741 304.884 415.611L306.447 414.514L312.909 410.16C313.122 410.16 313.406 409.594 313.335 409.452C313.258 409.313 313.145 409.196 313.008 409.115C312.87 409.034 312.714 408.992 312.554 408.992C311.655 408.971 310.759 409.079 309.891 409.311C308.632 409.755 307.485 410.466 306.529 411.394C305.573 412.323 304.83 413.448 304.352 414.69Z" fill="#0D73AE"/>
<path fill-rule="evenodd" clip-rule="evenodd" d="M337.054 435.962C335.726 438.868 333.579 441.327 330.876 443.041C328.605 444.502 325.979 445.321 323.277 445.412C320.67 445.483 318.062 445.27 315.501 444.775C314.441 444.474 313.5 443.856 312.802 443.006C311.333 441.248 310.003 439.378 308.826 437.413C307.841 435.846 307.219 434.08 307.004 432.244C306.789 430.407 306.987 428.546 307.583 426.795C308.461 424.766 309.66 422.89 311.134 421.238C312.463 419.414 314.304 418.023 316.424 417.239C316.814 417.113 317.168 416.894 317.454 416.602C318.434 415.561 319.674 414.8 321.047 414.395C322.42 413.991 323.876 413.959 325.266 414.301C328.058 414.725 330.664 415.958 332.76 417.845C334.856 419.733 336.349 422.193 337.054 424.919C338.116 427.86 338.301 431.044 337.587 434.086C337.409 434.688 337.232 435.361 337.054 435.962ZM308.648 426.087C307.663 428.699 307.576 431.562 308.399 434.228C309.262 436.684 310.548 438.972 312.199 440.988C313.001 442.101 314.073 442.994 315.315 443.582C316.557 444.17 317.928 444.434 319.3 444.351C319.938 444.298 320.58 444.298 321.218 444.351C322.637 444.508 324.073 444.46 325.479 444.209C327.297 443.791 329.02 443.035 330.556 441.979C332.55 440.795 334.197 439.108 335.331 437.089C336.465 435.07 337.047 432.79 337.019 430.476C337.078 428.434 336.777 426.398 336.131 424.459C335.186 421.498 333.192 418.982 330.521 417.38L328.461 416.283C327.303 415.672 326.031 415.304 324.724 415.2C323.418 415.097 322.104 415.261 320.863 415.681C320.65 415.681 320.366 415.681 320.33 416C319.904 417.239 318.768 417.487 317.773 417.876C315.674 418.543 313.796 419.766 312.341 421.415C310.956 422.902 309.82 424.53 308.648 426.087Z" fill="#0D73AE"/>
<path fill-rule="evenodd" clip-rule="evenodd" d="M314.826 431.29V432.175H315.75C317.773 431.644 319.797 431.184 321.928 430.653C322.107 430.588 322.27 430.484 322.405 430.35C322.539 430.215 322.643 430.053 322.709 429.874C322.972 429.002 323.186 428.116 323.348 427.22C323.348 426.724 323.739 426.017 322.709 426.158C322.709 426.158 322.46 425.627 322.709 425.592C323.437 424.907 324.208 424.268 325.017 423.681C325.171 423.603 325.341 423.562 325.514 423.562C325.687 423.562 325.857 423.603 326.011 423.681C326.339 424.037 326.59 424.456 326.748 424.913C326.907 425.369 326.97 425.853 326.934 426.335C326.934 426.335 326.757 426.618 326.615 426.689C326.473 426.76 326.331 426.689 326.26 426.689C326.189 426.689 325.656 425.946 325.479 425.769C325.336 425.56 325.182 425.359 325.017 425.167C324.78 425.34 324.565 425.543 324.378 425.769C324.282 426.031 324.222 426.305 324.2 426.583C323.916 427.999 323.632 429.45 323.384 430.865C323.384 431.573 322.958 431.786 322.283 431.75C319.845 431.842 317.442 432.357 315.181 433.272C314.329 433.52 314.365 433.732 315.181 434.37C315.998 435.007 316.034 435.077 316.389 435.467C316.744 435.856 316.389 435.891 316.389 436.068C316.389 436.245 315.892 436.068 315.785 436.068C314.826 435.219 313.868 434.37 313.015 433.449C313.015 433.449 313.015 432.671 313.015 432.352C313.425 431.69 313.888 431.062 314.4 430.476C314.582 430.284 314.799 430.128 315.039 430.016C315.056 430.299 315.056 430.583 315.039 430.865C315.039 430.865 315.039 431.184 314.826 431.361V431.29Z" fill="#0D73AE"/>
<path fill-rule="evenodd" clip-rule="evenodd" d="M312.589 426.406C311.844 427.645 311.347 428.6 310.707 429.485C310.412 429.737 310.03 429.864 309.642 429.839C309.394 429.839 309.11 429.591 308.861 429.45C309.054 429.298 309.269 429.179 309.5 429.096C310.281 428.777 310.388 428.565 309.926 427.786C309.702 427.504 309.566 427.163 309.534 426.804C309.503 426.445 309.577 426.086 309.749 425.769C309.858 425.539 310.023 425.34 310.228 425.188C310.432 425.036 310.671 424.937 310.923 424.899C311.176 424.86 311.434 424.884 311.674 424.968C311.915 425.052 312.132 425.193 312.305 425.379C312.477 425.696 312.574 426.047 312.589 426.406ZM310.849 426.406L310.601 426.123C310.601 426.123 310.423 426.123 310.423 426.3C310.41 426.417 310.41 426.536 310.423 426.654L310.849 426.406Z" fill="#0D73AE"/>
<path fill-rule="evenodd" clip-rule="evenodd" d="M332.367 435.431C332.276 435.321 332.168 435.225 332.048 435.148C332.212 435.022 332.391 434.915 332.58 434.83C332.58 434.83 332.935 434.83 333.113 434.83C333.313 434.745 333.504 434.638 333.681 434.511C333.681 434.511 333.468 434.122 333.326 434.016C333.097 433.868 332.845 433.761 332.58 433.697C332.047 433.697 331.905 433.237 332.296 432.812C332.687 432.387 332.545 432.246 332.083 431.998C331.621 431.75 331.87 431.467 332.083 431.29C332.246 431.208 332.427 431.171 332.609 431.182C332.791 431.193 332.967 431.252 333.119 431.352C333.27 431.453 333.392 431.592 333.472 431.755C333.552 431.919 333.588 432.1 333.574 432.281C333.546 432.619 333.633 432.956 333.823 433.237C334.604 434.157 334.817 434.653 334.391 435.219C333.965 435.785 333.184 435.608 332.367 435.431Z" fill="#0D73AE"/>
<path fill-rule="evenodd" clip-rule="evenodd" d="M321.253 438.829C321.253 439.148 321.253 439.431 321.253 439.608C321.253 439.785 320.792 439.926 320.614 439.926C319.904 440.457 319.939 440.776 320.614 441.307C321.289 441.838 321.431 442.298 321.04 442.899C320.945 443.053 320.811 443.18 320.653 443.268C320.494 443.356 320.316 443.402 320.135 443.402C319.953 443.402 319.775 443.356 319.617 443.268C319.458 443.18 319.325 443.053 319.229 442.899C318.93 442.196 318.894 441.408 319.129 440.68C319.363 439.953 319.853 439.333 320.508 438.935C320.754 438.884 321.003 438.849 321.253 438.829ZM320.117 442.369C320.117 442.369 320.117 442.369 320.33 442.369C320.543 442.369 320.33 442.369 320.33 442.156H320.046L320.117 442.369Z" fill="#0D73AE"/>
<path fill-rule="evenodd" clip-rule="evenodd" d="M327.503 421.238C326.757 420.92 326.686 420.601 327.218 420.212C327.751 419.823 328.142 419.079 327.218 418.478V417.947C327.364 417.707 327.6 417.536 327.873 417.469C328.146 417.403 328.434 417.447 328.674 417.593C328.914 417.738 329.087 417.973 329.153 418.245C329.22 418.517 329.175 418.805 329.029 419.044C328.816 419.964 329.029 420.672 329.882 420.991C329.961 421.091 330.032 421.198 330.095 421.309C330.095 421.309 329.811 421.521 329.668 421.521L327.503 421.238Z" fill="#0D73AE"/>
<path fill-rule="evenodd" clip-rule="evenodd" d="M325.479 418.69L326.047 418.23C326.047 418.442 326.295 418.655 326.26 418.796C326.049 419.327 325.788 419.837 325.479 420.318H325.159C325.225 419.768 325.332 419.224 325.479 418.69Z" fill="#0D73AE"/>
</g>
<path fill-rule="evenodd" clip-rule="evenodd" d="M76.9004 418.921C77.3084 420.339 77.3583 421.841 77.0451 423.284C76.732 424.727 76.0663 426.063 75.1111 427.167C74.2614 427.972 73.2343 428.551 72.1186 428.856C71.0029 429.16 69.8321 429.18 68.7072 428.913C68.7072 428.913 68.2364 428.622 68.2364 428.428C68.2364 428.234 68.2364 427.943 68.6131 427.943C69.3278 427.796 70.0515 427.698 70.7791 427.652C71.5033 427.629 72.2152 427.453 72.8712 427.136C73.5272 426.819 74.1135 426.368 74.594 425.809C75.0746 425.251 75.4393 424.597 75.6659 423.888C75.8924 423.179 75.976 422.43 75.9115 421.686C75.9115 421.153 75.9115 420.667 75.9115 420.182C75.9357 419.268 75.6866 418.369 75.1982 417.605C74.7097 416.842 74.0054 416.251 73.1805 415.914C72.3272 415.462 71.3605 415.29 70.4096 415.42C69.4587 415.55 68.5691 415.976 67.8597 416.641C66.8238 417.563 65.9762 418.727 64.9874 419.697C64.5309 420.066 64.0422 420.391 63.5277 420.667C63.4821 420.135 63.4821 419.599 63.5277 419.067C63.5277 417.709 63.5277 416.35 63.5277 414.944C63.5277 413.537 61.6913 412.324 59.8078 413.537C59.0117 414.035 58.3683 414.755 57.9518 415.613C57.5353 416.471 57.3625 417.433 57.4535 418.388C57.4535 419.212 57.4535 419.988 57.6889 420.813C57.7032 421.023 57.7032 421.234 57.6889 421.444C57.6889 421.444 57.218 421.444 57.1238 421.007C56.5781 419.813 56.3897 418.479 56.5825 417.175C56.7754 415.871 57.3409 414.655 58.2068 413.683C58.805 413.067 59.4871 412.544 60.2316 412.13C60.5487 411.896 60.9173 411.747 61.3044 411.696C61.6914 411.644 62.0848 411.693 62.449 411.838C62.8132 411.982 63.1369 412.217 63.3909 412.522C63.645 412.827 63.8214 413.193 63.9044 413.586C64.0993 414.367 64.2409 415.161 64.3282 415.962C64.3282 416.544 64.5636 417.127 64.7048 417.709L65.9762 416.69C66.7463 416.005 67.5826 415.404 68.4718 414.895C69.2726 414.501 70.148 414.294 71.0356 414.289C71.9231 414.283 72.8008 414.48 73.606 414.865C74.4112 415.249 75.124 415.812 75.6935 416.513C76.263 417.215 76.6751 418.037 76.9004 418.921Z" fill="#0D73AE"/>
<path fill-rule="evenodd" clip-rule="evenodd" d="M278.272 201.475C275.918 201.475 273.563 201.912 271.209 201.912C269.351 201.861 267.497 201.715 265.653 201.475C265.37 201.475 265.088 201.087 264.852 200.845C264.617 200.602 265.464 200.408 265.7 200.457C269.991 200.983 274.332 200.901 278.602 200.214C279.214 200.214 279.826 200.214 280.391 200.214C280.769 200.309 281.134 200.456 281.474 200.651C281.474 200.99 281.144 201.427 280.815 201.621L274.74 205.792L262.545 213.844C262.545 213.844 262.545 213.844 262.262 213.844H261.274C261.274 213.505 261.274 213.068 261.603 212.874C262.088 212.397 262.607 211.959 263.157 211.564L275.07 203.658C276.106 202.93 277.095 202.106 278.084 201.33L278.272 201.475Z" fill="#0D73AE"/>
<g clip-path="url(#clip6_231_2477)">
<path fill-rule="evenodd" clip-rule="evenodd" d="M304.633 12.5002C303.852 13.0117 303.464 13.029 302.924 12.549C302.384 12.0689 302.557 11.6689 302.783 10.9121C303.009 10.1554 303.577 9.89948 303.949 9.29274C304.823 8.01154 305.586 6.6441 306.538 5.46607C307.618 4.0618 309.188 3.09463 310.958 2.74317C311.622 2.62233 312.29 2.5822 312.955 2.46136C313.419 2.36511 313.901 2.37549 314.364 2.49166C314.826 2.60784 315.257 2.82667 315.621 3.13101C315.986 3.43535 316.274 3.81695 316.465 4.24593C316.655 4.67491 316.742 5.13961 316.718 5.60366C316.884 7.34954 316.452 9.09088 315.489 10.5534C314.415 12.413 313.485 14.3419 312.461 16.2164C311.709 17.6402 310.935 18.9513 310.133 20.3601C309.22 21.8593 307.954 23.1213 306.438 24.0434C306.157 24.2941 305.818 24.4752 305.448 24.5719C305.079 24.6685 304.69 24.678 304.314 24.5994C303.937 24.5209 303.584 24.3566 303.282 24.12C302.981 23.8835 302.74 23.5813 302.579 23.2383C302.035 22.4348 301.706 21.5128 301.623 20.5584C301.539 19.6039 301.704 18.6481 302.102 17.7798C302.899 16.0238 303.771 14.2901 304.618 12.5491C304.676 12.3538 304.734 12.1585 304.918 12.0006C305.387 11.3431 305.839 10.6536 306.366 9.98665C307.022 9.07928 307.897 8.34564 308.916 7.84954C309.338 7.65646 309.807 7.57872 310.275 7.62447C310.742 7.67022 311.19 7.83778 311.571 8.10956C312.277 8.58564 312.237 9.45109 312.127 10.189C312.073 10.5521 311.968 10.9054 311.814 11.2387C311.632 11.849 311.242 12.4238 310.909 12.9892C310 14.2066 309.258 15.5008 308.496 16.6824C308.387 17.0486 308.038 17.3963 307.518 17.2147C307.365 17.1633 307.225 17.0813 307.105 16.974C306.986 16.8667 306.891 16.7366 306.826 16.5919C306.761 16.4473 306.727 16.2914 306.728 16.1343C306.728 15.9771 306.762 15.8223 306.827 15.6798C307.561 14.4101 308.345 13.1552 309.086 11.861C309.247 11.324 309.597 10.7905 309.84 10.2514C309.849 10.071 309.839 9.88977 309.81 9.71083C309.6 9.76606 309.395 9.83849 309.198 9.92736C309.089 10.0031 309.002 10.1053 308.946 10.2242C308.256 11.1617 307.56 12.1236 306.888 13.0929C305.793 14.934 304.838 16.8524 304.029 18.8328C303.826 19.1942 303.77 19.6189 303.872 20.0233C303.974 20.4277 304.227 20.7824 304.58 21.0173C304.922 21.2411 305.332 21.3421 305.738 21.3029C306.144 21.2637 306.521 21.0868 306.803 20.8029C307.36 20.2933 307.845 19.7141 308.246 19.0799C309.808 16.4088 311.344 13.7303 312.855 11.0442C313.409 10.1092 313.884 9.13056 314.274 8.11799C314.537 7.44177 314.66 6.71945 314.635 5.99257C314.629 5.64684 314.535 5.30665 314.361 5.00312C314.187 4.69958 313.938 4.44238 313.638 4.25503C313.338 4.06768 312.996 3.95616 312.642 3.93067C312.289 3.90518 311.936 3.96653 311.616 4.10911C311.002 4.37863 310.434 4.73809 309.932 5.17528C308.631 6.29308 307.447 7.53351 306.395 8.87905C305.689 9.7869 305.19 10.8344 304.933 11.9518L304.633 12.5002ZM307.571 20.9785C307.527 21.125 307.3 21.2435 307.124 21.377C306.715 21.7072 306.214 21.9121 305.684 21.9663C305.153 22.0206 304.615 21.9219 304.136 21.6823C303.644 21.3909 303.285 20.9251 303.135 20.384C302.985 19.8429 303.056 19.2691 303.333 18.7847C303.624 17.8083 304.209 16.946 304.55 15.9845C305.622 13.7251 306.987 11.6129 308.611 9.69895C309.12 9.00008 309.821 8.75718 310.225 8.95762C310.63 9.15806 310.764 9.80932 310.29 10.7578C309.519 12.3355 308.648 13.8833 307.855 15.3484C307.797 15.5437 307.739 15.739 307.688 15.9098C307.637 16.0807 307.63 16.1051 307.776 16.2552C307.923 16.4052 308.027 16.33 308.136 16.1497C308.24 16.0253 308.334 15.8935 308.417 15.7551C309.147 14.5905 309.873 13.531 310.542 12.295C310.842 11.5718 311.075 10.8226 311.237 10.0566C311.341 9.79302 311.353 9.50221 311.272 9.22848C311.19 8.95475 311.02 8.71308 310.787 8.54028C310.51 8.34747 310.182 8.23879 309.844 8.22811C309.507 8.21743 309.175 8.30524 308.892 8.48032C307.896 9.01047 307.08 9.80897 306.538 10.7824C305.382 12.8298 304.232 14.8528 303.225 16.9451C302.391 18.5357 302.22 20.3887 302.749 22.1193C302.806 22.4465 302.945 22.7561 303.153 23.0206C303.361 23.2851 303.632 23.4965 303.942 23.6361C304.251 23.7757 304.59 23.8391 304.928 23.8209C305.266 23.8026 305.593 23.7032 305.88 23.5315C306.922 22.8096 307.87 21.9679 308.705 21.0243C309.553 19.9407 310.3 18.7846 310.937 17.5697C312.261 15.1466 313.441 12.8401 314.843 10.3344C315.552 9.14909 315.952 7.80843 316.008 6.42852C316.088 5.89038 316.034 5.33935 315.851 4.82199C315.667 4.30462 315.359 3.83612 314.954 3.45607C314.615 3.28752 314.25 3.17858 313.875 3.13432L314.37 3.94665L314.646 4.2148C314.923 4.50314 315.13 4.84925 315.25 5.22619C315.37 5.60312 315.4 6.00069 315.337 6.38793C315.21 7.63293 314.85 8.84109 314.274 9.95205C312.748 12.6869 311.273 15.4368 309.697 18.1567C309.261 19.2603 308.547 20.2356 307.621 20.9935L307.571 20.9785ZM308.625 5.34373L308.8 5.39611L310.537 3.78736C310.537 3.78736 310.588 3.61648 310.61 3.54324C310.632 3.47001 310.474 3.44952 310.459 3.49835C310.2 3.56318 309.946 3.64755 309.701 3.7507C308.087 4.55972 306.761 5.81943 305.888 7.37215C305.148 8.48051 304.483 9.61131 303.796 10.8153C303.677 11.0799 303.594 11.3589 303.548 11.6453C303.579 11.798 303.664 11.9361 303.787 12.0356C303.914 12.0223 304.03 11.9616 304.111 11.8663C304.191 11.5977 304.278 11.3048 304.358 11.0363C304.725 10.2458 305.153 9.48476 305.638 8.7597C306.53 7.51039 307.701 6.42412 308.704 5.26105L308.625 5.34373Z" fill="#0D73AE"/>
</g>
</g>
<defs>
<clipPath id="clip0_231_2477">
<rect width="31.3341" height="34.9776" fill="white" transform="translate(747.316 233.913)"/>
</clipPath>
<clipPath id="clip1_231_2477">
<rect width="26.9619" height="45.9081" fill="white" transform="translate(202.978 297.309)"/>
</clipPath>
<clipPath id="clip2_231_2477">
<rect width="8.74439" height="51.009" fill="white" transform="translate(809.256 147.197)"/>
</clipPath>
<clipPath id="clip3_231_2477">
<rect width="50.2803" height="32.0628" fill="white" transform="translate(207.35 84.5292)"/>
</clipPath>
<clipPath id="clip4_231_2477">
<rect width="36.435" height="29.8767" fill="white" transform="translate(-20.7332 10.9305)"/>
</clipPath>
<clipPath id="clip5_231_2477">
<rect width="48.8229" height="49.5516" fill="white" transform="translate(300.623 408.072)"/>
</clipPath>
<clipPath id="clip6_231_2477">
<rect width="12.3879" height="24.0471" fill="white" transform="translate(306.036) rotate(16.6009)"/>
</clipPath>
</defs>
</svg>
