<!-- icon666.com - MILLIONS vector ICONS FREE --><svg id="Layer_1" enable-background="new 0 0 400 400" viewBox="0 0 400 400" xmlns="http://www.w3.org/2000/svg"><g><g><g><g><g><path clip-rule="evenodd" d="m378.83 385.07c-1.46 0-2.95-.55-4.08-1.68l-357.12-357.12c-2.26-2.26-2.26-5.9 0-8.14 2.26-2.26 5.9-2.26 8.14 0l357.12 357.12c2.26 2.26 2.26 5.9 0 8.14-1.11 1.12-2.59 1.68-4.06 1.68z" fill="rgb(0,0,0)" fill-rule="evenodd" style="fill: rgb(255, 255, 255);"></path></g><g><path clip-rule="evenodd" d="m21.71 385.07c-1.46 0-2.95-.55-4.08-1.68-2.26-2.26-2.26-5.9 0-8.14l357.12-357.14c2.26-2.26 5.9-2.26 8.14 0 2.26 2.26 2.26 5.9 0 8.14l-357.1 357.14c-1.13 1.12-2.61 1.68-4.08 1.68z" fill="rgb(0,0,0)" fill-rule="evenodd" style="fill: rgb(255, 255, 255);"></path></g></g></g></g></g></svg>