<svg width="1342" height="705" viewBox="0 0 1342 705" fill="none" xmlns="http://www.w3.org/2000/svg">
<g opacity="0.05">
<g clip-path="url(#clip0_231_2612)">
<path fill-rule="evenodd" clip-rule="evenodd" d="M1006.24 337.113L1009.41 329.534C1010.1 327.955 1010.93 326.376 1011.58 324.752C1011.78 324.016 1011.89 323.258 1011.9 322.496L1010.38 323.895C1009.92 324.301 1009.55 325.248 1008.86 324.571C1008.17 323.895 1009.09 323.444 1009.5 323.038C1011.48 320.917 1013.6 318.707 1015.81 316.586C1016.2 316.316 1016.64 316.118 1017.1 316C1017.1 316.541 1017.56 317.218 1017.38 317.534C1016.44 319.494 1015.98 321.641 1016.04 323.805C1016.09 324.088 1016.09 324.378 1016.04 324.662C1015.81 325.023 1015.81 325.023 1015.54 325.023C1015.26 325.023 1014.94 325.023 1014.89 324.662C1014.84 324.301 1014.89 323.263 1014.89 322.586C1014.92 322.256 1014.92 321.924 1014.89 321.594C1014.89 321.82 1014.34 322 1014.2 322.271L1008.81 334.316C1007.71 336.842 1006.51 339.278 1005.31 341.805L1004.72 343.068C1003.24 346.135 1003.24 346.135 1006.6 347.218C1007.52 347.534 1008.03 347.218 1008.31 346.451C1008.91 344.647 1009.5 342.887 1010.19 341.173C1010.89 339.459 1011.48 338.15 1012.17 336.662C1012.21 336.505 1012.29 336.36 1012.41 336.242C1012.52 336.124 1012.66 336.035 1012.82 335.986C1012.97 335.936 1013.14 335.926 1013.3 335.958C1013.46 335.989 1013.61 336.061 1013.74 336.165C1014.66 336.617 1016 336.797 1016.5 337.519C1017.01 338.241 1015.81 339.233 1015.81 340.135C1015.03 342.797 1014.34 345.414 1013.56 348.075C1013.48 348.265 1013.45 348.467 1013.45 348.669C1013.46 348.872 1013.51 349.071 1013.59 349.256C1013.68 349.44 1013.8 349.607 1013.95 349.745C1014.1 349.883 1014.28 349.99 1014.48 350.06C1016.04 350.782 1017.61 351.549 1019.08 352.226C1020.55 352.902 1020.51 352.632 1020.92 351.459C1021.66 349.293 1022.35 346.947 1023.09 344.962C1023.55 343.699 1024.1 342.481 1024.6 341.263L1029.21 329.128C1029.34 328.81 1029.34 328.453 1029.21 328.135C1029.03 327.623 1028.67 327.191 1028.2 326.917C1027.92 326.917 1027.23 327.143 1026.95 327.459C1026.68 327.907 1026.48 328.394 1026.35 328.902C1024.56 333.414 1022.76 338.15 1021.01 342.797C1020.42 344.331 1019.91 345.865 1019.36 347.308C1019.18 347.914 1018.95 348.503 1018.67 349.068C1018.67 349.474 1017.93 349.654 1017.56 349.97C1017.47 349.493 1017.47 349.004 1017.56 348.526C1018.11 346.902 1018.76 345.368 1019.4 343.789C1021.24 339.053 1023.18 334.045 1025.02 329.534C1025.3 328.857 1025.34 328.09 1025.62 327.368C1025.78 326.688 1026.05 326.035 1026.4 325.429C1026.77 324.842 1027.18 324.256 1027.97 325.429C1028.55 325.999 1029.28 326.404 1030.08 326.602C1030.87 326.962 1031.14 327.278 1030.77 328.18C1029.76 330.707 1028.93 333.233 1028.01 335.714C1027.41 337.338 1026.77 338.872 1026.17 340.451C1025.02 344.105 1023.5 347.985 1022.07 352.09V352.767C1022.07 353.579 1022.35 353.985 1023.04 354.165C1023.73 354.346 1024.1 353.895 1024.28 353.263C1024.47 352.632 1025.02 350.692 1025.02 349.519C1026.31 345.729 1027.64 341.895 1028.98 338.105C1029.49 336.571 1029.62 336.571 1031.05 337.429C1031.44 337.664 1031.88 337.818 1032.34 337.88C1033.49 337.88 1033.54 338.331 1033.26 339.143L1031.37 345.098C1030.22 348.346 1029.07 351.549 1027.87 354.797C1027.51 355.925 1027.87 356.511 1029.25 356.962C1030.64 357.414 1030.77 356.962 1031.14 356.015C1031.51 355.068 1032.02 352.992 1032.52 351.504C1033.03 350.015 1033.31 349.835 1034.78 350.556C1036.25 351.278 1036.62 351.414 1036.07 353.263C1035.68 354.552 1035.22 355.817 1034.69 357.053C1034.32 357.955 1034.41 358.632 1035.38 359.083L1040.86 361.564C1041.25 361.63 1041.66 361.63 1042.05 361.564C1042.01 361.134 1041.92 360.71 1041.78 360.301C1041.27 359.398 1040.63 358.541 1040.12 357.594C1040.05 357.252 1040.05 356.899 1040.12 356.556C1040.48 356.664 1040.84 356.8 1041.18 356.962C1041.18 356.962 1041.41 357.233 1041.5 357.368C1042.56 358.992 1043.62 360.571 1044.63 362.241C1044.82 362.629 1044.96 363.038 1045.05 363.459C1044.54 363.459 1044.03 363.91 1043.62 363.82C1040.67 363.278 1037.77 362.647 1034.92 362.015C1033.77 361.744 1033.77 361.699 1034.46 360.752C1034.46 360.549 1034.37 360.354 1034.23 360.211L1027.87 357.82C1026.77 357.414 1025.71 356.917 1024.65 356.421C1020.51 354.526 1016.41 352.451 1012.22 350.692C1009.27 349.474 1006.19 348.617 1003.15 347.579C1002 347.308 1002 346.992 1002 345.865C1003.2 342.887 1004.49 339.955 1005.73 336.842L1006.24 337.113ZM1029.62 339.278C1029.3 340.406 1029.02 341.263 1028.75 342.165L1025.3 353.444C1025.3 354.03 1024.74 354.797 1025.62 355.113C1026.49 355.429 1026.72 354.481 1027.04 353.895C1028.24 350.647 1029.62 347.579 1030.45 344.376C1030.94 343.01 1031.31 341.607 1031.56 340.18C1031.56 339.684 1031.05 339.143 1030.77 338.602L1029.62 339.278ZM1012.31 347.579C1012.31 347.579 1012.31 347.083 1012.31 346.812C1013 344.421 1013.69 342.03 1014.48 339.639C1014.71 338.872 1014.94 338.15 1014.02 337.699C1013.1 337.248 1012.63 337.699 1012.13 338.782C1011.62 339.865 1011.21 341.714 1010.75 343.068C1010.29 344.421 1009.87 345.459 1009.5 346.677C1009.42 346.853 1009.39 347.045 1009.39 347.238C1009.4 347.43 1009.45 347.619 1009.55 347.789C1009.64 347.959 1009.77 348.105 1009.93 348.218C1010.09 348.33 1010.28 348.405 1010.47 348.436C1011.44 348.887 1011.94 348.481 1012.31 347.579ZM1034.23 355.835C1034.23 355.068 1034.69 353.94 1034.87 352.812C1034.83 352.541 1034.55 352.09 1034.23 352.09C1033.9 352.09 1033.35 352.361 1033.26 352.632C1032.66 354.12 1032.16 355.654 1031.65 357.143C1031.65 357.368 1031.65 357.865 1031.65 357.865C1031.8 357.944 1031.96 357.985 1032.13 357.985C1032.3 357.985 1032.47 357.944 1032.62 357.865C1033.22 357.24 1033.76 356.56 1034.23 355.835Z" fill="white"/>
</g>
<path fill-rule="evenodd" clip-rule="evenodd" d="M1307.37 482.674C1307.37 483.282 1307.49 483.889 1307.53 484.496C1307.65 486.991 1307.77 489.509 1307.84 492.027C1307.84 494.118 1307.98 496.209 1307.98 498.3C1307.98 500.391 1307.98 502.797 1307.98 505.045C1307.98 506.012 1307.86 506.978 1307.79 507.945C1307.36 511.834 1307.41 515.758 1307.93 519.636C1308.13 520.932 1308.24 522.239 1308.28 523.548C1308.4 525.702 1308.64 527.849 1309 529.978C1309 530.54 1309 530.563 1308.47 530.563C1308.31 530.586 1308.15 530.586 1308 530.563C1306.84 530.237 1305.65 530.077 1304.44 530.091C1304.1 530.069 1303.76 530.069 1303.42 530.091C1302.95 530.091 1302.49 530.091 1302.05 530.091C1301.6 530.091 1301.53 530.091 1301.67 529.596C1301.71 529.388 1301.71 529.175 1301.67 528.967C1301.67 528.247 1301.51 527.55 1301.47 526.718C1301.42 525.887 1301.47 525.639 1301.47 525.077C1301.47 523.706 1301.47 522.334 1301.47 520.963C1301.35 518.018 1301.21 515.072 1301.12 512.105C1301.12 510.171 1301.12 508.237 1301.12 506.281C1301.12 503.629 1301.12 500.976 1301.12 498.323C1301.12 494.411 1301.12 490.499 1301.12 486.609C1301.12 485.26 1301.12 483.934 1301 482.607C1301 482.112 1301 482.022 1301.56 482H1303.53C1304.19 482 1304.84 482 1305.49 482H1306.86C1307 482.055 1307.13 482.147 1307.22 482.266C1307.31 482.385 1307.36 482.527 1307.37 482.674ZM1305.47 513.521C1305.72 513.251 1305.98 513.026 1306.37 513.229C1306.54 513.335 1306.66 513.497 1306.71 513.683C1306.76 513.87 1306.74 514.068 1306.65 514.24C1306.6 514.422 1306.52 514.596 1306.42 514.758C1306.42 514.758 1306.26 514.758 1306.16 514.915C1306.15 514.825 1306.15 514.735 1306.16 514.645C1306.16 514.42 1306.33 514.218 1306.35 513.993C1306.37 513.768 1306.21 513.746 1306.14 513.633L1305.84 513.881C1305.84 513.881 1305.58 514.195 1305.51 514.195C1305.31 514.153 1305.12 514.051 1304.98 513.903C1304.98 513.903 1304.98 513.588 1304.81 513.431C1304.81 512.846 1304.67 512.802 1304.07 512.757H1302.51C1301.28 512.757 1301.4 512.532 1301.47 513.881C1301.47 514.218 1301.65 514.308 1301.98 514.285H1302.91C1302.91 514.285 1303.05 514.398 1303.14 514.465C1303.23 514.533 1303 514.465 1302.93 514.465L1302.02 514.6C1301.95 514.599 1301.88 514.613 1301.81 514.642C1301.75 514.672 1301.69 514.715 1301.64 514.769C1301.59 514.822 1301.56 514.886 1301.54 514.954C1301.52 515.022 1301.52 515.093 1301.53 515.162V515.679C1301.53 516.017 1301.67 516.106 1302.02 516.039H1303.05C1303.05 516.039 1303.19 516.039 1303.26 516.039C1303.33 516.039 1303.26 516.174 1303.09 516.196L1302.12 516.354C1302.04 516.359 1301.97 516.38 1301.9 516.413C1301.83 516.447 1301.77 516.493 1301.72 516.55C1301.67 516.606 1301.63 516.672 1301.61 516.742C1301.58 516.813 1301.58 516.887 1301.58 516.961C1301.59 517.156 1301.59 517.351 1301.58 517.545C1301.58 517.815 1301.74 517.973 1302.05 517.95H1302.77C1302.92 517.937 1303.08 517.937 1303.23 517.95C1303.09 518.054 1302.93 518.137 1302.77 518.197C1302.51 518.197 1302.26 518.197 1302 518.31C1301.74 518.422 1301.53 518.804 1301.67 519.277C1301.81 519.749 1302.05 519.569 1302.3 519.524C1302.62 519.443 1302.93 519.382 1303.26 519.344C1303.37 519.344 1303.49 519.344 1303.63 519.344C1303.54 519.419 1303.45 519.486 1303.35 519.546L1302.14 519.839C1301.72 519.839 1301.63 520.086 1301.67 520.536C1301.72 520.985 1301.98 520.918 1302.3 520.895C1303.37 520.777 1304.45 520.838 1305.49 521.075C1305.72 521.129 1305.94 521.197 1306.16 521.278C1305.92 521.301 1305.67 521.301 1305.42 521.278C1304.65 521.278 1303.91 521.12 1303.09 521.143C1301.42 521.143 1301.65 521.323 1301.67 522.761C1301.67 523.031 1301.84 523.144 1302.12 523.099H1302.95C1302.95 523.099 1303.12 523.099 1303.21 523.234C1303.3 523.368 1303.07 523.391 1302.98 523.413L1302.28 523.571C1301.79 523.683 1301.7 523.863 1301.72 524.403C1301.74 524.942 1302.05 524.897 1302.4 524.875C1302.5 524.852 1302.61 524.852 1302.72 524.875C1302.72 524.875 1302.86 524.875 1302.93 524.875C1303 524.875 1302.93 525.01 1302.77 525.032C1302.55 525.059 1302.33 525.096 1302.12 525.145C1301.79 525.145 1301.72 525.482 1301.84 525.932C1301.95 526.381 1302.09 526.201 1302.33 526.179H1303.44C1303.44 526.179 1303.56 526.291 1303.58 526.336C1303.6 526.381 1303.58 526.449 1303.58 526.471L1302.6 526.628C1302.14 526.628 1301.98 526.876 1302.02 527.236C1302.07 527.595 1302.42 527.573 1302.72 527.573H1305.05H1305.21C1305.21 527.573 1305.21 527.708 1305.05 527.708C1304.43 527.708 1303.8 527.753 1303.16 527.843C1302.09 527.843 1302.09 527.843 1302.16 528.944C1302.16 529.506 1302.16 529.529 1302.84 529.529C1303.51 529.529 1304.28 529.529 1304.98 529.529C1305.67 529.529 1307.02 529.776 1308.05 529.911C1308.65 529.911 1308.7 529.911 1308.63 529.371C1308.51 528.292 1308.33 527.236 1308.23 526.156C1307.95 523.323 1307.7 520.468 1307.42 517.635C1307.17 515.26 1307.13 512.869 1307.28 510.486C1307.4 508.732 1307.53 507.001 1307.63 505.247C1307.84 500.908 1307.63 496.591 1307.63 492.252C1307.63 490.004 1307.42 487.576 1307.33 485.238C1307.33 484.541 1307.33 483.844 1307.19 483.147C1307.05 482.45 1306.93 482.427 1306.33 482.405C1306.11 482.383 1305.89 482.383 1305.67 482.405C1305.09 482.405 1304.51 482.405 1303.91 482.405C1303.3 482.405 1302.56 482.405 1301.88 482.405C1301.72 482.398 1301.57 482.446 1301.44 482.54C1301.38 482.654 1301.35 482.781 1301.35 482.91C1301.35 483.039 1301.38 483.166 1301.44 483.28C1301.51 483.395 1301.59 483.493 1301.7 483.568C1301.81 483.642 1301.94 483.691 1302.07 483.709C1303.09 483.709 1304.12 483.709 1305.14 483.709C1305.42 483.709 1305.72 483.484 1305.98 483.709L1305.14 483.978C1305.05 483.99 1304.95 483.99 1304.86 483.978C1303.91 483.978 1302.95 483.978 1302 483.978C1301.63 483.978 1301.47 484.091 1301.47 484.451C1301.47 484.81 1301.47 485.372 1301.47 485.845C1301.47 486.317 1301.6 486.249 1301.91 486.204H1302.81C1302.81 486.204 1303.05 486.204 1303.16 486.317C1303.28 486.429 1302.98 486.497 1302.88 486.519L1301.91 486.676C1301.85 486.673 1301.79 486.682 1301.73 486.702C1301.67 486.722 1301.62 486.753 1301.58 486.793C1301.54 486.833 1301.5 486.881 1301.48 486.935C1301.45 486.988 1301.44 487.046 1301.44 487.104C1301.44 487.891 1301.44 488.677 1301.44 489.352C1301.44 489.667 1301.58 489.757 1301.88 489.734H1303.53C1303.64 489.752 1303.73 489.79 1303.81 489.847C1303.73 489.922 1303.64 489.982 1303.53 490.026L1301.98 490.184C1301.6 490.184 1301.49 490.386 1301.49 490.723C1301.49 491.061 1301.49 491.6 1301.49 492.05C1301.49 492.499 1301.49 492.544 1301.98 492.544C1302.74 492.544 1303.53 492.544 1304.3 492.544C1304.51 492.522 1304.72 492.522 1304.93 492.544C1304.73 492.666 1304.51 492.757 1304.28 492.814C1303.6 492.814 1302.93 492.814 1302.26 492.949C1302.02 492.949 1301.67 492.949 1301.58 493.174C1301.21 493.691 1301.58 494.208 1302.16 494.253C1302.53 494.275 1302.89 494.32 1303.26 494.388C1303.26 494.388 1303.4 494.523 1303.47 494.59C1303.37 494.6 1303.28 494.6 1303.19 494.59C1302.84 494.59 1302.49 494.59 1302.14 494.59C1301.79 494.59 1301.49 494.748 1301.49 495.265C1301.49 495.782 1301.49 496.007 1301.49 496.389C1301.49 496.771 1301.7 496.861 1302.05 496.794C1302.24 496.772 1302.43 496.772 1302.63 496.794C1302.77 496.794 1302.88 496.906 1303 496.951C1302.91 497.032 1302.81 497.093 1302.7 497.131C1302.46 497.197 1302.22 497.243 1301.98 497.266C1301.9 497.263 1301.82 497.278 1301.75 497.309C1301.68 497.341 1301.62 497.388 1301.57 497.448C1301.52 497.507 1301.49 497.577 1301.48 497.651C1301.46 497.725 1301.47 497.801 1301.49 497.873V498.637C1301.49 499.289 1301.49 499.312 1302.26 499.177C1302.47 499.166 1302.69 499.166 1302.91 499.177C1302.72 499.177 1302.56 499.402 1302.37 499.469C1301.65 499.739 1301.51 499.941 1301.58 500.661C1301.65 501.38 1301.58 501.155 1302.14 501.088H1303.05H1303.19C1303.19 501.088 1303.19 501.2 1303.07 501.223H1302.74C1301.56 501.515 1301.56 501.515 1301.58 502.729C1301.58 503.449 1301.58 503.471 1302.47 503.449C1303.6 503.449 1304.79 503.449 1305.86 503.449C1306.09 503.477 1306.32 503.53 1306.53 503.606C1306.33 503.679 1306.12 503.732 1305.91 503.763H1303.86L1302.23 503.898C1301.65 503.898 1301.6 504.033 1301.6 504.573C1301.6 505.112 1301.6 505.247 1301.6 505.585C1301.6 505.922 1301.6 506.012 1302.02 505.967H1302.42C1302.7 505.967 1303.02 505.832 1303.23 506.169C1302.98 506.258 1302.73 506.325 1302.47 506.371C1301.67 506.371 1301.49 506.686 1301.56 507.451C1301.56 507.743 1301.72 507.855 1302.05 507.788L1303.07 507.608C1303.07 507.608 1303.23 507.608 1303.33 507.608C1303.42 507.608 1303.33 507.743 1303.14 507.765L1302.14 508.058C1301.65 508.215 1301.51 508.417 1301.58 508.845C1301.65 509.272 1301.93 509.272 1302.23 509.294L1303.21 509.407C1303.29 509.445 1303.36 509.498 1303.42 509.564C1303.42 509.564 1303.28 509.564 1303.21 509.564H1302.16C1301.67 509.564 1301.6 509.564 1301.6 510.104C1301.6 510.643 1301.6 510.89 1301.6 511.295C1301.6 511.7 1301.74 511.812 1302.09 511.835L1304.26 512.015C1304.95 512.015 1304.95 512.015 1305.16 511.43C1305.16 511.25 1305.37 511.07 1305.47 510.89C1305.47 511.07 1305.47 511.273 1305.47 511.453C1305.48 511.497 1305.48 511.543 1305.47 511.587C1305.47 511.857 1305.47 512.15 1305.77 512.239C1305.78 512.299 1305.78 512.36 1305.77 512.419C1305.33 512.644 1305.35 512.869 1305.77 513.161L1305.47 513.521Z" fill="white"/>
<path fill-rule="evenodd" clip-rule="evenodd" d="M12.7237 169.637C12.8265 169.921 12.9099 170.209 12.9734 170.501C13.3271 171.834 13.6392 173.184 14.0137 174.516C14.3882 175.848 14.8667 177.541 15.4493 179.017C16.1775 180.817 17.0513 182.744 17.8627 184.616C18.1124 185.174 18.0707 185.336 17.3217 185.48C15.3764 185.875 13.4962 186.48 11.7251 187.281C11.4454 187.387 11.2132 187.569 11.0632 187.8C10.9131 188.03 10.8534 188.297 10.8928 188.559C10.9183 189.772 11.0927 190.979 11.413 192.159C11.4436 192.314 11.4436 192.473 11.413 192.628C11.2257 192.628 10.9761 192.628 10.8304 192.52C9.85257 191.907 8.91631 191.241 7.95926 190.611L7.21025 190.089C6.78506 189.759 6.24901 189.554 5.68019 189.506C5.11137 189.457 4.53948 189.567 4.04782 189.819C3.07458 190.199 2.0738 190.524 1.05182 190.791C0.924265 190.838 0.791923 190.874 0.656527 190.899C0.136389 190.899 -0.0508716 190.899 0.011545 190.395C0.157184 188.973 0.323626 187.533 0.448459 186.092C0.698125 183.176 0.9478 180.259 1.15586 177.343C1.18617 176.575 1.37647 175.819 1.7176 175.11C2.75787 173.13 3.79815 171.131 4.77601 169.133C5.35857 167.927 5.8371 166.703 6.35724 165.532C6.45573 165.348 6.4866 165.143 6.44567 164.943C6.40474 164.743 6.29399 164.559 6.12837 164.416C6.12837 164.416 6.12837 164.182 6.12837 164.056C6.12837 163.93 6.54449 164.056 6.66932 164.056C6.93305 164.207 7.17114 164.388 7.3767 164.596C8.14651 165.334 8.89551 166.09 9.68612 166.811C10.4767 167.531 11.5378 168.485 12.4741 169.313L12.7237 169.637ZM8.85389 181.573C8.78507 181.84 8.73642 182.111 8.70826 182.384C8.71414 183.659 8.80446 184.934 8.97874 186.2C9.2284 187.695 9.70693 189.153 10.1022 190.629C10.1022 190.917 10.2895 191.205 10.3935 191.493C10.4975 191.781 10.5391 191.601 10.6016 191.655C10.664 191.709 10.6016 191.493 10.6016 191.421C10.6117 191.283 10.6117 191.145 10.6016 191.007C10.6016 190.269 10.6016 189.531 10.4143 188.793C10.4138 188.125 10.3721 187.458 10.2895 186.794C9.9982 185.516 9.64451 184.256 9.31162 182.996L8.93712 181.573H8.85389ZM6.31562 169.997C6.19078 171.311 5.98274 172.626 5.92032 173.958C5.92032 176.064 5.92032 178.171 5.77468 180.295C5.64985 182.798 5.44178 185.3 5.27534 187.803V188.361C5.27938 188.496 5.32869 188.628 5.4173 188.74C5.5059 188.852 5.63003 188.939 5.77468 188.991C6.66932 189.441 7.54314 189.945 8.39617 190.449C8.79147 190.683 9.12438 190.935 9.49888 191.169C9.59451 191.19 9.69452 191.19 9.79015 191.169C9.79015 191.169 9.79015 191.007 9.79015 190.935C9.66532 190.449 9.56129 189.963 9.39484 189.513C8.57925 187.285 8.21327 184.953 8.31296 182.618C8.43777 180.229 8.18579 177.836 7.56396 175.506C7.14785 173.85 6.83577 172.176 6.46127 170.501C6.46127 170.303 6.33643 170.105 6.27401 169.907L6.31562 169.997ZM12.37 169.817L11.8291 169.277L7.95926 165.676C7.86577 165.594 7.76098 165.521 7.64718 165.46C7.23107 165.226 6.9398 165.298 6.89818 165.712C6.7055 166.602 6.63565 167.509 6.69012 168.413C7.0022 170.573 7.45993 172.716 7.89684 174.876C8.45859 177.469 9.04115 180.079 9.6237 182.672C9.91498 184.004 10.2271 185.318 10.5599 186.632C10.5599 187.136 10.7472 187.155 11.3089 186.92C13.0395 186.154 14.8599 185.551 16.7392 185.12C17.405 184.976 17.405 184.886 17.1761 184.328C16.5103 182.798 15.8237 181.285 15.262 179.737C14.7002 178.189 14.305 176.838 13.8888 175.38C13.4727 173.922 12.9734 172.086 12.5365 170.429C12.37 170.213 12.37 170.015 12.37 169.817ZM4.29749 189.225C4.48855 189.159 4.64913 189.04 4.75442 188.887C4.85972 188.734 4.90388 188.556 4.88005 188.379C4.88005 188.037 4.88005 187.695 4.88005 187.335C4.88005 186.038 5.0881 184.742 5.17132 183.446C5.17132 182.456 5.33776 181.447 5.29615 180.457C5.22331 177.417 5.34834 174.376 5.67065 171.347C5.79548 170.195 5.92031 169.043 6.02434 167.873C6.0518 167.754 6.0518 167.632 6.02434 167.513C5.9604 167.611 5.90479 167.713 5.85791 167.819C5.62905 168.341 5.44179 168.881 5.17132 169.385C4.44313 170.753 3.65252 172.086 2.96594 173.472C2.29463 174.562 1.84424 175.743 1.63437 176.965C1.50954 178.189 1.44713 179.413 1.36391 180.565C1.21827 182.258 1.09344 183.95 0.947803 185.642C0.802164 187.046 0.656516 188.469 0.531683 189.873C0.531683 190.341 0.531685 190.413 1.13505 190.233L2.69546 189.657L4.29749 189.225Z" fill="white"/>
<g clip-path="url(#clip1_231_2612)">
<path fill-rule="evenodd" clip-rule="evenodd" d="M59.9642 250.918C61.398 250.361 62.8595 249.878 64.3428 249.473C69.69 248.224 74.9985 247.013 80.462 245.842L88.2116 244.046C90.6862 243.608 93.0154 242.562 94.9925 241C94.9925 241 95.4575 241 95.4963 241C95.5504 241.218 95.5504 241.446 95.4963 241.664C95.225 243.265 94.9538 244.866 94.6051 246.428C94.6051 247.17 94.2563 247.755 95.3025 248.029C96.3487 248.302 95.8838 249.044 95.7288 249.591C95.3413 250.879 94.8376 252.09 94.5276 253.495C93.6673 256.602 93.1731 259.8 93.0551 263.023C92.996 265.743 92.763 268.456 92.3577 271.145C92.0864 273.293 91.6215 275.401 91.3115 277.549C91.1177 278.642 91.1177 279.736 91.0015 280.868C90.8078 283.172 90.5753 285.476 90.4203 287.78C90.3623 288.364 90.3623 288.953 90.4203 289.537C90.4203 290.045 90.4203 290.357 89.8778 290.435C87.4445 291.18 85.1239 292.257 82.9806 293.637C79.4545 295.316 75.8897 296.956 72.2861 298.44C69.7288 299.533 67.0551 300.47 64.5365 301.369C62.0179 302.267 58.9568 303.243 56.1282 304.063C54.848 304.32 53.5543 304.502 52.2534 304.61C51.0909 304.61 49.9672 304.844 48.8435 305.039C48.4108 305.151 47.9554 305.137 47.5302 304.999C47.105 304.861 46.7274 304.604 46.4411 304.258C45.167 302.795 44.501 300.893 44.5812 298.948C44.482 298.285 44.3264 297.631 44.1162 296.995C43.9754 296.568 43.9356 296.113 44 295.667C47.2297 288.09 49.822 280.253 51.7496 272.239C53.3383 266.498 55.3145 260.836 57.3294 255.174C57.3294 254.94 57.6006 254.706 57.5231 254.472C57.2131 252.793 58.2981 252.129 59.538 251.543L60.1967 251.153C60.1967 251.153 59.9642 250.996 59.9642 250.918ZM74.7273 283.055H74.456H74.8048H74.9985H74.7273ZM90.9627 256.619C91.9079 254.227 92.5334 251.719 92.8227 249.161C92.8282 248.963 92.896 248.771 93.0164 248.614C93.8151 247.134 94.2782 245.494 94.3726 243.811C94.39 243.525 94.39 243.238 94.3726 242.952C94.0511 242.908 93.7253 242.908 93.4039 242.952C92.1413 243.555 90.8478 244.089 89.5291 244.553C84.1043 245.842 78.6796 246.974 73.2936 248.224C69.6513 249.005 66.0089 249.669 62.4829 250.684C60.7779 251.153 58.608 251.621 58.608 254.237C58.608 254.237 58.608 254.589 58.3756 254.784C57.901 256.246 57.3447 257.68 56.7094 259.079C55.1595 263.726 53.7258 268.373 52.3309 273.059C51.4784 275.87 50.7422 278.76 49.8897 281.61C49.0373 284.461 47.8748 287.858 47.0999 290.708C46.7511 291.958 46.3249 293.207 45.9374 294.613C46.2474 294.34 46.5186 294.027 46.8286 293.793C48.766 292.231 50.7034 290.474 52.6796 289.107C57.8924 286.211 63.5508 284.218 69.4188 283.211C73.9136 282.157 78.3696 280.79 82.9031 279.697C83.3768 279.662 83.8391 279.534 84.2633 279.318C84.6875 279.103 85.0653 278.806 85.375 278.443C85.6847 278.08 85.9201 277.659 86.0678 277.204C86.2155 276.749 86.2725 276.269 86.2355 275.792C86.2006 275.598 86.2006 275.4 86.2355 275.206C87.6691 269.818 89.1028 264.429 90.4978 259.04C90.7183 258.247 90.8738 257.438 90.9627 256.619ZM58.3368 293.129L60.0417 292.192C60.2926 291.991 60.5259 291.769 60.7392 291.528C60.4425 291.507 60.1447 291.507 59.848 291.528L51.0522 294.535C50.6182 294.653 50.2445 294.932 50.006 295.316C49.465 296.496 49.0369 297.725 48.7273 298.987C48.4948 299.885 48.7273 300.158 49.8122 300.002C50.8972 299.846 52.4858 299.65 53.687 299.416C54.1325 299.362 54.5651 299.229 54.9657 299.026C57.1744 297.932 59.3055 296.761 61.5142 295.707C63.7228 294.652 66.9389 293.168 69.7288 292.075C73.347 290.892 76.8598 289.402 80.2295 287.624C80.7728 287.352 81.3447 287.142 81.9344 286.999H82.7481C82.7481 287.233 82.7481 287.545 82.5156 287.624C81.5506 288.336 80.5265 288.963 79.4545 289.498C73.9911 291.763 68.6438 293.676 63.3741 295.863C61.3592 296.683 59.4993 297.737 57.5618 298.674C57.5618 298.674 57.2131 299.026 57.0581 299.182C56.9031 299.338 57.4844 299.455 57.6781 299.416C60.0828 299.435 62.467 298.97 64.6915 298.049C68.9081 295.853 73.2563 293.923 77.7109 292.27C79.687 291.45 81.5857 290.435 83.5618 289.498C83.9784 289.326 84.3475 289.055 84.6376 288.708C84.9277 288.362 85.1303 287.949 85.228 287.506C85.6377 285.784 85.9354 284.036 86.1192 282.274C86.1192 279.111 86.8554 279.345 83.5618 280.322C81.9732 280.751 81.7407 281.415 82.5156 282.86C83.2906 284.304 83.7556 285.164 84.3368 286.335C84.3947 286.697 84.3947 287.066 84.3368 287.428L83.6006 286.804C82.6706 285.71 82.3219 285.554 81.3532 285.944L71.9762 289.615C66.0715 291.634 60.3323 294.115 54.8107 297.034C54.152 297.425 53.4545 297.737 52.7958 298.049C52.3811 298.215 51.9534 298.346 51.5171 298.44C51.4406 298.45 51.3628 298.437 51.2938 298.402C51.2248 298.367 51.1676 298.312 51.1297 298.245C51.1297 298.245 51.1297 297.893 51.1297 297.854L52.1759 297.268L55.237 295.667C55.6244 295.667 55.6244 295.433 55.6244 295.277C55.4443 295.299 55.2621 295.299 55.082 295.277C54.8765 295.197 54.6814 295.092 54.5007 294.965L54.9657 294.652L58.3368 293.129ZM95.0313 249.278C94.7213 249.278 94.4113 249.278 94.3338 249.278C94.0131 249.717 93.7645 250.205 93.5976 250.723C93.2489 251.973 93.0551 253.261 92.7064 254.628C91.8152 257.908 90.8852 261.188 89.9553 264.507V265.093C89.4516 267.397 88.9091 269.7 88.4054 272.004C87.6185 274.328 87.2383 276.773 87.2817 279.228C87.257 281.693 86.9317 284.145 86.313 286.53C86.1719 287.214 86.0684 287.905 86.003 288.6C86.003 288.912 86.3517 289.498 86.5455 289.459C87.4964 289.451 88.4441 289.347 89.3741 289.146C89.3741 289.146 89.7616 288.678 89.7616 288.444C90.0688 286.295 90.2628 284.131 90.3428 281.962C90.4715 279.447 90.7562 276.943 91.1952 274.464C91.7377 270.794 92.0864 267.084 92.4352 263.375C92.4352 262.359 92.4352 261.344 92.4352 260.368C92.7629 256.946 93.5448 253.584 94.7601 250.372C94.8694 250.012 94.9599 249.647 95.0313 249.278ZM84.3368 291.763C84.6727 291.596 84.9853 291.386 85.2668 291.138C85.3312 291.018 85.3649 290.884 85.3649 290.747C85.3649 290.611 85.3312 290.477 85.2668 290.357C85.2668 290.162 84.8018 290.045 84.5306 290.045C84.2863 290.055 84.0476 290.121 83.8331 290.24L75.1923 294.145L69.0313 296.878C67.3651 297.62 65.7377 298.557 63.994 299.182C61.2648 299.939 58.4543 300.359 55.6244 300.431C53.5708 300.431 51.4396 299.924 49.4635 301.095C48.766 301.525 48.1848 300.9 48.0298 300.197C47.9131 299.709 47.9131 299.201 48.0298 298.713C48.4948 296.917 49.0373 295.121 49.541 293.364C49.5793 293.131 49.5793 292.893 49.541 292.661C49.541 292.661 49.1148 292.661 48.9985 292.895C48.2128 293.669 47.4752 294.49 46.7899 295.355C46.5574 295.707 46.7899 296.331 46.5574 296.761C46.3249 297.19 45.8212 297.581 45.7824 298.01C45.6328 298.879 45.6586 299.77 45.8583 300.629C46.0581 301.488 46.4276 302.297 46.9449 303.009C47.1747 303.363 47.5032 303.641 47.8893 303.808C48.2753 303.974 48.7017 304.022 49.1148 303.946C49.9763 303.706 50.8586 303.549 51.7496 303.477C53.3979 303.517 55.0394 303.252 56.5931 302.696C57.5231 302.384 58.3756 301.954 59.2668 301.681C63.1416 300.392 67.0164 299.221 70.8912 297.776C75.6185 296.136 79.8033 293.871 84.3368 291.763ZM61.5917 291.997L60.0417 292.895C59.8853 292.994 59.7529 293.128 59.6542 293.286H60.1967L76.2384 286.96C77.8659 286.296 79.532 285.71 81.1207 285.007C82.0507 284.617 82.1669 284.304 81.7407 283.367C81.5769 283 81.3825 282.647 81.1595 282.313C81.0301 282.091 80.8191 281.93 80.5724 281.864C80.3258 281.799 80.0633 281.833 79.842 281.962C77.2072 283.016 74.611 284.226 72.0924 285.085C66.5127 286.843 60.8942 288.405 55.3145 290.162C54.0141 290.677 52.7785 291.346 51.6334 292.153C51.3621 292.153 51.2459 292.778 51.0522 293.129C51.4127 293.169 51.7765 293.169 52.1371 293.129L53.532 292.661C56.2057 291.763 58.8405 290.865 61.5142 290.045C62.055 289.985 62.6007 289.985 63.1416 290.045C63.7197 290.033 64.2934 289.941 64.8465 289.771C66.3577 289.146 67.8301 288.365 69.3413 287.702L79.4933 283.289L80.462 282.86C80.462 282.86 80.7332 282.86 80.8882 282.86C81.0432 282.86 80.8882 283.25 80.6945 283.328C80.3016 283.651 79.8724 283.926 79.4158 284.148L72.9836 286.999L61.5917 291.997ZM55.1207 288.405L54.1908 288.951L53.6483 289.381C53.879 289.422 54.115 289.422 54.3458 289.381L71.1237 284.461C71.516 284.389 71.895 284.258 72.2474 284.07C72.5066 283.937 72.753 283.78 72.9836 283.602C72.7024 283.544 72.4124 283.544 72.1311 283.602C67.3524 284.492 62.6592 285.799 58.1043 287.506L55.1207 288.405Z" fill="white"/>
<path fill-rule="evenodd" clip-rule="evenodd" d="M84.143 262.555C82.031 262.962 79.8957 263.236 77.7496 263.375C72.9107 263.605 68.1008 264.258 63.374 265.327C62.8179 265.495 62.2844 265.731 61.7854 266.03C61.5141 266.03 61.1267 266.381 61.0492 266.303C60.7801 266.074 60.6013 265.756 60.5454 265.405C60.495 265.174 60.495 264.934 60.5454 264.702C61.6802 262.147 62.3621 259.411 62.5603 256.619C62.5603 255.838 62.5603 255.096 63.839 255.409C64.4202 255.409 65.234 254.979 65.8927 254.706C69.5933 253.284 73.4212 252.225 77.3234 251.543L79.222 251.192L84.608 250.176C85.383 250.176 85.4217 250.645 85.3442 251.152C85.3442 252.597 85.073 254.081 84.8793 255.526C84.6855 256.971 84.4143 258.494 84.143 259.977C84.143 260.524 84.143 260.915 84.4143 261.344C84.6855 261.774 84.608 262.125 84.143 262.555ZM65.389 255.682C64.8077 256.346 63.7615 256.971 63.4903 257.869C63.0226 259.771 62.6731 261.701 62.4441 263.648C62.4441 264.156 62.4441 264.429 63.1028 264.39H64.1103C68.9574 263.256 73.9007 262.589 78.8733 262.398C79.9177 262.354 80.9556 262.21 81.9732 261.969C82.297 261.86 82.5718 261.639 82.7481 261.344C83.2518 258.376 83.7168 255.409 84.1818 252.402C84.1818 251.66 83.9881 251.231 83.1743 251.348L79.532 252.051C76.9746 252.558 74.4173 252.949 71.7824 253.573C69.1475 254.198 67.6751 254.94 65.389 255.682Z" fill="white"/>
</g>
<g clip-path="url(#clip2_231_2612)">
<path fill-rule="evenodd" clip-rule="evenodd" d="M348.789 318.11C343.766 323.616 337.154 327.38 329.893 328.866C326.815 329.046 323.738 328.497 320.907 327.263C318.793 326.595 317.538 322.787 318 319.781C318.534 317.143 319.794 314.711 321.634 312.766C322.122 312.151 322.771 311.688 323.507 311.428C324.243 311.168 325.036 311.122 325.796 311.296H326.523C329.166 311.296 330.421 311.296 331.082 309.559C331.49 308.501 331.562 307.342 331.29 306.241C331.018 305.14 330.414 304.152 329.563 303.413C327.94 302.516 326.665 301.09 325.945 299.368C325.226 297.645 325.103 295.727 325.598 293.926C326.259 288.848 326.92 283.838 327.646 278.827C328.284 275.225 329.858 271.858 332.205 269.073C332.919 268.105 333.85 267.322 334.921 266.789C335.992 266.256 337.174 265.989 338.368 266.008C339.562 266.028 340.734 266.334 341.788 266.902C342.841 267.47 343.747 268.282 344.429 269.274C349.017 275.74 352.377 283.012 354.339 290.719C355.33 296.084 355.33 301.588 354.339 306.953C353.606 311.14 351.677 315.019 348.789 318.11ZM348.063 317.041L349.45 315.238C351.334 312.338 352.469 309.008 352.754 305.55C354 300.232 353.817 294.673 352.225 289.45C351.036 286.042 349.979 282.902 348.591 279.963C346.946 276.556 345.023 273.293 342.843 270.209C342.326 269.409 341.621 268.753 340.79 268.298C339.96 267.844 339.03 267.606 338.086 267.606C337.141 267.606 336.212 267.844 335.381 268.298C334.551 268.753 333.845 269.409 333.329 270.209C332.082 271.856 331.039 273.651 330.223 275.554C328.328 281.951 327.328 288.584 327.25 295.262C327.08 296.582 327.304 297.922 327.892 299.113C328.481 300.303 329.408 301.289 330.554 301.943C331.594 302.666 332.392 303.693 332.84 304.887C333.289 306.08 333.367 307.384 333.064 308.624C332.991 309.255 332.794 309.865 332.483 310.418C332.173 310.971 331.755 311.454 331.256 311.841C330.757 312.227 330.186 312.508 329.577 312.667C328.968 312.826 328.334 312.859 327.713 312.766C326.142 312.411 324.497 312.649 323.088 313.434C321.667 314.665 320.625 316.282 320.087 318.094C319.548 319.906 319.535 321.836 320.048 323.655C320.048 324.123 320.445 324.791 320.841 324.925C323.102 326.269 325.629 327.09 328.241 327.33C331.333 327.293 334.362 326.441 337.029 324.858C340.795 322.453 344.429 319.446 348.063 317.041Z" fill="white"/>
<path fill-rule="evenodd" clip-rule="evenodd" d="M335.443 271.412C337.425 269.207 338.945 269.274 340.596 271.412C342.248 273.549 343.173 274.752 340.993 277.625C340.234 278.777 339.8 280.117 339.737 281.5C339.737 284.372 339.737 287.312 339.275 290.251C339.152 290.958 338.905 291.636 338.548 292.256C337.897 291.976 337.295 291.593 336.764 291.12C335.046 289.116 333.329 287.045 331.809 284.907C331.403 284.173 331.198 283.342 331.214 282.502C331.408 278.441 332.891 274.552 335.443 271.412ZM336.698 288.314L337.293 288.782C337.531 288.364 337.709 287.914 337.821 287.445C337.821 284.84 338.35 282.168 338.812 279.629C339.126 278.384 339.616 277.192 340.266 276.088C340.543 275.376 340.569 274.589 340.34 273.859C340.112 273.129 339.642 272.501 339.011 272.08C337.557 271.144 336.764 272.08 336.17 273.282C335.363 274.491 334.656 275.765 334.055 277.09C332.007 282.101 332.205 282.902 335.641 286.978L336.698 288.314Z" fill="white"/>
<path fill-rule="evenodd" clip-rule="evenodd" d="M335.509 292.723C336.434 293.993 337.689 295.462 338.812 297.066C339.226 297.507 339.483 298.074 339.543 298.679C339.603 299.284 339.462 299.891 339.143 300.406C338.769 300.944 338.221 301.333 337.593 301.504C336.965 301.675 336.297 301.617 335.707 301.341C333.857 300.673 332.073 299.872 330.289 299.07C329.769 298.852 329.336 298.463 329.06 297.967C328.785 297.47 328.682 296.894 328.77 296.331C329.136 294.504 329.667 292.715 330.355 290.986C330.355 289.984 331.677 289.984 332.47 290.519C333.262 291.053 334.254 291.454 335.509 292.723ZM334.848 294.126C334.252 293.572 333.585 293.1 332.866 292.723C332.866 292.723 331.677 292.322 331.545 292.723C330.755 293.68 330.13 294.764 329.695 295.93C329.364 297.066 330.355 297.801 331.346 298.201L335.905 299.404C336.368 299.404 337.161 299.404 337.293 299.404C337.421 299.145 337.487 298.859 337.487 298.569C337.487 298.279 337.421 297.993 337.293 297.734C336.632 296.331 335.707 295.061 334.848 293.792V294.126Z" fill="white"/>
<path fill-rule="evenodd" clip-rule="evenodd" d="M346.543 289.583C346.172 289.936 345.73 290.205 345.248 290.371C344.766 290.537 344.254 290.597 343.747 290.546C343.24 290.496 342.749 290.336 342.308 290.077C341.868 289.819 341.487 289.468 341.191 289.049C340.751 288.326 340.484 287.508 340.414 286.662C340.344 285.816 340.471 284.965 340.787 284.178C341.102 283.391 341.596 282.69 342.228 282.132C342.861 281.574 343.615 281.174 344.429 280.965C344.825 280.878 345.236 280.877 345.633 280.96C346.03 281.043 346.406 281.21 346.736 281.449C347.066 281.688 347.343 281.995 347.548 282.349C347.754 282.702 347.884 283.096 347.93 283.504C348.137 284.559 348.12 285.646 347.881 286.694C347.641 287.741 347.185 288.726 346.543 289.583ZM345.684 288.247C346.873 286.911 347.071 283.904 345.684 283.036C345.215 282.734 344.659 282.603 344.106 282.663C343.554 282.724 343.038 282.973 342.645 283.37C342.06 284.097 341.74 285.005 341.74 285.942C341.74 286.879 342.06 287.787 342.645 288.514C342.849 288.724 343.097 288.885 343.371 288.987C343.644 289.088 343.936 289.128 344.226 289.102C344.517 289.077 344.798 288.987 345.049 288.839C345.301 288.691 345.518 288.489 345.684 288.247Z" fill="white"/>
<path fill-rule="evenodd" clip-rule="evenodd" d="M344.759 310.227C344.187 309.338 343.813 308.333 343.665 307.283C343.516 306.233 343.597 305.163 343.9 304.147C344.111 303.586 344.494 303.108 344.994 302.783C345.493 302.458 346.082 302.304 346.675 302.343C347.316 302.262 347.966 302.394 348.526 302.72C349.087 303.045 349.527 303.546 349.78 304.147C350.157 305.141 350.293 306.211 350.178 307.268C350.064 308.325 349.701 309.34 349.12 310.227C348.523 310.776 347.746 311.081 346.939 311.081C346.133 311.081 345.355 310.776 344.759 310.227ZM346.345 305.083C346.345 305.083 345.75 305.083 345.75 305.55C345.587 306.501 345.587 307.473 345.75 308.423C345.75 308.423 347.138 309.292 347.336 309.091C347.986 308.495 348.504 307.766 348.855 306.953C348.987 306.541 348.987 306.097 348.855 305.684C348.564 305.104 348.233 304.546 347.864 304.014L346.345 305.083Z" fill="white"/>
<path fill-rule="evenodd" clip-rule="evenodd" d="M348.723 298.803C348.09 299.507 347.226 299.956 346.291 300.067C345.356 300.177 344.413 299.942 343.636 299.404C342.78 298.507 342.302 297.31 342.302 296.064C342.302 294.818 342.78 293.62 343.636 292.723C344.305 291.925 345.244 291.408 346.27 291.272C347.296 291.136 348.336 291.391 349.186 291.988C349.961 292.979 350.343 294.226 350.257 295.486C350.172 296.746 349.625 297.929 348.723 298.803ZM344.429 293.725C344.272 294.967 344.272 296.225 344.429 297.467C344.429 297.868 345.552 298.402 346.213 298.402C346.873 298.402 348.063 297.4 348.459 296.331C348.855 295.262 348.459 296.331 348.459 296.331C348.459 296.331 349.186 294.059 347.864 293.659C346.723 293.49 345.562 293.513 344.429 293.725Z" fill="white"/>
<path fill-rule="evenodd" clip-rule="evenodd" d="M341.918 319.446C341.213 320.148 340.264 320.542 339.275 320.542C338.286 320.542 337.337 320.148 336.632 319.446C335.91 318.834 335.452 317.963 335.353 317.016C335.255 316.068 335.524 315.12 336.104 314.369C336.83 313.421 337.85 312.748 339 312.457C340.151 312.166 341.365 312.275 342.446 312.766C343.042 313.801 343.31 314.996 343.216 316.19C343.121 317.384 342.669 318.52 341.918 319.446ZM337.821 314.703C336.698 315.972 336.632 316.908 337.821 317.843C338.013 318.047 338.243 318.21 338.499 318.321C338.755 318.432 339.03 318.489 339.308 318.489C339.586 318.489 339.862 318.432 340.117 318.321C340.373 318.21 340.603 318.047 340.795 317.843C341.786 316.774 342.05 314.503 341.191 313.768C340.616 313.467 339.95 313.396 339.326 313.57C338.701 313.743 338.164 314.148 337.821 314.703Z" fill="white"/>
<path fill-rule="evenodd" clip-rule="evenodd" d="M330.487 321.183C330.021 321.803 329.379 322.263 328.647 322.502C327.914 322.74 327.127 322.747 326.391 322.52C325.75 322.139 325.237 321.573 324.918 320.894C324.6 320.214 324.492 319.454 324.607 318.711C324.553 318.425 324.553 318.13 324.607 317.843C324.607 317.843 325.136 318.244 325.202 318.511C325.239 318.844 325.239 319.18 325.202 319.513C325.236 319.79 325.33 320.056 325.479 320.291C325.628 320.526 325.827 320.725 326.061 320.872C326.295 321.019 326.56 321.112 326.834 321.143C327.108 321.173 327.386 321.142 327.646 321.05C328.228 320.908 328.741 320.561 329.093 320.071C329.444 319.581 329.611 318.981 329.562 318.377C329.562 317.977 329.1 317.442 328.902 317.442C328.704 317.442 328.043 317.442 327.58 317.91L326.391 318.511C326.391 318.043 326.391 317.375 326.391 317.108C326.391 316.841 327.911 315.772 328.637 315.906C329.173 315.935 329.692 316.105 330.144 316.397C330.595 316.69 330.964 317.096 331.214 317.576C331.495 318.176 331.575 318.852 331.444 319.502C331.313 320.152 330.978 320.742 330.487 321.183Z" fill="white"/>
</g>
<g clip-path="url(#clip3_231_2612)">
<path fill-rule="evenodd" clip-rule="evenodd" d="M1339.64 253.427C1339.82 255.459 1339.72 257.506 1339.35 259.511C1339.01 261.699 1338.79 263.906 1338.7 266.12C1338.7 266.796 1338.7 267.397 1339.39 267.773C1339.6 267.878 1339.75 268.063 1339.83 268.288C1339.9 268.513 1339.89 268.76 1339.79 268.974C1339.23 270.524 1339.23 272.232 1339.79 273.781C1340.18 275.745 1340.38 277.746 1340.37 279.752C1340.37 281.067 1340.62 282.419 1340.77 283.733C1340.86 284.417 1340.9 285.108 1340.88 285.798C1340.79 286.497 1340.79 287.203 1340.88 287.901C1341.42 290.49 1341.67 293.138 1341.6 295.788V298.792C1341.6 300.257 1341.6 301.759 1341.6 303.261C1341.6 304.763 1341.6 305.589 1341.6 306.791C1341.6 309.157 1341.6 311.56 1341.6 313.926V320.385C1341.6 320.798 1341.6 321.211 1341.6 321.625C1341.6 322.038 1341.6 321.85 1341.6 322C1341.6 322.15 1341.38 321.812 1341.35 321.7C1341.14 321.075 1340.98 320.435 1340.88 319.784C1340.48 317.118 1340.15 314.489 1339.79 311.861C1339.61 310.321 1339.35 308.819 1339.17 307.279C1338.99 305.739 1338.77 303.524 1338.56 301.458C1338.3 298.829 1337.94 296.201 1337.87 293.572C1337.79 290.943 1337.61 288.915 1337.25 286.587C1336.89 284.259 1336.71 282.306 1336.38 280.128C1336.05 277.95 1335.8 276.748 1335.51 275.058C1335.47 274.664 1335.34 274.284 1335.14 273.946C1334.94 273.608 1334.67 273.321 1334.35 273.105C1333.63 272.655 1333.63 272.166 1334.24 271.453C1334.37 271.254 1334.44 271.017 1334.42 270.777C1334.35 270.111 1334.45 269.437 1334.71 268.824C1334.8 268.596 1334.8 268.339 1334.71 268.111C1333.25 265.349 1332 262.474 1330.98 259.511C1330.62 258.422 1330.33 257.408 1330 256.431C1330 256.431 1330 256.131 1330 255.981C1330 255.831 1330.29 255.981 1330.4 255.981C1330.51 255.981 1331.02 256.206 1331.12 255.605C1331.23 255.004 1331.12 255.342 1331.12 255.23C1331.12 255.117 1331.67 254.779 1331.99 255.117C1332.32 255.455 1332.61 255.68 1332.97 255.117C1333 254.903 1333.08 254.697 1333.19 254.516L1333.63 254.066C1333.76 254.213 1333.89 254.377 1333.99 254.554C1334.12 254.86 1334.25 255.173 1334.35 255.493C1334.35 255.493 1334.35 255.718 1334.53 255.718C1334.59 255.702 1334.64 255.673 1334.68 255.634C1334.73 255.595 1334.76 255.547 1334.79 255.493C1335.04 255.004 1335.22 254.516 1335.47 254.028C1335.73 253.54 1335.8 253.728 1335.95 253.54C1336.06 253.728 1336.16 253.93 1336.24 254.141V254.404C1336.24 254.404 1336.45 254.404 1336.49 254.178C1336.53 253.953 1336.89 253.502 1337.25 253.202C1337.61 252.901 1337.25 252.864 1337.43 252.901C1337.61 252.939 1337.72 253.164 1337.83 253.277C1337.94 253.39 1337.83 253.277 1337.83 253.277L1338.05 253.953C1338.22 253.774 1338.37 253.586 1338.52 253.39C1338.74 253.014 1338.92 252.563 1339.14 252.188C1339.35 251.812 1339.39 252 1339.43 252C1339.48 252.037 1339.53 252.086 1339.57 252.145C1339.61 252.203 1339.63 252.269 1339.64 252.338C1339.66 252.701 1339.66 253.064 1339.64 253.427ZM1339.14 302.247C1339.32 303.937 1339.53 305.664 1339.75 307.354C1340.04 309.908 1340.4 312.499 1340.73 315.053L1341.35 319.597C1341.34 319.684 1341.34 319.772 1341.35 319.86C1341.35 319.86 1341.35 319.634 1341.35 319.559C1341.35 318.921 1341.35 318.245 1341.35 317.644C1341.35 315.879 1341.35 314.151 1341.35 312.386C1341.35 309.833 1341.35 307.279 1341.35 304.876C1341.37 304.488 1341.37 304.099 1341.35 303.711C1341.35 302.172 1341.35 300.632 1341.35 299.092C1341.35 298.567 1341.35 298.078 1341.35 297.553C1341.37 295.178 1341.21 292.805 1340.88 290.455C1340.88 289.629 1340.59 288.84 1340.48 288.052C1340.37 287.263 1340.3 286.925 1340.26 286.362C1340.22 285.798 1340.26 284.334 1340.26 283.282C1340.26 282.231 1340.01 282.043 1339.97 281.329C1339.83 278.243 1339.49 275.169 1338.95 272.129C1338.72 271.135 1338.82 270.087 1339.24 269.162C1339.5 268.561 1339.24 268.261 1338.7 268.111C1337.8 268.007 1336.89 268.136 1336.05 268.486C1335.82 268.53 1335.59 268.628 1335.39 268.773C1335.19 268.919 1335.03 269.108 1334.91 269.328C1334.79 269.547 1334.72 269.791 1334.71 270.042C1334.69 270.292 1334.73 270.544 1334.82 270.777C1334.89 270.982 1334.9 271.204 1334.84 271.413C1334.78 271.621 1334.66 271.806 1334.5 271.941C1334.21 272.204 1334.31 272.504 1334.5 272.73C1334.63 272.897 1334.79 273.037 1334.97 273.143C1335.69 273.443 1335.84 274.119 1335.98 274.795C1336.06 275.116 1336.12 275.442 1336.16 275.772C1336.49 277.537 1336.82 279.302 1337.07 281.067C1337.32 282.832 1337.4 283.62 1337.54 284.822C1337.79 286.925 1338.05 289.028 1338.27 291.131C1338.27 292.032 1338.27 292.934 1338.27 293.835L1339.14 302.247ZM1331.56 256.356C1331.56 257.107 1331.56 257.107 1331.05 257.07C1330.54 257.032 1330.8 257.07 1330.8 257.295C1330.86 257.656 1330.95 258.009 1331.09 258.347C1332.1 261.013 1333.15 263.679 1334.21 266.346C1334.43 266.775 1334.69 267.189 1334.97 267.585C1335.06 267.768 1335.22 267.908 1335.4 267.977C1335.59 268.047 1335.8 268.041 1335.98 267.96C1336.48 267.808 1336.99 267.695 1337.5 267.622C1338.27 267.622 1338.23 267.622 1338.27 266.646C1338.27 264.618 1338.56 262.59 1338.7 260.562C1338.7 259.135 1339.1 257.671 1339.21 256.244C1339.21 255.38 1339.21 254.554 1339.21 253.69C1339.22 253.603 1339.22 253.514 1339.21 253.427C1339.21 253.427 1338.99 253.427 1338.95 253.652C1338.84 253.903 1338.71 254.141 1338.56 254.366C1338.49 254.467 1338.4 254.553 1338.3 254.618C1338.2 254.683 1338.09 254.725 1337.98 254.741C1337.98 254.741 1337.65 254.441 1337.5 254.291C1337.36 254.141 1337.5 254.291 1337.5 254.066C1337.48 254.015 1337.45 253.971 1337.4 253.938C1337.36 253.905 1337.3 253.885 1337.25 253.878C1337.25 253.878 1337.25 253.878 1337.03 253.878C1336.82 253.878 1336.89 254.666 1336.71 255.004C1336.53 255.342 1336.24 255.755 1335.91 255.004C1335.58 254.253 1335.58 254.779 1335.47 255.004C1335.34 255.365 1335.18 255.716 1335 256.056C1334.71 256.582 1334.42 256.582 1334.13 256.056C1333.99 255.755 1333.88 255.493 1333.63 255.192C1333.37 254.892 1333.41 254.967 1333.3 255.23C1333.19 255.493 1333.12 255.755 1333.01 256.018C1332.9 256.281 1332.61 256.619 1332.21 256.018C1332.14 255.915 1332.06 255.826 1331.96 255.755C1331.78 255.568 1331.6 255.755 1331.56 255.755C1331.5 255.951 1331.5 256.161 1331.56 256.356Z" fill="white"/>
</g>
<path fill-rule="evenodd" clip-rule="evenodd" d="M375.739 28.2892L374.253 28.8504C371.668 30.3655 368.954 31.7684 366.434 33.5079C363.914 35.2475 363.462 35.3597 361.782 32.8346C361.328 32.1476 360.981 31.4118 360.748 30.6461C359.455 25.8202 358.228 21.2748 357 16.6734C357 16.505 357 16 357 16C357 16 357.775 16 357.84 16.3367C358.673 17.9024 359.386 19.5146 359.972 21.1626C360.812 23.9684 361.459 26.7741 362.169 29.636C362.14 29.916 362.14 30.1977 362.169 30.4777C363.203 33.1151 363.591 33.1713 366.111 31.5439C368.631 29.9166 369.859 29.4115 371.733 28.3453C373.607 27.2792 374.641 26.4935 372.831 24.1367C372.297 23.4969 371.822 22.8214 371.41 22.1166C371.41 22.1166 371.41 21.4993 371.41 21.1626C371.41 20.8259 372.314 21.1626 372.508 21.1626C373.478 22.2849 374.447 23.3511 375.287 24.5295C376.967 26.8863 378.582 29.3554 380.327 31.7123L385.755 38.9511C385.755 38.9511 386.143 39.3439 386.143 39.5123C386.176 39.9233 386.176 40.3358 386.143 40.7468C385.69 40.7468 384.98 40.7468 384.721 40.2979C384.048 39.4453 383.423 38.5651 382.847 37.6605C380.909 34.9669 378.97 32.049 376.967 29.5799C376.594 29.1243 376.184 28.693 375.739 28.2892Z" fill="white"/>
<g clip-path="url(#clip4_231_2612)">
<path fill-rule="evenodd" clip-rule="evenodd" d="M343.463 692.814C342.936 692.418 342.936 692.418 342.375 692.814C341.173 693.783 340.191 695.01 339.499 696.408C338.937 697.343 338.446 698.314 337.885 699.212C337.634 699.722 337.283 700.173 336.855 700.538C336.426 700.902 335.929 701.173 335.395 701.333C335.175 701.422 334.932 701.435 334.704 701.37C334.476 701.305 334.275 701.166 334.132 700.974L331.571 697.774C331.325 697.451 331.115 697.127 330.869 696.84C329.186 694.863 327.607 692.814 325.818 690.944C324.09 688.897 322.214 686.987 320.205 685.229C318.943 684.222 317.785 683.18 316.698 682.209C316.122 681.804 315.525 681.432 314.908 681.095C313.155 680.052 311.401 678.974 309.682 678.003C308.875 677.608 307.998 677.356 307.156 677.033L305.122 676.242C304.848 676.066 304.532 675.973 304.209 675.973C303.887 675.973 303.571 676.066 303.297 676.242C302.933 676.443 302.559 676.623 302.175 676.781L301.824 677.033C301.909 677.191 302.015 677.336 302.14 677.464L304.981 679.225C307.473 680.749 309.822 682.506 311.997 684.474C314.593 687.17 317.539 689.758 320.626 692.202C322.17 693.569 323.643 695.042 325.081 696.516C327.256 698.709 329.361 700.974 331.536 703.202L331.957 703.598C332.553 704.101 332.553 704.101 333.079 703.598L334.237 702.448C334.237 702.448 334.518 702.448 334.658 702.448C334.673 702.567 334.673 702.688 334.658 702.807C334.062 703.562 333.465 704.317 332.834 705.036C332.665 705.106 332.476 705.106 332.308 705.036C331.887 703.885 330.799 703.274 330.063 702.412C328.958 701.149 327.786 699.949 326.555 698.817C324.239 696.588 321.924 694.359 319.539 692.238C317.154 690.118 314.312 687.673 311.716 685.408C309.333 683.18 306.736 681.205 303.964 679.513C303.087 678.974 302.28 678.47 301.438 677.895C300.596 677.32 300.737 676.997 301.438 676.565L302.771 675.667C302.373 675.386 301.998 675.073 301.649 674.732C301.123 674.085 300.596 673.438 300 672.755C300 672.755 300 672.755 300 672.503H300.246C300.407 672.665 300.548 672.846 300.666 673.042C301.379 674.113 302.476 674.85 303.718 675.091C303.928 675.072 304.14 675.072 304.35 675.091C305.704 675.884 307.155 676.489 308.664 676.889C309.892 677.428 311.085 678.075 312.172 678.722C313.26 679.369 314.067 679.944 315.084 680.448C316.87 681.416 318.522 682.625 319.995 684.042L321.047 685.157L322.38 686.451C323.152 687.242 323.959 688.033 324.731 688.895C325.502 689.758 326.59 690.944 327.467 691.987C328.344 693.029 329.642 694.647 330.729 695.977C331.816 697.307 332.799 698.457 333.816 699.572C334.833 700.686 335.78 700.938 336.798 699.572C337.396 698.718 337.946 697.829 338.446 696.912L339.464 695.15C341.277 692.448 344 690.528 347.111 689.758C348.307 689.401 349.566 689.327 350.794 689.542C351.005 689.542 351.215 689.542 351.355 689.542C351.704 689.408 352.043 689.252 352.373 689.075C352.275 688.779 352.133 688.5 351.952 688.248C350.338 686.487 348.444 684.653 347.006 682.928C345.567 681.202 342.901 678.183 340.762 675.738C338.622 673.294 337.254 672.144 335.465 670.382C334.833 669.771 334.237 669.052 333.605 668.405C332.974 667.758 331.816 666.464 330.834 665.565C330.306 665.144 329.713 664.816 329.08 664.595C327.404 664.104 325.667 663.862 323.924 663.876C323.443 663.884 322.968 663.982 322.521 664.163C321.174 664.409 319.887 664.922 318.732 665.673C317.684 666.532 316.699 667.469 315.785 668.477C314.579 669.9 313.252 671.211 311.822 672.395C310.53 673.368 308.999 673.953 307.402 674.085C306.23 674.195 305.049 674.135 303.894 673.905C302.752 673.598 301.671 673.087 300.702 672.395C300.702 672.395 300.702 672.18 300.702 672.072C300.816 672.036 300.938 672.036 301.052 672.072C301.052 672.072 301.298 672.252 301.438 672.323C301.929 672.684 302.459 672.986 303.017 673.222C304.131 673.669 305.342 673.806 306.525 673.618C307.226 673.618 307.928 673.618 308.629 673.366C310.41 672.921 312.021 671.945 313.26 670.562C314.277 669.448 315.365 668.441 316.312 667.219C317.338 665.751 318.804 664.665 320.486 664.127H320.837C323.002 663.194 325.41 663.029 327.677 663.66C328.274 663.66 328.905 663.66 329.466 663.912C330.027 664.163 330.027 663.912 330.203 663.516C330.609 662.901 331.067 662.324 331.571 661.791C331.867 661.511 332.216 661.297 332.596 661.161C332.976 661.025 333.379 660.97 333.781 661L338.902 661.431C340.321 661.647 341.763 661.647 343.182 661.431L344.585 661.144C344.866 661.144 345.322 661.144 345.357 661.144C345.392 661.144 345.041 661.647 344.761 661.683C343.7 661.921 342.619 662.053 341.533 662.078C340.06 662.078 338.552 661.827 337.078 661.683C335.605 661.539 334.658 661.467 333.57 661.467C332.845 661.527 332.159 661.831 331.62 662.331C331.081 662.832 330.718 663.501 330.589 664.235C330.589 664.496 330.675 664.75 330.834 664.954L336.412 670.634C338.411 672.611 340.411 674.588 342.34 676.601C343.428 677.716 344.34 678.974 345.357 680.196L348.409 683.575L352.618 688.212L353.706 689.255C353.706 689.255 353.706 689.614 353.986 689.758C353.829 689.845 353.665 689.917 353.495 689.974C353.285 689.974 352.969 689.974 352.899 689.974C352.443 690.657 351.811 690.477 351.215 690.585C350.135 690.71 349.068 690.927 348.023 691.232C347.707 691.232 347.427 691.699 347.111 691.915L342.831 694.863H342.586C342.546 694.746 342.546 694.619 342.586 694.503L344.305 692.85L345.602 692.31L345.988 692.131L345.602 692.31L344.41 693.065L343.989 693.353L343.357 693.712V692.921L343.463 692.814ZM343.708 692.059C343.696 691.999 343.696 691.938 343.708 691.879C343.696 691.938 343.696 691.999 343.708 692.059ZM345.041 691.699L346.058 691.448L349.11 690.477L350.373 690.082H349.11C348.38 690.044 347.651 690.169 346.973 690.448C346.294 690.727 345.683 691.154 345.181 691.699H345.041Z" fill="white"/>
<path fill-rule="evenodd" clip-rule="evenodd" d="M359.634 687.386C360.406 687.386 361.423 687.709 362.44 687.781C363.458 687.853 365.492 687.781 367 687.781H367.492C367.983 687.781 368.018 687.458 367.702 687.134L366.194 685.768L363.598 683.324C362.405 682.137 361.212 680.951 360.09 679.729C357.95 677.212 355.881 674.624 353.741 672.108C352.092 670.131 350.233 668.226 348.654 666.284L345.602 663.049C345.498 662.926 345.404 662.794 345.322 662.654C345.304 662.534 345.304 662.413 345.322 662.294C345.322 662.294 345.602 662.294 345.673 662.294C346.304 662.869 346.935 663.48 347.532 664.128C348.128 664.775 349.18 666.105 350.057 667.075C352.443 669.663 354.618 672.395 356.828 675.163C359.259 678.236 361.909 681.12 364.755 683.791L368.579 687.206C368.735 687.39 368.865 687.596 368.965 687.817C368.762 687.95 368.551 688.071 368.333 688.177C366.64 688.627 364.879 688.749 363.142 688.536C362.795 688.463 362.437 688.463 362.089 688.536L357.634 689.758C357.075 689.905 356.525 690.085 355.986 690.297C355.424 690.297 355.074 690.765 355.144 691.484C355.121 691.877 354.959 692.247 354.688 692.526C354.363 692.866 353.976 693.136 353.548 693.321C353.12 693.506 352.661 693.603 352.197 693.605C351.636 693.605 351.285 693.317 350.969 692.814C350.654 692.311 350.443 691.915 349.531 692.418C347.475 693.298 345.503 694.369 343.638 695.618L339.499 698.637L338.937 698.997H338.587C338.58 698.889 338.58 698.781 338.587 698.673C339.393 697.99 340.13 697.271 340.972 696.66C343.56 694.753 346.334 693.126 349.251 691.807C349.513 691.684 349.783 691.576 350.057 691.484C350.934 691.232 351.075 691.304 351.285 692.203C351.496 693.101 351.636 692.994 352.127 692.994C352.481 693.031 352.838 692.986 353.172 692.861C353.507 692.737 353.809 692.536 354.056 692.275C354.299 691.998 354.436 691.64 354.442 691.268C354.442 690.657 354.442 690.226 355.109 690.046H355.354C355.412 690.002 355.459 689.946 355.492 689.88C355.525 689.814 355.541 689.742 355.541 689.668C355.541 689.595 355.525 689.522 355.492 689.457C355.459 689.391 355.412 689.334 355.354 689.291C355.354 689.291 354.968 689.291 354.758 689.291C354.548 689.291 354.407 689.902 354.127 689.471C353.846 689.039 354.337 688.895 354.583 688.788C356.066 687.756 357.845 687.262 359.634 687.386ZM356.828 688.428H359.739H360.125C360.261 688.37 360.39 688.298 360.511 688.212C360.511 688.212 360.3 687.997 360.16 687.997C359.035 687.82 357.884 687.957 356.828 688.392V688.428ZM357.634 688.896L356.582 689.147L357.67 688.931C357.67 688.931 357.67 688.931 357.88 688.931L357.634 688.896Z" fill="white"/>
<path fill-rule="evenodd" clip-rule="evenodd" d="M342.866 686.163H343.077L343.463 686.487C343.463 686.487 343.217 686.703 343.077 686.703C341.9 686.845 340.765 687.236 339.744 687.853C337.955 688.824 336.236 689.866 334.412 690.873C334.257 690.993 334.093 691.101 333.921 691.196C333.783 691.231 333.638 691.231 333.5 691.196C333.463 691.055 333.463 690.906 333.5 690.765C333.652 690.593 333.83 690.448 334.026 690.333C336.129 688.917 338.362 687.713 340.691 686.739C341.377 686.481 342.08 686.276 342.796 686.127L342.866 686.163Z" fill="white"/>
<path fill-rule="evenodd" clip-rule="evenodd" d="M340.621 681.131C340.411 681.131 340.341 681.311 340.235 681.311C339.811 681.459 339.377 681.579 338.937 681.67C337.007 682.114 335.19 682.972 333.605 684.186C332.623 684.869 331.746 685.696 330.799 686.415C330.624 686.436 330.448 686.436 330.273 686.415C330.273 686.415 330.273 686.02 330.273 685.876C330.408 685.619 330.586 685.388 330.799 685.193C333.119 683.183 335.835 681.711 338.762 680.879C339.193 680.826 339.629 680.826 340.06 680.879C340.267 680.906 340.462 680.994 340.621 681.131Z" fill="white"/>
<path fill-rule="evenodd" clip-rule="evenodd" d="M336.096 676.997L336.482 677.248C336.361 677.334 336.232 677.406 336.096 677.464C332.989 678.442 330.069 679.962 327.467 681.958L326.66 682.569C326.66 682.569 326.414 682.569 326.239 682.569C326.219 682.426 326.219 682.28 326.239 682.137C326.478 681.833 326.735 681.545 327.011 681.275C329.339 679.559 331.921 678.236 334.658 677.356L336.096 676.997Z" fill="white"/>
<path fill-rule="evenodd" clip-rule="evenodd" d="M333.009 673.546L332.658 673.761L329.712 674.66C327.546 675.446 325.502 676.548 323.643 677.931C323.372 678.155 323.125 678.408 322.906 678.686L322.591 678.974C322.591 678.974 322.591 678.614 322.591 678.542C323.079 677.952 323.632 677.421 324.239 676.961C326.664 675.309 329.381 674.161 332.237 673.582H332.693C332.693 673.582 332.869 673.474 333.009 673.546Z" fill="white"/>
<path fill-rule="evenodd" clip-rule="evenodd" d="M329.115 670.095L328.73 670.274L326.134 671.281C323.689 672.223 321.43 673.611 319.469 675.379L318.978 675.81C318.887 675.847 318.787 675.847 318.697 675.81C318.697 675.81 318.697 675.559 318.697 675.487C319.049 675.013 319.448 674.58 319.89 674.193C322.348 672.312 325.117 670.899 328.063 670.023H328.8C328.8 670.023 328.975 669.987 329.115 670.095Z" fill="white"/>
<path fill-rule="evenodd" clip-rule="evenodd" d="M350.759 671.461C350.413 671.374 350.061 671.314 349.707 671.281C348.198 671.281 346.725 671.065 345.217 671.281C344.278 671.457 343.352 671.697 342.445 672H341.568C341.814 671.784 341.989 671.497 342.27 671.389C343.097 671.05 343.955 670.797 344.831 670.634C346.644 670.221 348.524 670.221 350.338 670.634H350.759C350.891 670.709 351.009 670.806 351.11 670.921L350.759 671.461Z" fill="white"/>
<path fill-rule="evenodd" clip-rule="evenodd" d="M354.337 675.163C354.18 675.25 354.016 675.323 353.846 675.379C352.653 675.595 351.461 675.811 350.338 675.918C348.705 676.143 347.111 676.603 345.602 677.284H345.111C345.172 677.14 345.255 677.007 345.357 676.889C345.522 676.736 345.712 676.615 345.918 676.529C348.478 675.542 351.182 675.008 353.916 674.948C354.078 674.911 354.246 674.911 354.407 674.948L354.337 675.163Z" fill="white"/>
<path fill-rule="evenodd" clip-rule="evenodd" d="M356.477 679.405C356.769 679.387 357.062 679.387 357.354 679.405C357.354 679.405 357.599 679.405 357.705 679.621C357.81 679.837 357.494 679.837 357.354 679.837H355.249C353.339 679.921 351.47 680.436 349.777 681.346C349.777 681.346 349.566 681.346 349.461 681.346C349.356 681.346 349.461 681.167 349.461 681.095C349.948 680.468 350.651 680.056 351.425 679.944C353.074 679.549 354.723 679.297 356.407 678.974L356.477 679.405Z" fill="white"/>
<path fill-rule="evenodd" clip-rule="evenodd" d="M344.199 665.386L346.444 666.105C346.444 666.105 346.444 666.32 346.69 666.464C346.935 666.608 346.444 666.464 346.339 666.464C343.88 665.852 341.302 665.964 338.902 666.788H337.815C338.113 666.538 338.443 666.332 338.797 666.177C340.554 665.659 342.372 665.393 344.199 665.386Z" fill="white"/>
<path fill-rule="evenodd" clip-rule="evenodd" d="M344.936 668.189L340.2 668.729C339.967 668.746 339.732 668.746 339.499 668.729C339.671 668.507 339.886 668.323 340.13 668.189C341.603 667.974 343.077 667.686 344.55 667.614C345.466 667.615 346.381 667.687 347.286 667.83L347.847 668.01C347.847 668.01 347.847 668.189 348.058 668.297C348.268 668.405 347.777 668.513 347.672 668.477L344.936 668.189Z" fill="white"/>
<path fill-rule="evenodd" clip-rule="evenodd" d="M316.557 673.905C317.141 672.847 317.988 671.966 319.013 671.353C320.4 670.238 321.984 669.408 323.678 668.908C324.418 668.748 325.169 668.64 325.923 668.585C326.133 668.618 326.336 668.692 326.52 668.801L325.993 669.088H325.713C323.08 669.276 320.596 670.409 318.697 672.288L316.733 673.869L316.557 673.905Z" fill="white"/>
<path fill-rule="evenodd" clip-rule="evenodd" d="M344.269 664.163H340.165C339.037 664.077 337.904 664.224 336.833 664.595H336.307C336.307 664.415 336.517 664.163 336.692 664.128C337.602 663.732 338.557 663.454 339.534 663.301C340.901 663.212 342.271 663.212 343.638 663.301C343.893 663.309 344.143 663.37 344.375 663.48C344.375 663.48 344.585 663.732 344.69 663.876H344.305L344.269 664.163Z" fill="white"/>
<path fill-rule="evenodd" clip-rule="evenodd" d="M351.882 673.69C351.68 673.778 351.467 673.839 351.25 673.869C349.636 673.869 348.023 674.121 346.409 674.301L344.796 674.588C344.796 674.588 344.796 674.588 344.55 674.588C344.305 674.588 344.55 674.373 344.55 674.337C344.694 674.218 344.862 674.132 345.041 674.085C346.949 673.549 348.922 673.295 350.899 673.33C351.12 673.293 351.345 673.293 351.566 673.33C351.566 673.33 351.811 673.546 351.882 673.69Z" fill="white"/>
<path fill-rule="evenodd" clip-rule="evenodd" d="M354.197 677.5C354.519 677.554 354.836 677.639 355.144 677.752C355.144 677.752 355.144 678.039 355.354 678.219C355.565 678.399 355.074 678.219 354.968 678.219C353.179 677.5 351.461 678.219 349.917 678.722H348.724C349.055 678.484 349.408 678.279 349.777 678.111C351.207 677.656 352.7 677.45 354.197 677.5Z" fill="white"/>
<path fill-rule="evenodd" clip-rule="evenodd" d="M335.5 696.66C335.886 696.84 336.131 696.876 336.271 696.444C336.412 696.013 336.587 696.444 336.657 696.444C336.714 696.493 336.758 696.553 336.789 696.622C336.819 696.69 336.834 696.765 336.833 696.84C336.717 697.169 336.51 697.456 336.236 697.667C336.026 697.846 335.465 697.451 335.465 698.134H335.079C335.042 697.981 335.042 697.82 335.079 697.667C334.975 697.42 334.858 697.18 334.728 696.948L335.5 696.66Z" fill="white"/>
<path fill-rule="evenodd" clip-rule="evenodd" d="M365.843 687.458C365.843 687.458 365.562 687.458 365.527 687.458C365.492 687.458 364.58 686.847 364.124 686.523C363.668 686.199 364.124 686.271 364.124 686.235C364.226 686.2 364.337 686.2 364.44 686.235C364.755 686.487 364.931 686.487 364.966 686.02C365.001 685.552 365.247 686.02 365.247 686.02C365.247 686.02 365.632 686.954 365.843 687.458Z" fill="white"/>
</g>
<g clip-path="url(#clip5_231_2612)">
<path fill-rule="evenodd" clip-rule="evenodd" d="M189.776 28.7937C187.985 30.8337 186.459 32.4723 185.065 34.1444C184.292 35.0174 183.583 35.945 182.942 36.9201C181.754 38.6032 180.138 39.9319 178.263 40.766C178.112 40.8749 177.936 40.9455 177.752 40.9718C177.568 40.9981 177.38 40.9792 177.204 40.9169C177.028 40.8546 176.87 40.7507 176.743 40.6138C176.615 40.477 176.522 40.3112 176.472 40.1306C175.899 39.1101 175.379 38.0609 174.912 36.987C174.448 35.85 174.083 34.6461 173.585 33.6428C172.855 31.7366 172.225 29.8973 171.23 28.0914C169.77 24.7472 167.912 21.6371 166.817 18.2929C166.04 16.2303 164.589 14.4962 162.703 13.3769C160.048 11.6714 157.427 10.0327 154.806 8.19338L153.977 7.82551C153.891 7.74732 153.787 7.69198 153.674 7.66451C153.562 7.63703 153.444 7.6383 153.332 7.66818C153.22 7.69806 153.117 7.75562 153.033 7.83564C152.948 7.91566 152.885 8.01563 152.849 8.12649C152.672 8.45752 152.431 8.74944 152.141 8.98496C151.85 9.22048 151.515 9.39481 151.157 9.49762C150.688 9.61515 150.198 9.61515 149.73 9.49762C149 9.39729 149 8.9291 149 8.22682C149.145 7.75817 149.345 7.30898 149.597 6.88913C151.123 4.81572 152.583 2.74232 154.109 0.769232C154.873 -0.200588 155.437 -0.200588 156.498 0.501696C156.636 0.564993 156.757 0.65908 156.854 0.776806C156.95 0.894533 157.018 1.0328 157.053 1.1811C157.088 1.32941 157.09 1.48384 157.057 1.63268C157.024 1.78151 156.958 1.92082 156.863 2.04003C156.76 2.22874 156.625 2.39836 156.465 2.54166C156.067 2.90953 156.167 3.17706 156.465 3.4446C159.783 5.18359 162.736 6.98946 165.888 8.76189L166.684 9.29696C167.161 9.63386 167.71 9.85196 168.287 9.93334C168.864 10.0147 169.452 9.95709 170.002 9.76515C170.599 9.76515 171.263 9.76515 171.893 9.46418C172.524 9.1632 173.751 8.99599 174.68 8.86222L179.856 8.32714L184.999 7.95928C185.916 7.90912 186.835 7.90912 187.752 7.95928C188.681 7.95928 189.644 8.19338 190.573 8.26026C192.756 8.44284 194.884 9.04445 196.843 10.0327C197.324 10.1769 197.767 10.4292 198.137 10.7705C198.507 11.1119 198.796 11.5334 198.981 12.0034C199.166 12.4734 199.243 12.9796 199.206 13.484C199.169 13.9883 199.019 14.4777 198.768 14.9152C197.647 17.4926 196.304 19.9657 194.753 22.3059C193.336 24.6467 191.667 26.8225 189.776 28.7937ZM188.814 28.9609C191.04 26.3841 193.028 23.6081 194.753 20.6673C195.948 18.6273 196.943 16.4536 198.071 14.3133C198.328 13.8846 198.434 13.3815 198.374 12.8845C198.314 12.3874 198.091 11.925 197.739 11.571C197.212 11.0404 196.593 10.6099 195.914 10.3002C192.858 9.06876 189.582 8.48807 186.293 8.59468C183.837 8.59468 181.382 8.9291 178.894 9.12976C178.12 9.07977 177.345 9.07977 176.571 9.12976C175.211 9.33041 173.818 9.66483 172.457 9.93237C171.608 10.0398 170.767 10.1961 169.936 10.4006C169.523 10.5457 169.085 10.5999 168.65 10.5595C168.215 10.5191 167.793 10.3851 167.414 10.1665L157.925 4.84917C157.195 4.41442 156.399 4.08 155.669 3.64525C155.357 3.39333 155.068 3.1135 154.806 2.8092L155.636 2.14036C155.636 1.87282 156.1 1.57184 156.034 1.37119C155.975 1.13857 155.834 0.93601 155.636 0.802674C155.32 0.783921 155.01 0.892161 154.773 1.10365C154.36 1.52841 153.983 1.98703 153.645 2.47478C152.517 3.87935 151.522 5.31736 150.526 6.68848C150.22 7.12627 149.964 7.59744 149.763 8.09305C149.564 8.62812 149.763 8.89566 150.393 8.89566C150.952 8.8313 151.473 8.57808 151.871 8.17726C152.268 7.77644 152.519 7.25166 152.583 6.68848C152.568 6.4658 152.568 6.24233 152.583 6.01964C152.846 6.08316 153.101 6.17278 153.346 6.28718C153.711 6.55471 153.977 6.98946 154.342 7.257L159.219 10.6012C160.977 11.7717 162.769 12.9422 164.494 14.1461C165.321 14.6509 165.988 15.3814 166.419 16.2529L173.054 31.2015C173.386 31.8704 173.618 32.5727 173.917 33.2749C174.78 35.3818 175.609 37.4886 176.505 39.5621C176.837 40.3312 177.135 40.3981 177.832 40.0302C179.592 39.1169 181.115 37.7996 182.278 36.1844C183.406 34.5792 184.667 33.0743 185.928 31.6028C187.023 30.633 187.985 29.8304 188.814 28.9609Z" fill="white"/>
<path fill-rule="evenodd" clip-rule="evenodd" d="M184.7 15.0154C185.994 13.8449 187.288 12.6745 188.648 11.504C188.992 11.1661 189.404 10.9073 189.857 10.7457C190.309 10.584 190.791 10.5233 191.269 10.5676C191.383 10.5894 191.5 10.5825 191.61 10.5475C191.72 10.5124 191.819 10.4504 191.9 10.367C192.198 9.86534 192.464 9.93222 192.762 10.367C193.487 11.2541 194.496 11.8575 195.616 12.0725C196.91 12.3066 197.142 12.8417 196.611 14.0456C196.08 15.2495 195.516 16.4534 194.886 17.5905C194.583 18.066 194.239 18.5136 193.857 18.9281C193.298 19.6901 192.799 20.4952 192.364 21.336C190.588 24.8983 188.271 28.1592 185.496 31.0007C184.7 31.8702 183.705 32.5725 182.842 33.4086C181.979 34.2446 180.951 35.3148 180.022 36.2846C179.57 36.7349 179.094 37.1592 178.595 37.5554C178.481 37.6702 178.343 37.7575 178.191 37.8106C178.039 37.8636 177.877 37.8812 177.717 37.8619C177.557 37.8425 177.404 37.7868 177.269 37.699C177.134 37.6111 177.02 37.4934 176.936 37.3547C176.548 36.7226 176.257 36.0348 176.074 35.3148C175.845 34.4906 175.668 33.6529 175.543 32.8066C175.543 32.606 175.543 32.3384 175.543 32.2715C174.647 31.6696 175.244 30.9673 175.543 30.3319C176.061 28.0656 177.107 25.9563 178.595 24.1786C179.922 22.473 181.017 20.6002 182.212 18.8278L184.7 15.0154ZM193.393 18.3596C194.735 16.986 195.666 15.2591 196.08 13.3768C196.246 12.8082 195.782 12.6745 195.35 12.5407C194.6 12.2545 193.868 11.9194 193.161 11.5374C192.431 11.1027 192.331 11.1027 191.933 11.9387C191.535 12.7748 190.739 14.5807 190.075 15.8849C189.695 16.8074 189.193 17.6737 188.582 18.46C186.731 20.91 184.76 23.265 182.676 25.5162L177.832 30.0978C177.422 30.4283 177.034 30.7858 176.671 31.1679C176.42 31.4679 176.279 31.8458 176.273 32.2381C176.394 33.5135 176.616 34.7771 176.936 36.0171C177.268 37.221 178.197 37.3547 179.06 36.4518C179.922 35.5489 181.117 34.3115 182.178 33.1076C183.24 31.9037 184.302 31.2683 185.264 30.1981C188.136 27.2176 190.521 23.7976 192.331 20.0652C192.637 19.4147 192.992 18.7887 193.393 18.1924V18.3596ZM183.439 24.212C184.965 22.2724 185.961 20.8678 187.056 19.6639C188.834 17.3585 190.286 14.8148 191.369 12.106C191.601 11.6378 191.369 11.4037 190.904 11.504C190.422 11.597 189.961 11.7784 189.544 12.0391C186.698 13.9488 184.298 16.4591 182.51 19.3963C181.117 21.637 179.591 23.8441 178.031 26.0848C177.267 27.0848 176.694 28.2186 176.339 29.429C176.306 29.6507 176.306 29.8761 176.339 30.0978L176.903 29.8637C177.208 29.6785 177.486 29.4536 177.733 29.1949L183.439 24.212Z" fill="white"/>
<path fill-rule="evenodd" clip-rule="evenodd" d="M179.358 15.2162C179.591 15.5507 179.856 15.9854 180.088 16.3867L181.283 18.3932C181.295 18.5491 181.295 18.7056 181.283 18.8614C181.283 18.8614 180.918 18.8614 180.818 18.8614C180.523 18.6638 180.255 18.4276 180.022 18.1591C179.516 17.447 178.841 16.8747 178.058 16.4948C177.275 16.1149 176.41 15.9397 175.543 15.9854C174.261 16.0067 172.998 15.6712 171.893 15.0156C171.706 14.9112 171.538 14.7755 171.395 14.6143C171.377 14.4588 171.377 14.3016 171.395 14.1461C171.395 14.1461 171.76 13.9789 171.86 14.1461C172.993 14.5806 174.244 14.5806 175.377 14.1461C176.79 13.9938 178.208 14.3751 179.358 15.2162ZM178.861 15.6844L178.098 15.2497C177.038 14.8507 175.889 14.7581 174.78 14.9821C174.67 14.9587 174.557 14.9587 174.448 14.9821L174.846 15.2162C174.978 15.233 175.112 15.233 175.244 15.2162C176.51 15.0504 177.793 15.347 178.861 16.0523V15.6844Z" fill="white"/>
<path fill-rule="evenodd" clip-rule="evenodd" d="M184.335 11.2031C184.55 11.4799 184.667 11.8213 184.667 12.173C184.667 12.5246 184.55 12.8661 184.335 13.1428C184.242 13.2389 184.131 13.3152 184.009 13.3674C183.886 13.4195 183.755 13.4464 183.622 13.4464C183.489 13.4464 183.357 13.4195 183.235 13.3674C183.112 13.3152 183.001 13.2389 182.908 13.1428C182.707 12.8794 182.597 12.5559 182.597 12.2231C182.597 11.8903 182.707 11.5669 182.908 11.3035C183.087 11.1035 183.335 10.9812 183.602 10.9625C183.868 10.9438 184.131 11.0301 184.335 11.2031ZM184.003 11.6713C183.672 11.6713 183.406 11.6713 183.406 11.6713C183.39 11.9275 183.39 12.1844 183.406 12.4405C183.572 12.4405 183.837 12.4405 183.871 12.4405C183.904 12.4405 183.937 12.0392 184.003 11.6713Z" fill="white"/>
<path fill-rule="evenodd" clip-rule="evenodd" d="M167.912 12.7079C167.986 13.0155 167.986 13.3367 167.912 13.6443C167.912 13.8784 167.315 14.0456 166.983 14.1125C166.651 14.1794 166.585 13.9118 166.386 13.8115C166.526 13.652 166.682 13.5064 166.85 13.3767L167.182 13.0089C167.016 12.9932 166.85 12.9932 166.684 13.0089C166.684 13.0089 166.485 13.0089 166.386 13.0089L165.987 12.8417C165.987 12.8417 165.987 12.5073 166.286 12.4404C166.585 12.3735 167.281 12.1394 167.912 12.7079Z" fill="white"/>
<path fill-rule="evenodd" clip-rule="evenodd" d="M173.652 18.7945C174.282 18.0253 174.813 17.925 175.211 18.2928C175.438 18.5244 175.565 18.8368 175.565 19.1623C175.565 19.4878 175.438 19.8002 175.211 20.0318C174.949 20.1899 174.653 20.2817 174.348 20.2994C174.348 20.2994 174.216 20.0653 174.116 20.0653C174.172 19.959 174.251 19.8674 174.348 19.7977C174.514 19.7977 174.747 19.7977 174.846 19.5971C174.885 19.5133 174.905 19.422 174.905 19.3295C174.905 19.2371 174.885 19.1458 174.846 19.062C174.846 19.062 174.481 18.8614 174.315 18.8614C174.149 18.8614 174.083 18.8614 173.95 19.0955L173.353 19.4633C173.428 19.23 173.528 19.0057 173.652 18.7945Z" fill="white"/>
<path fill-rule="evenodd" clip-rule="evenodd" d="M175.543 23.4094C176.007 22.8744 176.671 22.774 176.87 23.1085C176.934 23.2383 176.968 23.3814 176.968 23.5265C176.968 23.6716 176.934 23.8147 176.87 23.9445C176.671 24.3458 175.908 24.513 175.675 24.2121C175.443 23.9111 175.709 23.4094 175.543 23.4094Z" fill="white"/>
</g>
<path fill-rule="evenodd" clip-rule="evenodd" d="M1135.31 448.842C1133.68 448.842 1133.71 448.842 1133.29 449.986L1129.03 461.734C1128.57 463.033 1128.07 464.331 1127.68 465.63C1127.62 465.831 1127.62 466.042 1127.67 466.245C1127.72 466.448 1127.82 466.639 1127.96 466.804C1128.19 466.968 1128.35 467.196 1128.41 467.45C1128.47 467.704 1128.42 467.968 1128.28 468.196C1127.86 469.123 1127.93 470.329 1126.33 470.545C1126.05 470.545 1125.76 470.947 1125.66 471.225C1125.24 472.111 1124.9 473.02 1124.63 473.946C1124.55 474.252 1124.4 474.54 1124.19 474.791C1123.97 475.042 1123.7 475.249 1123.38 475.399C1121.83 476.218 1120.5 477.323 1119.49 478.637C1118.48 479.951 1117.81 481.441 1117.53 483.004C1117.5 483.402 1117.56 483.801 1117.7 484.179C1117.8 484.381 1117.84 484.598 1117.83 484.816C1117.82 485.034 1117.76 485.248 1117.65 485.444C1117.54 485.639 1117.38 485.812 1117.19 485.951C1117 486.09 1116.77 486.192 1116.53 486.25C1116.34 486.322 1116.13 486.344 1115.93 486.316C1115.72 486.287 1115.53 486.208 1115.37 486.088C1115.22 485.969 1115.1 485.813 1115.04 485.639C1114.99 485.465 1114.99 485.281 1115.04 485.107C1115.1 484.873 1115.21 484.652 1115.36 484.457C1116.41 483.039 1116.94 481.381 1116.89 479.696C1116.89 478.552 1116.89 477.378 1117.14 476.234C1117.24 475.491 1117.45 474.764 1117.78 474.07C1118.34 472.709 1119.02 471.411 1119.55 470.051C1119.6 469.872 1119.61 469.686 1119.57 469.505C1119.54 469.324 1119.46 469.151 1119.34 468.999C1119.06 468.58 1118.93 468.093 1118.99 467.609C1119.05 467.125 1119.28 466.67 1119.66 466.31C1120.91 465.266 1121.71 463.88 1121.93 462.383C1122.78 458.859 1123.92 455.365 1125.02 451.841C1125.44 450.481 1125.98 449.12 1126.47 447.76C1126.57 447.579 1126.59 447.372 1126.51 447.181C1126.44 446.991 1126.29 446.833 1126.08 446.74C1125.63 446.547 1125.21 446.297 1124.84 445.998C1124.54 445.811 1124.33 445.533 1124.25 445.219C1124.17 444.905 1124.23 444.577 1124.41 444.298C1124.51 444.138 1124.64 443.998 1124.8 443.883C1124.96 443.769 1125.15 443.683 1125.35 443.632C1125.54 443.58 1125.75 443.563 1125.96 443.582C1126.16 443.6 1126.36 443.655 1126.54 443.741C1127.43 444.112 1127.61 443.741 1127.79 443.123C1128.64 441.144 1129.42 439.135 1130.27 437.156C1131.87 433.137 1133.64 429.303 1135.31 425.161C1135.47 424.743 1135.78 424.383 1136.2 424.136C1136.62 423.89 1137.12 423.772 1137.62 423.8C1139.21 423.652 1140.78 423.425 1142.34 423.12C1142.89 422.966 1143.48 422.96 1144.03 423.104C1144.58 423.247 1145.07 423.533 1145.43 423.924C1145.8 424.316 1146 424.808 1146 425.315C1146 425.823 1145.8 426.314 1145.43 426.706C1143.8 428.839 1142.38 431.082 1141.17 433.415C1139.78 435.85 1138.88 438.475 1138.51 441.175C1138.53 441.549 1138.7 441.906 1138.97 442.195C1139.5 442.968 1139.32 443.556 1138.29 443.679C1137.64 443.772 1136.97 443.685 1136.38 443.432C1135.74 443.154 1135.67 443.432 1135.52 443.741L1135.1 444.916C1134.78 445.998 1134.78 445.998 1135.92 446.585C1137.05 447.173 1137.41 447.698 1137.12 448.131C1136.84 448.564 1135.81 448.811 1135.31 448.842ZM1141.42 427.448L1142.2 426.212H1141.99C1141.77 426.614 1141.6 427.016 1141.42 427.418C1141.24 427.819 1141.42 427.418 1141.2 427.572C1140.99 427.727 1141.2 427.85 1141.2 427.974C1141.31 427.851 1141.39 427.715 1141.45 427.572C1141.45 427.572 1141.38 427.541 1141.42 427.448ZM1135.1 448.069L1135.63 447.76C1135.54 447.635 1135.42 447.53 1135.28 447.451L1134.81 447.235C1133.57 446.647 1133.5 446.369 1134 445.194C1134.39 444.349 1134.71 443.481 1134.96 442.597C1136.16 437.96 1138.08 433.508 1139.78 428.994C1140.18 427.943 1140.53 426.861 1140.81 425.903C1140.84 425.735 1140.82 425.565 1140.76 425.404C1140.69 425.244 1140.59 425.097 1140.46 424.975C1140.09 424.76 1139.67 424.615 1139.23 424.549C1138.79 424.482 1138.34 424.496 1137.9 424.589C1137.47 424.682 1137.06 424.852 1136.71 425.089C1136.35 425.325 1136.06 425.624 1135.84 425.964C1135.51 426.538 1135.22 427.126 1134.96 427.727L1128.92 442.474C1128.54 443.371 1128.1 444.248 1127.61 445.101C1127.4 445.534 1126.97 445.689 1126.51 445.287C1126.05 444.885 1126.26 444.761 1126.12 444.761C1125.87 444.731 1125.62 444.731 1125.37 444.761C1125.37 444.947 1125.37 445.194 1125.37 445.287C1125.91 445.593 1126.48 445.852 1127.08 446.06L1132.47 447.42L1135.1 448.069ZM1125.59 466.402C1126.4 466.402 1126.65 466.001 1126.86 465.444C1128.25 461.549 1129.67 457.622 1131.09 453.696C1131.55 452.398 1132.08 451.13 1132.54 449.832C1133 448.533 1132.76 448.471 1131.44 448.1L1129.74 447.637C1128.03 447.235 1127.54 447.451 1126.9 448.873C1126.77 449.166 1126.66 449.465 1126.58 449.77C1125.8 452.119 1124.91 454.438 1124.24 456.788C1123.56 459.137 1122.96 461.858 1122.32 464.393C1122.26 464.524 1122.23 464.666 1122.24 464.807C1122.25 464.948 1122.3 465.086 1122.38 465.21C1122.45 465.334 1122.56 465.442 1122.69 465.525C1122.83 465.608 1122.98 465.665 1123.14 465.691L1125.59 466.402ZM1136.63 440.526C1136.63 441.268 1136.94 441.979 1137.12 442.659C1137.12 442.659 1137.12 442.659 1137.41 442.875C1137.69 443.092 1137.41 442.69 1137.41 442.597C1137.41 441.824 1137.41 441.082 1137.41 440.34C1138.09 437.081 1139.39 433.945 1141.28 431.066C1142.13 429.613 1143.16 428.252 1144.08 426.83C1144.46 426.484 1144.77 426.087 1145 425.655C1145.08 425.37 1145.07 425.072 1144.96 424.793C1144.86 424.514 1144.68 424.264 1144.43 424.068C1144.18 423.872 1143.87 423.738 1143.54 423.681C1143.21 423.623 1142.87 423.643 1142.55 423.739C1142.35 423.804 1142.17 423.912 1142.03 424.052C1141.89 424.192 1141.79 424.36 1141.74 424.542C1141.74 425.037 1142.2 425.068 1142.73 425.099C1143.26 425.13 1143.87 425.346 1143.41 426.088C1142.94 426.83 1142.38 427.418 1142.02 428.129C1139.98 431.837 1138.24 435.671 1136.84 439.598C1136.73 439.908 1136.7 440.217 1136.63 440.526ZM1119.09 477.78L1119.73 477.254C1120.73 476.192 1121.93 475.283 1123.28 474.564C1123.64 474.329 1123.89 473.989 1123.99 473.606C1124.38 472.709 1124.66 471.813 1125.02 470.885C1125.37 469.958 1125.02 469.741 1124.59 469.587C1124.17 469.432 1123.53 469.865 1123.38 470.329C1123.04 471.343 1122.78 472.376 1122.6 473.42C1122.6 474.286 1122.11 474.719 1121.29 474.626C1120.47 474.533 1119.91 475.059 1119.69 475.739C1119.48 476.419 1119.34 476.821 1119.16 477.347C1119.11 477.488 1119.09 477.633 1119.09 477.78ZM1117.85 476.357C1117.94 476.578 1118.05 476.795 1118.17 477.007L1118.49 476.512C1119.09 475.244 1119.66 473.946 1120.3 472.678C1120.42 472.421 1120.63 472.205 1120.9 472.06C1122.07 471.596 1122.14 470.638 1122.35 469.772C1122.57 468.907 1122.07 468.876 1121.5 469.154C1121.04 469.382 1120.67 469.742 1120.47 470.174C1119.9 471.716 1119.19 473.216 1118.34 474.657C1118.07 475.195 1117.9 475.77 1117.85 476.357ZM1125.98 467.608C1125.98 467.608 1125.62 467.206 1125.34 467.144C1124.57 466.854 1123.79 466.606 1122.99 466.402C1122.87 466.347 1122.73 466.319 1122.59 466.32C1122.45 466.321 1122.31 466.352 1122.18 466.41C1122.06 466.467 1121.95 466.55 1121.87 466.651C1121.79 466.752 1121.73 466.868 1121.72 466.99C1121.5 467.577 1121.72 467.856 1122.46 468.01L1124.84 468.567C1125.51 468.814 1125.98 468.474 1125.98 467.608ZM1116.39 484.334C1116.18 484.612 1115.97 484.797 1115.97 484.983C1115.97 485.168 1116.32 485.354 1116.46 485.323C1116.58 485.296 1116.68 485.241 1116.76 485.164C1116.85 485.088 1116.9 484.993 1116.92 484.89C1116.92 484.736 1116.64 484.55 1116.39 484.334ZM1120.37 466.897H1120.58H1120.37Z" fill="white"/>
<g clip-path="url(#clip6_231_2612)">
<path fill-rule="evenodd" clip-rule="evenodd" d="M1305.86 638.643C1305.45 638.527 1305.07 638.326 1304.74 638.054C1304.41 637.781 1304.13 637.443 1303.94 637.061C1303.75 636.678 1303.63 636.26 1303.61 635.831C1303.58 635.403 1303.65 634.974 1303.8 634.571C1304.12 633.286 1304.12 633.286 1302.91 633.357C1298.99 633.577 1295.06 633.068 1291.32 631.857C1289.65 631.357 1288.05 630.679 1286.41 630.036C1285.91 630.036 1285.51 629.821 1285.27 630.321C1284.13 632.643 1282.31 632.536 1280.21 631.929C1279.17 631.689 1278.27 631.064 1277.67 630.179C1277.01 629.446 1276.52 628.577 1276.23 627.633C1275.94 626.689 1275.86 625.692 1276 624.714C1276.14 623.995 1276.49 623.336 1277.01 622.825C1277.54 622.314 1278.2 621.976 1278.92 621.857C1279.99 621.643 1279.99 621.607 1279.63 620.536C1278.68 617.834 1278.24 614.973 1278.35 612.107C1278.66 607.661 1280.47 603.453 1283.48 600.179L1284.13 599.464C1285.59 597.929 1285.59 597.929 1284.55 596.214C1284.23 595.679 1283.84 595.464 1283.31 595.786C1282.51 596.232 1281.73 596.721 1280.99 597.25C1280.31 597.75 1279.71 598.321 1279.06 598.821C1278.42 599.321 1278.67 598.821 1278.46 598.821C1278.44 598.655 1278.44 598.488 1278.46 598.321C1278.46 597.714 1278.71 597.071 1278.85 596.464C1279.17 595.027 1279.81 593.683 1280.73 592.536C1281.65 591.39 1282.83 590.473 1284.16 589.857C1285.16 589.258 1286.31 588.96 1287.47 589C1287.79 588.945 1288.12 588.945 1288.44 589C1288.97 589.321 1289.68 589.607 1289.9 590.071C1290.11 590.536 1289.51 591.25 1289.01 591.607C1288.51 591.964 1287.01 592.929 1286.05 593.643C1285.09 594.357 1284.77 594.286 1285.16 595C1285.55 595.714 1286.23 595 1286.76 595C1289.17 594.114 1291.62 593.352 1294.1 592.714C1297.66 591.932 1301.36 592.167 1304.79 593.393C1309.04 595.118 1312.58 598.226 1314.84 602.214L1316.77 605.286C1317.02 605.714 1317.23 606.107 1317.8 605.786C1318.37 605.464 1318.83 605.25 1318.55 604.536C1318.26 603.821 1317.87 603 1317.55 602.214C1317.23 601.429 1317.23 600.929 1318.23 600.571C1319.2 600.141 1320.3 600.105 1321.3 600.471C1322.29 600.838 1323.11 601.578 1323.57 602.536C1324.24 603.459 1324.66 604.537 1324.8 605.667C1324.93 606.797 1324.78 607.944 1324.36 609C1323.8 610.105 1323.09 611.127 1322.26 612.036C1321.86 612.5 1321.51 612.036 1321.29 611.429C1320.87 610.036 1320.4 608.643 1319.94 607.25V607C1319.65 606.536 1319.33 606.143 1318.73 606.429C1318.12 606.714 1318.02 607.036 1318.09 607.643C1318.39 610.48 1318.39 613.341 1318.09 616.179C1317.68 618.772 1316.82 621.275 1315.56 623.571C1314.61 625.691 1313.28 627.617 1311.64 629.25C1311.1 629.75 1310.96 630.179 1311.64 630.75C1311.94 631.102 1312.18 631.5 1312.35 631.929C1312.86 632.786 1313.07 633.793 1312.94 634.785C1312.81 635.778 1312.35 636.697 1311.64 637.393C1310.91 638.151 1309.97 638.674 1308.94 638.896C1307.91 639.119 1306.84 639.031 1305.86 638.643ZM1280.53 605.929C1279.99 607.818 1279.56 609.738 1279.24 611.679C1278.95 617.312 1280.77 622.851 1284.34 627.214C1285.57 628.726 1287.24 629.822 1289.11 630.357C1290.86 630.893 1292.68 631.321 1294.46 631.714C1298.4 632.884 1302.61 632.796 1306.5 631.464C1308.3 630.718 1309.95 629.64 1311.35 628.286C1313.18 626.336 1314.66 624.09 1315.73 621.643C1316.76 619.776 1317.34 617.699 1317.45 615.571C1317.45 613.393 1317.45 611.179 1317.45 608.964C1317.42 608.51 1317.29 608.069 1317.05 607.679C1316.2 606.071 1315.31 604.536 1314.45 602.964C1313.32 600.994 1311.86 599.231 1310.14 597.75C1308.24 596.092 1306 594.873 1303.58 594.179C1300.5 593.22 1297.22 593.073 1294.07 593.75C1291.74 594.342 1289.48 595.143 1287.3 596.143C1286.23 596.536 1286.26 596.643 1286.8 597.643C1287.01 598.071 1287.26 598.607 1286.8 598.786C1285.83 599.136 1285.02 599.803 1284.48 600.679C1283.13 602.321 1281.74 604.214 1280.53 605.929ZM1279.81 630.929C1280.78 631.143 1281.56 631.357 1282.38 631.464C1283.2 631.571 1283.91 630.821 1284.37 630.071C1284.55 629.787 1284.61 629.447 1284.56 629.117C1284.5 628.787 1284.32 628.491 1284.05 628.286C1282.85 626.961 1281.89 625.439 1281.2 623.786C1281.09 623.466 1280.9 623.179 1280.65 622.954C1280.4 622.729 1280.09 622.574 1279.76 622.502C1279.43 622.43 1279.09 622.445 1278.77 622.544C1278.45 622.644 1278.16 622.826 1277.92 623.071C1277.49 623.379 1277.16 623.806 1276.96 624.3C1276.76 624.795 1276.72 625.335 1276.82 625.857C1277.01 627.278 1277.58 628.621 1278.46 629.75C1278.87 630.197 1279.32 630.603 1279.81 630.964V630.929ZM1304.76 634C1304.19 635.429 1304.33 636.643 1305.22 637.286C1305.84 637.67 1306.53 637.914 1307.25 638C1307.99 638.125 1308.75 638.038 1309.43 637.746C1310.12 637.455 1310.71 636.973 1311.14 636.357C1311.61 635.787 1311.91 635.094 1311.99 634.359C1312.08 633.625 1311.96 632.88 1311.64 632.214C1311.57 631.964 1311.45 631.733 1311.28 631.54C1311.11 631.348 1310.89 631.199 1310.65 631.108C1310.41 631.017 1310.15 630.986 1309.89 631.017C1309.64 631.048 1309.39 631.14 1309.18 631.286C1308.29 631.679 1307.43 632.071 1306.5 632.429C1306.12 632.539 1305.78 632.745 1305.5 633.026C1305.22 633.307 1305.01 633.654 1304.9 634.036L1304.76 634ZM1323.61 609C1324.07 607.69 1324.09 606.264 1323.66 604.942C1323.24 603.62 1322.39 602.474 1321.26 601.679C1320.71 601.474 1320.13 601.377 1319.55 601.393C1318.83 601.393 1318.44 601.857 1318.69 602.607C1318.95 603.39 1319.26 604.153 1319.62 604.893C1320.26 606.321 1320.94 607.714 1321.61 609.143C1321.83 609.607 1322.04 610.107 1322.22 610.571C1322.65 610.179 1323.04 609.75 1323.43 609.321C1323.57 609.22 1323.68 609.085 1323.75 608.929L1323.61 609ZM1279.74 595.679C1279.67 595.829 1279.61 595.984 1279.56 596.143C1279.55 596.393 1279.55 596.643 1279.56 596.893C1279.81 596.835 1280.05 596.739 1280.28 596.607L1281.84 595.5L1288.33 591.107C1288.54 591.107 1288.83 590.536 1288.76 590.393C1288.68 590.252 1288.57 590.134 1288.43 590.053C1288.29 589.971 1288.13 589.928 1287.97 589.929C1287.07 589.908 1286.17 590.016 1285.3 590.25C1284.04 590.698 1282.89 591.416 1281.93 592.353C1280.97 593.29 1280.22 594.425 1279.74 595.679Z" fill="white"/>
<path fill-rule="evenodd" clip-rule="evenodd" d="M1312.56 617.143C1311.23 620.075 1309.08 622.557 1306.36 624.286C1304.08 625.76 1301.45 626.587 1298.74 626.679C1296.12 626.75 1293.5 626.535 1290.93 626.036C1289.87 625.731 1288.92 625.108 1288.22 624.25C1286.75 622.476 1285.41 620.589 1284.23 618.607C1283.24 617.026 1282.62 615.244 1282.4 613.391C1282.19 611.538 1282.39 609.66 1282.98 607.893C1283.87 605.845 1285.07 603.952 1286.55 602.286C1287.88 600.445 1289.73 599.041 1291.86 598.25C1292.25 598.123 1292.6 597.902 1292.89 597.607C1293.87 596.557 1295.12 595.789 1296.5 595.381C1297.88 594.973 1299.34 594.94 1300.73 595.286C1303.53 595.714 1306.15 596.957 1308.25 598.862C1310.36 600.767 1311.86 603.249 1312.56 606C1313.63 608.967 1313.81 612.18 1313.1 615.25C1312.92 615.857 1312.74 616.536 1312.56 617.143ZM1284.05 607.179C1283.07 609.813 1282.98 612.703 1283.8 615.393C1284.67 617.871 1285.96 620.18 1287.62 622.214C1288.42 623.338 1289.5 624.238 1290.74 624.831C1291.99 625.425 1293.37 625.692 1294.74 625.607C1295.39 625.554 1296.03 625.554 1296.67 625.607C1298.09 625.766 1299.53 625.718 1300.95 625.464C1302.77 625.043 1304.5 624.279 1306.04 623.214C1308.04 622.019 1309.7 620.317 1310.83 618.28C1311.97 616.243 1312.56 613.942 1312.53 611.607C1312.59 609.547 1312.28 607.492 1311.64 605.536C1310.69 602.548 1308.69 600.008 1306.01 598.393L1303.94 597.286C1302.78 596.669 1301.5 596.297 1300.19 596.193C1298.88 596.089 1297.56 596.254 1296.31 596.679C1296.1 596.679 1295.81 596.679 1295.78 597C1295.35 598.25 1294.21 598.5 1293.21 598.893C1291.11 599.565 1289.22 600.8 1287.76 602.464C1286.37 603.964 1285.23 605.607 1284.05 607.179Z" fill="white"/>
<path fill-rule="evenodd" clip-rule="evenodd" d="M1290.25 612.429V613.321H1291.18C1293.21 612.786 1295.24 612.321 1297.38 611.786C1297.56 611.72 1297.72 611.615 1297.86 611.479C1298 611.344 1298.1 611.18 1298.17 611C1298.43 610.12 1298.64 609.226 1298.81 608.321C1298.81 607.821 1299.2 607.107 1298.17 607.25C1298.17 607.25 1297.92 606.714 1298.17 606.679C1298.9 605.987 1299.67 605.343 1300.48 604.75C1300.64 604.671 1300.81 604.631 1300.98 604.631C1301.15 604.631 1301.33 604.671 1301.48 604.75C1301.81 605.109 1302.06 605.532 1302.22 605.993C1302.38 606.454 1302.44 606.942 1302.41 607.429C1302.41 607.429 1302.23 607.714 1302.09 607.786C1301.94 607.857 1301.8 607.786 1301.73 607.786C1301.66 607.786 1301.12 607.036 1300.95 606.857C1300.8 606.646 1300.65 606.444 1300.48 606.25C1300.24 606.425 1300.03 606.629 1299.84 606.857C1299.74 607.121 1299.68 607.398 1299.66 607.679C1299.38 609.107 1299.09 610.571 1298.84 612C1298.84 612.714 1298.42 612.929 1297.74 612.893C1295.29 612.986 1292.88 613.505 1290.61 614.429C1289.76 614.679 1289.79 614.893 1290.61 615.536C1291.43 616.179 1291.47 616.25 1291.82 616.643C1292.18 617.036 1291.82 617.071 1291.82 617.25C1291.82 617.429 1291.32 617.25 1291.22 617.25C1290.25 616.393 1289.29 615.536 1288.44 614.607C1288.44 614.607 1288.44 613.821 1288.44 613.5C1288.85 612.832 1289.31 612.199 1289.83 611.607C1290.01 611.413 1290.23 611.255 1290.47 611.143C1290.49 611.428 1290.49 611.714 1290.47 612C1290.47 612 1290.47 612.321 1290.25 612.5V612.429Z" fill="white"/>
<path fill-rule="evenodd" clip-rule="evenodd" d="M1288.01 607.5C1287.26 608.75 1286.76 609.714 1286.12 610.607C1285.82 610.861 1285.44 610.989 1285.05 610.964C1284.8 610.964 1284.52 610.714 1284.27 610.572C1284.46 610.419 1284.68 610.298 1284.91 610.214C1285.69 609.893 1285.8 609.679 1285.34 608.893C1285.11 608.608 1284.97 608.264 1284.94 607.902C1284.91 607.54 1284.99 607.177 1285.16 606.857C1285.27 606.626 1285.43 606.424 1285.64 606.271C1285.84 606.118 1286.08 606.018 1286.34 605.979C1286.59 605.94 1286.85 605.964 1287.09 606.049C1287.33 606.134 1287.55 606.276 1287.72 606.464C1287.9 606.784 1287.99 607.138 1288.01 607.5ZM1286.26 607.5L1286.01 607.214C1286.01 607.214 1285.84 607.214 1285.84 607.393C1285.82 607.512 1285.82 607.631 1285.84 607.75L1286.26 607.5Z" fill="white"/>
<path fill-rule="evenodd" clip-rule="evenodd" d="M1307.86 616.607C1307.77 616.496 1307.66 616.399 1307.54 616.322C1307.7 616.194 1307.88 616.086 1308.07 616C1308.07 616 1308.43 616 1308.61 616C1308.81 615.914 1309 615.807 1309.18 615.679C1309.18 615.679 1308.96 615.286 1308.82 615.179C1308.59 615.03 1308.34 614.921 1308.07 614.857C1307.54 614.857 1307.4 614.393 1307.79 613.964C1308.18 613.536 1308.04 613.393 1307.57 613.143C1307.11 612.893 1307.36 612.607 1307.57 612.429C1307.74 612.346 1307.92 612.308 1308.1 612.319C1308.28 612.33 1308.46 612.39 1308.61 612.491C1308.77 612.593 1308.89 612.733 1308.97 612.898C1309.05 613.063 1309.08 613.246 1309.07 613.429C1309.04 613.769 1309.13 614.109 1309.32 614.393C1310.1 615.322 1310.32 615.822 1309.89 616.393C1309.46 616.964 1308.68 616.786 1307.86 616.607Z" fill="white"/>
<path fill-rule="evenodd" clip-rule="evenodd" d="M1296.7 620.036C1296.7 620.357 1296.7 620.643 1296.7 620.821C1296.7 621 1296.24 621.143 1296.06 621.143C1295.35 621.679 1295.39 622 1296.06 622.536C1296.74 623.071 1296.88 623.536 1296.49 624.143C1296.4 624.298 1296.26 624.426 1296.1 624.515C1295.94 624.603 1295.76 624.65 1295.58 624.65C1295.4 624.65 1295.22 624.603 1295.06 624.515C1294.9 624.426 1294.77 624.298 1294.67 624.143C1294.37 623.433 1294.34 622.638 1294.57 621.904C1294.81 621.169 1295.3 620.544 1295.96 620.143C1296.2 620.091 1296.45 620.056 1296.7 620.036ZM1295.56 623.607C1295.56 623.607 1295.56 623.607 1295.78 623.607C1295.99 623.607 1295.78 623.607 1295.78 623.393H1295.49L1295.56 623.607Z" fill="white"/>
<path fill-rule="evenodd" clip-rule="evenodd" d="M1302.98 602.286C1302.23 601.964 1302.16 601.643 1302.69 601.25C1303.23 600.857 1303.62 600.107 1302.69 599.5V598.964C1302.84 598.723 1303.07 598.549 1303.35 598.483C1303.62 598.416 1303.91 598.46 1304.15 598.607C1304.39 598.754 1304.57 598.991 1304.63 599.265C1304.7 599.54 1304.66 599.83 1304.51 600.071C1304.3 601 1304.51 601.714 1305.36 602.036C1305.44 602.137 1305.52 602.245 1305.58 602.357C1305.58 602.357 1305.29 602.571 1305.15 602.571L1302.98 602.286Z" fill="white"/>
<path fill-rule="evenodd" clip-rule="evenodd" d="M1300.95 599.714L1301.52 599.25C1301.52 599.464 1301.77 599.679 1301.73 599.821C1301.52 600.357 1301.26 600.872 1300.95 601.357H1300.62C1300.69 600.802 1300.8 600.253 1300.95 599.714Z" fill="white"/>
</g>
<path fill-rule="evenodd" clip-rule="evenodd" d="M324.983 518.476C325.543 520.116 325.612 521.853 325.182 523.522C324.752 525.192 323.839 526.738 322.528 528.015C321.362 528.946 319.952 529.617 318.421 529.968C316.89 530.32 315.283 530.343 313.74 530.035C313.74 530.035 313.094 529.699 313.094 529.474C313.094 529.25 313.094 528.913 313.611 528.913C314.591 528.742 315.584 528.63 316.583 528.576C317.577 528.549 318.554 528.346 319.454 527.98C320.354 527.613 321.159 527.09 321.818 526.444C322.478 525.798 322.978 525.041 323.289 524.221C323.6 523.401 323.715 522.534 323.626 521.674C323.626 521.057 323.626 520.496 323.626 519.935C323.659 518.877 323.318 517.837 322.647 516.953C321.977 516.07 321.01 515.387 319.878 514.997C318.708 514.474 317.381 514.275 316.076 514.425C314.771 514.576 313.55 515.069 312.577 515.838C311.155 516.905 309.992 518.251 308.635 519.374C308.008 519.8 307.338 520.176 306.632 520.496C306.569 519.88 306.569 519.26 306.632 518.644C306.632 517.073 306.632 515.502 306.632 513.874C306.632 512.247 304.112 510.844 301.527 512.247C300.435 512.823 299.552 513.655 298.98 514.648C298.408 515.641 298.171 516.754 298.296 517.858C298.296 518.812 298.296 519.71 298.619 520.664C298.639 520.907 298.639 521.151 298.619 521.394C298.619 521.394 297.973 521.394 297.844 520.889C297.095 519.508 296.836 517.964 297.101 516.455C297.366 514.946 298.142 513.54 299.33 512.415C300.151 511.703 301.087 511.098 302.109 510.62C302.544 510.349 303.05 510.176 303.581 510.117C304.112 510.057 304.652 510.114 305.152 510.281C305.651 510.448 306.096 510.72 306.444 511.073C306.793 511.426 307.035 511.849 307.149 512.303C307.416 513.207 307.611 514.126 307.73 515.053C307.73 515.726 308.053 516.399 308.247 517.073L309.992 515.894C311.049 515.103 312.196 514.407 313.417 513.818C314.516 513.362 315.717 513.122 316.935 513.116C318.153 513.11 319.357 513.338 320.462 513.783C321.567 514.228 322.546 514.879 323.327 515.69C324.109 516.502 324.674 517.453 324.983 518.476Z" fill="white"/>
<path fill-rule="evenodd" clip-rule="evenodd" d="M990.327 166.459C987.096 166.459 983.865 166.964 980.634 166.964C978.085 166.905 975.54 166.737 973.009 166.459C972.622 166.459 972.234 166.01 971.911 165.73C971.588 165.449 972.751 165.224 973.074 165.281C978.963 165.89 984.92 165.795 990.779 165C991.619 165 992.459 165 993.235 165C993.754 165.11 994.254 165.279 994.721 165.505C994.721 165.898 994.269 166.403 993.816 166.627L985.481 171.453L968.745 180.768C968.745 180.768 968.745 180.768 968.357 180.768H967C967 180.376 967 179.871 967.452 179.646C968.117 179.094 968.83 178.588 969.585 178.131L985.933 168.984C987.355 168.142 988.712 167.188 990.069 166.291L990.327 166.459Z" fill="white"/>
<g clip-path="url(#clip7_231_2612)">
<path fill-rule="evenodd" clip-rule="evenodd" d="M677.502 34.1542C676.43 34.856 675.898 34.8798 675.157 34.2211C674.415 33.5624 674.654 33.0134 674.964 31.9749C675.273 30.9364 676.053 30.5852 676.564 29.7525C677.763 27.9943 678.81 26.1178 680.117 24.5012C681.599 22.5741 683.754 21.2468 686.182 20.7645C687.094 20.5987 688.01 20.5436 688.922 20.3778C689.559 20.2457 690.221 20.2599 690.856 20.4194C691.491 20.5788 692.081 20.8791 692.582 21.2968C693.082 21.7144 693.478 22.2381 693.739 22.8268C694.001 23.4155 694.12 24.0532 694.087 24.69C694.315 27.0859 693.721 29.4755 692.4 31.4825C690.926 34.0345 689.65 36.6815 688.245 39.254C687.213 41.2078 686.151 43.0071 685.05 44.9404C683.797 46.9977 682.06 48.7295 679.98 49.995C679.594 50.3391 679.128 50.5876 678.621 50.7202C678.114 50.8529 677.581 50.8658 677.064 50.7581C676.547 50.6503 676.062 50.4248 675.649 50.1002C675.235 49.7755 674.904 49.3609 674.684 48.8902C673.937 47.7875 673.486 46.5223 673.371 45.2125C673.257 43.9027 673.483 42.5909 674.029 41.3994C675.123 38.9896 676.32 36.6105 677.482 34.2212C677.562 33.9532 677.642 33.6852 677.894 33.4685C678.538 32.5662 679.157 31.6201 679.88 30.7048C680.781 29.4596 681.982 28.4528 683.38 27.772C683.959 27.5071 684.603 27.4004 685.244 27.4632C685.886 27.5259 686.5 27.7559 687.024 28.1289C687.992 28.7822 687.938 29.9699 687.786 30.9824C687.712 31.4808 687.568 31.9656 687.356 32.423C687.107 33.2605 686.572 34.0493 686.115 34.8252C684.867 36.4959 683.85 38.2719 682.804 39.8935C682.654 40.396 682.174 40.8731 681.461 40.6239C681.252 40.5533 681.059 40.4408 680.895 40.2936C680.732 40.1464 680.601 39.9678 680.512 39.7693C680.423 39.5708 680.377 39.3568 680.377 39.1412C680.377 38.9256 680.424 38.7132 680.514 38.5176C681.521 36.7751 682.597 35.0531 683.614 33.277C683.834 32.54 684.315 31.8079 684.648 31.0682C684.661 30.8205 684.647 30.5719 684.606 30.3263C684.318 30.4021 684.038 30.5015 683.768 30.6234C683.618 30.7273 683.498 30.8676 683.421 31.0308C682.475 32.3173 681.519 33.6373 680.597 34.9676C679.095 37.4942 677.783 40.1267 676.674 42.8444C676.395 43.3404 676.318 43.9233 676.458 44.4782C676.598 45.0332 676.945 45.5199 677.43 45.8423C677.899 46.1493 678.461 46.2879 679.018 46.2342C679.575 46.1804 680.093 45.9377 680.481 45.548C681.244 44.8487 681.91 44.0538 682.461 43.1836C684.604 39.518 686.712 35.8422 688.786 32.1561C689.546 30.873 690.198 29.53 690.733 28.1404C691.094 27.2124 691.262 26.2212 691.228 25.2237C691.22 24.7492 691.091 24.2824 690.852 23.8659C690.614 23.4493 690.272 23.0964 689.86 22.8393C689.448 22.5822 688.978 22.4291 688.494 22.3941C688.009 22.3592 687.525 22.4433 687.086 22.639C686.242 23.0089 685.463 23.5022 684.774 24.1021C682.989 25.6361 681.364 27.3383 679.921 29.1848C678.951 30.4307 678.267 31.8681 677.914 33.4015L677.502 34.1542ZM681.534 45.789C681.474 45.99 681.163 46.1527 680.921 46.3358C680.36 46.789 679.673 47.0701 678.944 47.1446C678.216 47.219 677.478 47.0836 676.821 46.7549C676.145 46.355 675.652 45.7157 675.446 44.9731C675.24 44.2305 675.338 43.4432 675.718 42.7785C676.118 41.4385 676.921 40.2552 677.389 38.9357C678.86 35.8351 680.732 32.9365 682.961 30.31C683.659 29.3509 684.621 29.0176 685.177 29.2927C685.732 29.5677 685.916 30.4614 685.265 31.7631C684.207 33.9282 683.012 36.0522 681.925 38.0627C681.845 38.3307 681.765 38.5987 681.695 38.8332C681.625 39.0677 681.615 39.1012 681.816 39.3071C682.017 39.513 682.161 39.4098 682.309 39.1623C682.452 38.9918 682.581 38.8108 682.696 38.6209C683.697 37.0227 684.693 35.5687 685.612 33.8726C686.024 32.8801 686.343 31.852 686.565 30.8008C686.707 30.4391 686.724 30.04 686.613 29.6644C686.501 29.2887 686.268 28.9571 685.948 28.7199C685.568 28.4553 685.117 28.3062 684.654 28.2915C684.191 28.2769 683.736 28.3974 683.347 28.6377C681.981 29.3652 680.86 30.461 680.117 31.7968C678.53 34.6065 676.952 37.3827 675.571 40.254C674.425 42.4368 674.191 44.9797 674.917 47.3546C674.996 47.8036 675.186 48.2284 675.472 48.5914C675.757 48.9544 676.129 49.2445 676.554 49.436C676.978 49.6276 677.443 49.7147 677.907 49.6896C678.371 49.6646 678.82 49.5282 679.214 49.2925C680.644 48.3018 681.945 47.1468 683.09 45.8518C684.254 44.3648 685.279 42.7784 686.154 41.111C687.97 37.7859 689.589 34.6207 691.514 31.182C692.487 29.5554 693.035 27.7156 693.112 25.8219C693.222 25.0835 693.148 24.3273 692.896 23.6173C692.645 22.9073 692.222 22.2644 691.666 21.7428C691.201 21.5115 690.7 21.362 690.185 21.3013L690.865 22.4161L691.243 22.7841C691.624 23.1797 691.908 23.6547 692.073 24.172C692.237 24.6892 692.278 25.2348 692.191 25.7662C692.018 27.4748 691.524 29.1327 690.733 30.6573C688.639 34.4104 686.614 38.184 684.451 41.9166C683.853 43.4312 682.874 44.7695 681.603 45.8096L681.534 45.789ZM682.98 24.3333L683.221 24.4052L685.605 22.1975C685.605 22.1975 685.674 21.963 685.704 21.8625C685.734 21.762 685.518 21.7339 685.498 21.8009C685.142 21.8898 684.794 22.0056 684.457 22.1472C682.243 23.2574 680.423 24.9861 679.225 27.1169C678.209 28.6379 677.296 30.1897 676.353 31.842C676.19 32.2051 676.076 32.5879 676.014 32.981C676.056 33.1906 676.172 33.38 676.342 33.5165C676.516 33.4983 676.675 33.4151 676.786 33.2842C676.896 32.9157 677.016 32.5137 677.126 32.1452C677.628 31.0605 678.216 30.0161 678.882 29.021C680.106 27.3066 681.713 25.8159 683.089 24.2198L682.98 24.3333Z" fill="white"/>
</g>
</g>
<defs>
<clipPath id="clip0_231_2612">
<rect width="43" height="48" fill="white" transform="translate(1002 316)"/>
</clipPath>
<clipPath id="clip1_231_2612">
<rect width="52" height="64" fill="white" transform="translate(44 241)"/>
</clipPath>
<clipPath id="clip2_231_2612">
<rect width="37" height="63" fill="white" transform="translate(318 266)"/>
</clipPath>
<clipPath id="clip3_231_2612">
<rect width="12" height="70" fill="white" transform="translate(1330 252)"/>
</clipPath>
<clipPath id="clip4_231_2612">
<rect width="69" height="44" fill="white" transform="translate(300 661)"/>
</clipPath>
<clipPath id="clip5_231_2612">
<rect width="50" height="41" fill="white" transform="translate(149)"/>
</clipPath>
<clipPath id="clip6_231_2612">
<rect width="49" height="50" fill="white" transform="translate(1276 589)"/>
</clipPath>
<clipPath id="clip7_231_2612">
<rect width="17" height="33" fill="white" transform="translate(679.428 17) rotate(16.6009)"/>
</clipPath>
</defs>
</svg>
