<svg width="1413" height="776" viewBox="0 0 1413 776" fill="none" xmlns="http://www.w3.org/2000/svg">
<g opacity="0.36">
<path d="M139.681 470.085C139.962 474.295 140.243 478.505 140.523 482.715C141.646 488.89 147.4 491.977 157.784 491.977C172.098 491.977 182.343 487.065 188.517 477.242C176.449 472.471 160.17 470.085 139.681 470.085ZM131.261 567.336H178.834C177.15 559.197 169.572 552.882 156.1 548.391C148.242 545.865 139.541 545.584 129.998 547.549C133.366 548.952 135.331 551.759 135.892 555.969C136.454 560.74 134.91 564.529 131.261 567.336ZM116.526 504.186C111.474 497.45 110.773 488.328 114.421 476.821C115.825 472.05 111.615 469.664 101.791 469.664C97.5815 469.664 94.3538 470.225 92.1085 471.348V447.772C105.861 446.088 120.456 445.246 135.892 445.246C155.258 445.246 171.677 446.649 185.149 449.456C218.829 456.473 246.896 471.348 269.349 494.082C295.451 520.745 308.643 555.688 308.923 598.911C309.204 635.959 297.135 667.113 272.717 692.373C248.299 717.633 216.444 730.263 177.15 730.263C142.628 730.263 114.562 723.387 92.9505 709.634C69.6551 694.478 58.0075 673.147 58.0075 645.642C58.0075 620.663 65.8661 602.981 81.5835 592.596H58.4285V569.02H89.5825C84.8111 566.213 82.4255 561.161 82.4255 553.864C82.4255 544.883 86.2145 537.726 93.7925 532.393C106.703 523.412 124.104 519.763 145.996 521.447C172.379 523.412 190.763 532.112 201.147 547.549C207.603 557.372 211.111 572.388 211.672 592.596H148.943C113.86 592.596 95.0555 603.682 92.5295 625.855C90.5648 643.537 99.5461 657.149 119.473 666.692C136.875 674.831 156.942 678.199 179.676 676.796C204.375 675.393 224.723 667.815 240.721 654.062C256.719 640.309 267.104 622.206 271.875 599.753C273.279 593.578 273.98 587.263 273.98 580.808C273.98 560.881 268.227 541.936 256.719 523.973C245.773 506.852 232.161 494.643 215.882 487.346C210.269 493.24 206.34 497.31 204.094 499.555C199.042 504.046 194.411 507.273 190.201 509.238C178.133 514.851 165.783 517.518 153.153 517.237C134.91 516.676 122.701 512.325 116.526 504.186Z" fill="url(#paint0_linear_231_2673)"/>
<path d="M1311.14 112.86V229.056C1304.41 230.459 1294.72 231.161 1282.09 231.161C1269.75 230.88 1260.2 230.038 1253.47 228.635C1218.1 220.776 1200.14 200.568 1199.58 168.011C1199.3 153.416 1203.93 140.646 1213.47 129.7C1223.01 118.473 1235.22 112.86 1250.1 112.86H1311.14ZM1339.77 145.277V102.335C1339.77 81.8463 1342.72 70.9003 1348.61 69.497C1348.33 70.9003 1348.19 72.3037 1348.19 73.707C1348.19 78.4783 1351.7 85.916 1358.72 96.02C1366.01 106.124 1369.66 115.105 1369.66 122.964C1369.66 129.981 1367.14 135.594 1362.08 139.804C1357.03 143.733 1351.28 145.698 1344.82 145.698C1343.14 145.698 1341.46 145.558 1339.77 145.277ZM1222.31 64.445C1236.07 60.5157 1250.8 61.077 1266.52 66.129C1279.99 70.6197 1288.13 77.917 1290.94 88.021H1232.84C1231.43 88.021 1229.47 88.021 1226.94 88.021C1224.42 88.3017 1222.73 88.442 1221.89 88.442C1225.26 86.1967 1226.94 82.6883 1226.94 77.917C1226.94 73.1457 1225.4 68.655 1222.31 64.445ZM1141.9 163.38C1141.62 193.411 1152.71 216.707 1175.16 233.266C1194.81 247.58 1220.91 255.439 1253.47 256.842C1270.59 257.684 1289.81 256.982 1311.14 254.737V303.152H1339.77V250.106C1344.26 249.264 1351.56 247.44 1361.66 244.633C1365.03 243.51 1370.79 240.984 1378.92 237.055V213.058C1375.56 214.461 1369.94 216.566 1362.08 219.373C1357.31 220.776 1349.88 222.741 1339.77 225.267V169.695C1356.89 171.379 1372.19 168.151 1385.66 160.012C1401.38 150.75 1408.82 137.418 1407.97 120.017C1407.41 110.755 1403.9 102.195 1397.45 94.336C1394.36 90.4067 1388.61 85.2143 1380.19 78.759C1374.29 74.2683 1371.49 70.9003 1371.77 68.655C1372.61 63.0417 1375.7 60.235 1381.03 60.235C1382.71 60.235 1384.26 60.656 1385.66 61.498V37.922H1359.98C1349.31 37.922 1339.77 41.0093 1331.35 47.184C1323.21 53.3587 1317.46 61.3577 1314.09 71.181C1304.55 49.0083 1279.29 37.6413 1238.31 37.08C1212.49 36.7993 1192.56 42.132 1178.53 53.078C1170.39 59.5333 1166.32 67.392 1166.32 76.654C1166.32 81.1447 1167.44 85.495 1169.69 89.705C1172.21 93.915 1176.42 97.0023 1182.32 98.967C1171.09 104.019 1161.69 112.158 1154.11 123.385C1145.97 135.454 1141.9 148.785 1141.9 163.38Z" fill="url(#paint1_linear_231_2673)"/>
<path d="M1108.9 658.992C1104.92 658.992 1101.47 660.457 1098.54 663.388C1095.71 666.319 1094.41 669.72 1094.62 673.593C1094.93 679.873 1098.8 684.897 1106.23 688.665C1112.83 691.91 1120.42 693.532 1129 693.532C1138.1 693.532 1145.85 692.014 1152.23 688.979C1159.77 685.316 1163.75 680.03 1164.17 673.122C1164.38 669.459 1163.12 666.214 1160.4 663.388C1157.68 660.457 1153.23 658.992 1147.05 658.992H1108.9ZM1123.5 650.2C1122.67 646.013 1120.36 643.187 1116.6 641.722C1112.2 640.047 1108.06 640.1 1104.19 641.879C1105.97 642.612 1107.07 643.815 1107.49 645.49C1107.91 647.165 1107.59 648.735 1106.55 650.2H1123.5ZM1132.45 650.2H1148.15C1151.4 650.2 1154.28 650.566 1156.79 651.299C1157.73 649.938 1157.73 648.107 1156.79 645.804C1155.32 642.455 1151.4 640.78 1145.01 640.78C1143.76 640.78 1142.55 640.885 1141.4 641.094C1138.68 641.722 1136.69 642.612 1135.44 643.763C1133.45 645.542 1132.45 647.688 1132.45 650.2ZM1158.99 622.882C1162.33 617.335 1164.06 611.683 1164.17 605.926H1177.98C1176.94 609.903 1176.05 612.939 1175.31 615.032C1173.95 618.695 1172.33 621.94 1170.45 624.766C1168.14 628.115 1165.42 631.098 1162.28 633.715C1166.78 636.018 1169.45 639.786 1170.29 645.019C1170.71 647.845 1170.29 650.514 1169.03 653.026H1161.5C1163.9 653.654 1166.47 655.329 1169.19 658.05C1173.69 662.551 1175.94 668.726 1175.94 676.576C1175.94 687.461 1171.02 696.463 1161.18 703.58C1152.08 710.069 1141.35 713.314 1129 713.314C1116.44 713.314 1105.5 709.912 1096.19 703.109C1086.14 695.678 1081.43 686.415 1082.06 675.32C1082.58 666.528 1086.35 659.777 1093.36 655.067C1088.65 654.02 1086.29 650.88 1086.29 645.647C1086.29 640.414 1089.12 636.541 1094.77 634.029C1098.85 632.25 1103.88 631.36 1109.84 631.36C1118.53 631.36 1124.55 634.029 1127.9 639.367C1130.83 634.866 1136.17 632.197 1143.91 631.36C1145.69 631.151 1147.94 631.203 1150.66 631.517C1153.18 629.424 1154.75 628.115 1155.37 627.592C1156.73 626.231 1157.94 624.661 1158.99 622.882Z" fill="url(#paint2_linear_231_2673)"/>
<path d="M139.84 121.4C142.88 122.28 144.4 124.6 144.4 128.36C144.4 130.52 143.68 132.24 142.24 133.52C140.8 134.8 138.96 135.44 136.72 135.44C135.68 135.44 134.68 135.28 133.72 134.96C129.96 133.84 128.08 130.96 128.08 126.32C128.08 124.8 128.36 123.32 128.92 121.88C131.08 116.36 135.96 113.6 143.56 113.6C146.44 113.6 149.04 114.32 151.36 115.76C153.68 117.2 155.2 119.16 155.92 121.64C160.48 115.88 167.04 113.2 175.6 113.6C184.48 114 191.2 118.4 195.76 126.8C198.88 132.48 200.4 138.76 200.32 145.64C200.24 159.56 195.08 169 184.84 173.96C181.64 175.48 178.24 176.24 174.64 176.24C172.4 176.24 169.96 175.96 167.32 175.4V170.24C164.04 172.8 160.96 174.52 158.08 175.4C155.2 176.2 151.4 176.52 146.68 176.36C139.56 176.12 133.64 173.72 128.92 169.16C124.28 164.52 121.84 158.8 121.6 152C121.36 145.68 122.24 140.32 124.24 135.92H131.44C131.04 137.52 131.16 138.64 131.8 139.28C132.44 139.92 133.52 140.24 135.04 140.24C137.36 140.24 139.44 139.68 141.28 138.56C145.2 136.16 147.6 133.48 148.48 130.52C148.72 129.72 148.84 128.84 148.84 127.88C148.84 124.52 147.72 122.36 145.48 121.4C143.56 120.6 141.68 120.6 139.84 121.4ZM157.24 133.4C161.64 133.24 165.28 134.32 168.16 136.64C172.88 140.48 175.24 145.68 175.24 152.24C175.24 158.8 173.2 164.16 169.12 168.32C170.88 168.64 172.56 168.8 174.16 168.8C177.68 168.8 180.4 168.08 182.32 166.64C187.6 162.72 190.16 156.72 190 148.64C189.92 143.28 188.12 138.56 184.6 134.48C181.08 130.4 176.76 128.24 171.64 128C165.16 127.68 160.36 129.48 157.24 133.4ZM130.12 146.12C129.88 147.24 129.76 148.36 129.76 149.48C129.76 152.68 130.6 155.36 132.28 157.52C134.84 160.88 139.12 162.56 145.12 162.56C146.64 162.56 148.36 162.44 150.28 162.2C154.2 161.8 157.44 160.16 160 157.28C162.4 154.64 163.6 151.68 163.6 148.4C163.6 146.48 163.12 144.72 162.16 143.12C160.8 140.96 158.4 139.8 154.96 139.64C153.28 139.56 151.16 140.36 148.6 142.04C145.16 144.36 143.04 145.68 142.24 146C139.92 146.96 137.56 147.44 135.16 147.44C132.92 147.44 131.24 147 130.12 146.12Z" fill="url(#paint3_linear_231_2673)"/>
</g>
<defs>
<linearGradient id="paint0_linear_231_2673" x1="22.0625" y1="343.423" x2="372.57" y2="1048" gradientUnits="userSpaceOnUse">
<stop stop-color="white" stop-opacity="0"/>
<stop offset="1" stop-color="white" stop-opacity="0.21"/>
</linearGradient>
<linearGradient id="paint1_linear_231_2673" x1="1468" y1="-217.5" x2="1251.07" y2="404.149" gradientUnits="userSpaceOnUse">
<stop stop-color="white" stop-opacity="0"/>
<stop offset="1" stop-color="white" stop-opacity="0.21"/>
</linearGradient>
<linearGradient id="paint2_linear_231_2673" x1="1225" y1="506" x2="1056.78" y2="780.367" gradientUnits="userSpaceOnUse">
<stop stop-color="white" stop-opacity="0"/>
<stop offset="1" stop-color="white" stop-opacity="0.21"/>
</linearGradient>
<linearGradient id="paint3_linear_231_2673" x1="125.125" y1="67.8462" x2="191.51" y2="215.012" gradientUnits="userSpaceOnUse">
<stop stop-color="white" stop-opacity="0"/>
<stop offset="1" stop-color="white" stop-opacity="0.21"/>
</linearGradient>
</defs>
</svg>
